<svg width="101" height="105" viewBox="0 0 101 105" fill="none" xmlns="http://www.w3.org/2000/svg">
<g clip-path="url(#clip0_21_399)">
<path d="M66.4385 0.000110313C68.0857 1.48348 68.9945 3.55367 69.736 5.64068C69.7919 5.79775 69.8478 5.95482 69.9053 6.11666C70.6137 8.20612 70.8085 10.1637 70.7985 12.3763C70.7974 12.63 70.7963 12.8837 70.7952 13.1452C70.773 14.8904 70.6802 16.4645 70.1512 18.1314C70.1103 18.2614 70.0694 18.3913 70.0273 18.5252C68.4219 23.5297 65.4528 27.8189 60.8533 30.229C59.8677 30.7238 58.8793 31.2161 57.8406 31.5771C57.635 32.0758 57.4685 32.5519 57.3131 33.0676C57.2662 33.2165 57.2193 33.3655 57.171 33.5189C57.0215 33.9957 56.8753 34.4734 56.7292 34.9512C56.6285 35.2743 56.5276 35.5972 56.4265 35.9201C56.1789 36.7126 55.9342 37.506 55.6911 38.2999C55.7556 38.3672 55.82 38.4344 55.8865 38.5037C56.0217 38.3532 56.157 38.2027 56.2964 38.0477C61.297 32.5961 68.2329 29.3529 75.4654 29.0743C81.1454 28.949 81.1454 28.949 83.1206 29.9871C84.1845 31.216 84.0852 33.8007 84.1106 35.3842C84.115 35.5402 84.1193 35.6962 84.1238 35.8569C84.121 36.5807 84.0799 36.9994 83.6656 37.5909C83.2435 37.8925 83.2435 37.8925 82.6573 37.8925C82.6017 38.6221 82.5554 39.3521 82.5107 40.0825C82.4949 40.2894 82.479 40.4964 82.4626 40.7096C82.4305 41.2751 82.4077 41.8105 82.4619 42.3744C82.8364 42.8243 82.8364 42.8243 83.2435 43.1893C83.3911 44.4879 83.0937 45.5276 82.6695 46.7417C82.6096 46.9172 82.5498 47.0928 82.4881 47.2736C81.942 48.8173 81.2438 50.2499 80.4727 51.6828C80.1062 52.3292 80.1062 52.3292 79.9216 52.968C80.1392 52.9848 80.3568 53.0016 80.5811 53.0189C81.5902 53.1504 82.5435 53.4834 83.4389 53.9866C84.4656 55.5921 83.9335 57.8913 83.6343 59.6908C82.9047 63.3747 81.2891 66.4393 78.9445 69.2657C78.833 69.4028 78.7214 69.5399 78.6064 69.6812C75.6187 73.0602 70.9761 75.3539 66.5827 75.6066C64.2426 75.6845 62.0739 75.5371 59.7946 74.97C59.6165 74.9267 59.4385 74.8833 59.255 74.8387C58.9125 74.7521 58.5716 74.6586 58.2314 74.5625C54.7627 78.8232 52.7626 83.8253 51.7432 89.2664C51.5875 90.0454 51.5875 90.0454 51.3921 90.4529C51.5251 90.4559 51.6581 90.4588 51.7951 90.4619C63.586 90.751 82.1302 92.0517 91.0598 101.454C91.5337 102.202 91.786 102.795 91.646 103.695C91.4326 104.025 91.4326 104.025 91.0598 104.306C90.4629 104.383 90.4629 104.383 89.7112 104.384C89.5725 104.385 89.4338 104.386 89.2909 104.387C88.8227 104.39 88.3545 104.388 87.8862 104.386C87.5486 104.387 87.2109 104.389 86.8732 104.39C85.9425 104.393 85.0119 104.393 84.0812 104.392C83.0786 104.391 82.0759 104.394 81.0733 104.397C79.108 104.401 77.1427 104.402 75.1774 104.402C73.5806 104.401 71.9838 104.402 70.387 104.404C69.9277 104.404 69.4685 104.405 69.0092 104.405C68.6663 104.405 68.6663 104.405 68.3165 104.406C63.99 104.409 59.6636 104.409 55.3371 104.408C51.3756 104.407 47.4141 104.411 43.4527 104.418C39.3888 104.425 35.325 104.428 31.2611 104.427C28.978 104.426 26.695 104.427 24.4119 104.432C22.4684 104.437 20.5249 104.437 18.5813 104.434C17.5891 104.432 16.5969 104.431 15.6046 104.436C14.6971 104.439 13.7897 104.439 12.8822 104.434C12.553 104.433 12.2239 104.434 11.8948 104.437C11.4488 104.44 11.0033 104.437 10.5574 104.433C10.3093 104.433 10.0612 104.433 9.80554 104.433C9.18415 104.306 9.18415 104.306 8.71056 103.832C8.40252 103.287 8.40252 103.287 8.35367 102.6C9.14105 100.219 12.619 98.837 14.6433 97.7909C19.4904 95.3346 19.4904 95.3346 20.7132 95.7497C21.0391 96.0664 21.0391 96.0664 21.2994 96.3608C21.4947 96.3053 21.4947 96.3053 21.694 96.2486C21.8741 96.1974 22.0542 96.1462 22.2398 96.0935C22.4345 96.0365 22.6292 95.9795 22.8298 95.9208C23.2335 95.8092 23.6403 95.7094 24.0496 95.6231C24.5968 95.5005 25.0882 95.3794 25.5984 95.1385C25.9817 94.4438 25.9817 94.4438 26.1846 93.7124C26.8568 93.1957 27.4862 92.9799 28.2974 92.8029C28.5208 92.7538 28.7442 92.7048 28.9744 92.6542C29.2145 92.6043 29.4546 92.5543 29.7019 92.5028C29.9523 92.45 30.2027 92.3971 30.4607 92.3427C36.2237 91.1479 42.0027 90.5559 47.8748 90.6566C47.4066 86.8547 46.6384 83.4607 45.075 79.9811C44.7483 79.2482 44.7483 79.2482 44.5529 78.637C44.337 78.6811 44.1211 78.7252 43.8987 78.7707C37.5933 79.9793 31.4163 79.1225 26.0456 75.346C25.3527 74.8416 24.6901 74.3038 24.0351 73.7476C23.8789 73.6161 23.7228 73.4845 23.5618 73.349C22.3934 72.3177 21.4468 71.1416 20.5178 69.8769C20.3991 69.718 20.2805 69.5592 20.1583 69.3955C17.3546 65.4518 15.9847 60.6544 15.9623 55.7819C15.9613 55.5797 15.9602 55.3774 15.959 55.1691C15.9684 54.198 15.9951 53.4471 16.4142 52.5605C19.4168 50.4187 24.9261 50.7208 28.4272 51.2737C29.2613 51.4404 30.0675 51.6745 30.8744 51.9493C31.0073 51.993 31.1402 52.0367 31.2771 52.0816C36.9912 53.9999 41.7669 58.2822 44.5941 63.7764C45.9247 66.484 46.8982 69.6275 46.9321 72.69C46.9368 72.9095 46.9414 73.1289 46.9462 73.3549C46.9546 73.8111 46.9607 74.2674 46.9645 74.7237C46.97 74.9434 46.9754 75.163 46.9809 75.3894C46.9852 75.6865 46.9852 75.6865 46.9896 75.9897C47.0898 76.7797 47.0898 76.7797 47.8748 78.0258C47.9393 69.9584 48.0038 61.891 48.0702 53.5791C46.716 53.5791 45.3618 53.5791 43.9666 53.5791C36.2209 52.291 29.2882 48.405 24.61 41.6798C22.5223 38.5783 20.9002 35.2324 19.9315 31.5771C19.8929 31.4324 19.8542 31.2877 19.8143 31.1386C19.5707 30.1838 19.4997 29.4882 19.7361 28.5213C20.017 28.1265 20.017 28.1265 20.3224 27.9101C20.4513 27.9101 20.5803 27.9101 20.7132 27.9101C20.6652 27.5634 20.6652 27.5634 20.6162 27.2098C20.5054 26.2855 20.4955 25.3771 20.5056 24.4468C20.5064 24.289 20.5073 24.1311 20.5082 23.9685C20.5105 23.5847 20.514 23.2009 20.5178 22.817C20.288 22.7351 20.288 22.7351 20.0537 22.6515C19.5407 22.4096 19.5407 22.4096 19.1499 21.7984C19.0899 20.6662 19.1976 19.6127 19.3942 18.5007C19.4331 18.2773 19.4331 18.2773 19.4728 18.0493C20.1747 14.1966 20.1747 14.1966 21.104 13.4458C23.8857 12.4791 27.8508 13.1367 30.6789 13.8532C30.8149 13.8871 30.9508 13.921 31.0908 13.9559C35.463 15.0842 39.417 17.2723 42.7942 20.3724C42.9748 20.5336 43.1554 20.6948 43.3415 20.861C44.6087 22.0195 45.6845 23.2517 46.7023 24.6505C46.7807 24.7566 46.859 24.8626 46.9396 24.9718C49.7403 28.7866 51.2157 32.8831 52.3692 37.485C52.6493 36.634 52.9276 35.7822 53.204 34.9298C53.2983 34.6402 53.393 34.3507 53.4884 34.0614C53.6256 33.6447 53.7608 33.2273 53.8958 32.8098C53.9776 32.5591 54.0595 32.3084 54.1438 32.05C54.339 31.3137 54.4849 30.6949 54.1507 29.9919C54.0706 29.8763 53.9905 29.7608 53.908 29.6417C51.1476 25.2964 50.4516 20.0284 51.3852 14.9777C52.1096 11.4659 53.7694 8.14657 56.0819 5.50062C56.2648 5.28514 56.2648 5.28514 56.4513 5.06532C58.4583 2.82789 63.2755 -0.914557 66.4385 0.000110313ZM51.1967 66.6174C51.1967 70.8528 51.1967 75.0881 51.1967 79.4519C51.5847 78.9126 51.9188 78.4222 52.2417 77.8484C53.0924 76.3555 53.9432 74.8878 54.9705 73.5185C55.0513 73.4098 55.132 73.3011 55.2152 73.1891C55.5442 72.7522 55.8769 72.3318 56.2483 71.9332C56.8373 71.2678 57.1162 70.6199 57.2597 69.7321C57.2866 69.5723 57.3135 69.4126 57.3413 69.2479C57.4556 68.4409 57.5481 67.6306 57.6451 66.8211C55.5172 66.7539 53.3892 66.6866 51.1967 66.6174Z" fill="#070706"/>
<path d="M23.0581 16.298C30.4514 16.011 36.7818 18.9323 42.208 24.0395C42.7036 24.5552 43.143 25.096 43.5759 25.6693C43.728 25.8636 43.8801 26.0579 44.0369 26.2582C46.3669 29.2784 48.0625 32.694 49.0228 36.4411C49.0626 36.596 49.1023 36.7508 49.1432 36.9104C49.6318 38.9447 49.669 40.9735 49.6701 43.0621C49.6725 43.2948 49.6749 43.5274 49.6774 43.7672C49.6799 45.3119 49.5343 46.7681 49.2427 48.2825C48.7624 47.805 48.3673 47.3723 48.055 46.7609C47.9862 46.6291 47.9175 46.4973 47.8467 46.3615C47.7397 46.1527 47.7397 46.1527 47.6306 45.9397C46.8683 44.4932 46.0452 43.118 45.1391 41.7634C45.0517 41.6318 44.9642 41.5002 44.8741 41.3647C43.5793 39.4184 42.2459 37.5124 40.8402 35.6517C40.649 35.3964 40.649 35.3964 40.4539 35.136C39.42 33.7698 38.3409 32.4443 37.2429 31.134C37.0332 30.8833 36.8245 30.6318 36.6166 30.3796C36.3093 30.0078 35.9984 29.6399 35.6863 29.2726C35.5934 29.1591 35.5005 29.0456 35.4048 28.9286C34.9476 28.3993 34.6257 28.1265 33.9681 27.9134C33.3733 27.8543 33.3733 27.8543 32.8407 28.3304C32.388 28.883 32.388 28.883 32.4308 29.4859C32.7145 30.4191 33.2476 30.9339 33.9032 31.6154C34.1558 31.8876 34.408 32.1603 34.6596 32.4335C34.7823 32.566 34.9049 32.6985 35.0313 32.835C35.7813 33.6618 36.4474 34.5591 37.1274 35.448C37.3212 35.6929 37.5153 35.9374 37.7098 36.1817C46.8978 47.7551 46.8978 47.7551 46.8978 50.5234C41.348 50.8608 35.6225 48.3243 31.4606 44.6155C31.3099 44.4823 31.3099 44.4823 31.1562 44.3465C26.9043 40.5493 24.205 35.6374 22.7347 30.0473C22.683 29.8549 22.6313 29.6626 22.578 29.4644C22.5337 29.2923 22.4894 29.1202 22.4438 28.9428C22.2922 28.4504 22.2922 28.4504 21.6902 28.1139C21.3667 28.0355 21.0411 27.9656 20.7132 27.9102C20.5457 26.7115 20.4933 25.5554 20.5056 24.3451C20.5065 24.1775 20.5073 24.01 20.5083 23.8374C20.5105 23.4294 20.514 23.0214 20.5178 22.6134C20.7032 22.5588 20.8886 22.5042 21.0796 22.4479C21.7396 22.257 21.7396 22.257 22.0811 21.5948C22.1561 21.1217 22.215 20.6456 22.2642 20.1688C22.413 18.8369 22.6745 17.5805 23.0581 16.298Z" fill="#9BBE41"/>
<path d="M76.3632 32.3348C76.8258 32.3413 77.2882 32.3432 77.7507 32.3443C78.0474 32.3462 78.3441 32.3483 78.6408 32.3507C78.7777 32.3516 78.9147 32.3524 79.0559 32.3533C79.6969 32.3631 80.2853 32.3919 80.8986 32.5958C80.9084 32.7222 80.9182 32.8486 80.9283 32.9788C80.9737 33.5516 81.0216 34.1242 81.0696 34.6967C81.085 34.8956 81.1003 35.0946 81.1162 35.2995C81.1325 35.4906 81.1489 35.6816 81.1658 35.8785C81.1801 36.0545 81.1944 36.2305 81.2092 36.4119C81.2687 36.9293 81.2687 36.9293 81.6803 37.4852C82.1811 37.6338 82.1811 37.6338 82.6573 37.6889C82.6295 38.2025 82.6009 38.716 82.5718 39.2295C82.5641 39.373 82.5564 39.5166 82.5485 39.6644C82.496 40.5776 82.4021 41.4706 82.2665 42.3745C81.6861 42.509 81.1058 42.6434 80.5078 42.7819C80.4791 42.923 80.4504 43.064 80.4208 43.2093C79.7795 46.1255 78.6146 48.7603 77.1859 51.3383C77.0718 51.5668 76.9577 51.7952 76.8401 52.0306C76.4043 52.5606 76.4043 52.5606 75.7318 52.6887C75.4633 52.6885 75.1948 52.6837 74.9265 52.6752C69.9702 52.7643 65.4311 55.3069 61.9849 58.9248C60.9016 60.1227 59.7631 61.6557 59.2466 63.2242C59.013 63.5616 59.013 63.5616 58.4421 63.712C57.4466 63.8037 56.4455 63.8029 55.4468 63.8035C55.2529 63.806 55.0589 63.8085 54.8591 63.8111C54.6732 63.8115 54.4873 63.8119 54.2958 63.8123C54.1274 63.8131 53.9591 63.814 53.7857 63.8148C53.3462 63.7653 53.3462 63.7653 52.76 63.3579C57.9837 55.9807 64.0995 48.8837 71.6809 44.0934C72.0814 43.8171 72.3971 43.5849 72.6915 43.1894C72.6541 42.1615 72.6541 42.1615 72.1053 41.3559C70.8857 41.195 70.2213 41.5666 69.2475 42.2472C69.1115 42.3392 68.9755 42.4313 68.8354 42.5261C67.5275 43.4244 66.2829 44.3974 65.0706 45.4303C64.9667 45.5188 64.8628 45.6073 64.7557 45.6984C61.597 48.4043 58.5209 51.3327 55.8865 54.5978C55.7112 54.8087 55.5356 55.0193 55.3598 55.2297C54.2183 56.6002 53.1132 57.9915 52.0545 59.4328C51.8378 59.7259 51.6156 60.0145 51.3921 60.3021C51.3277 60.3021 51.2632 60.3021 51.1967 60.3021C51.1257 57.6981 51.2002 55.3031 51.783 52.7643C51.8306 52.5235 51.8782 52.2827 51.9272 52.0346C52.9529 47.3569 55.4816 43.5322 58.6222 40.1335C58.7476 39.9899 58.8731 39.8463 59.0023 39.6982C62.0206 36.3404 66.2762 34.026 70.542 33.0033C70.8303 32.9246 70.8303 32.9246 71.1245 32.8443C72.8922 32.3936 74.5512 32.3093 76.3632 32.3348Z" fill="#9ABE41"/>
<path d="M48.2656 93.7123C48.2694 93.8325 48.2733 93.9527 48.2773 94.0766C48.2959 94.6216 48.3173 95.1664 48.3388 95.7113C48.3479 95.9951 48.3479 95.9951 48.3572 96.2847C48.3647 96.4665 48.3723 96.6484 48.3801 96.8357C48.3862 97.0032 48.3923 97.1707 48.3987 97.3433C48.4382 97.8457 48.4382 97.8457 48.8518 98.3979C49.6475 98.506 49.6475 98.506 50.415 98.3979C50.8406 98.0301 50.9809 97.7203 51.0648 97.1532C51.1029 96.6339 51.1227 96.1173 51.1356 95.5967C51.1423 95.4158 51.1489 95.2348 51.1558 95.0484C51.1719 94.603 51.1854 94.1578 51.1967 93.7123C59.0485 93.5442 67.1131 94.6347 74.6455 96.9718C74.7743 97.0109 74.903 97.0499 75.0357 97.0902C78.3995 98.1133 81.6626 99.435 84.8067 101.046C84.8067 101.113 84.8067 101.181 84.8067 101.25C61.8503 101.25 38.8938 101.25 15.2417 101.25C15.7824 100.827 16.1767 100.534 16.7645 100.244C16.9031 100.176 17.0416 100.107 17.1844 100.036C17.3292 99.9663 17.474 99.8962 17.6233 99.8239C17.7712 99.7517 17.9192 99.6795 18.0717 99.6051C19.0652 99.1268 20.0517 98.717 21.1039 98.3979C21.1684 97.7928 21.2329 97.1878 21.2994 96.5644C21.8608 96.3637 22.4226 96.1645 22.9847 95.9659C23.1427 95.9093 23.3006 95.8528 23.4633 95.7944C24.3033 95.499 25.1056 95.2561 25.9891 95.1383C26.0899 95.3064 26.1906 95.4745 26.2945 95.6476C26.7278 96.2206 26.7278 96.2206 27.3715 96.2174C28.2695 96.1466 29.0784 95.9389 29.9461 95.6986C32.4424 95.0438 34.9683 94.6716 37.5182 94.3234C37.6868 94.3001 37.8554 94.2767 38.0291 94.2526C41.4259 93.7907 44.8424 93.6668 48.2656 93.7123Z" fill="#F4CB8F"/>
<path d="M32.4376 56.0237C32.6316 56.1112 32.8256 56.1986 33.0254 56.2887C37.692 58.5435 41.1889 62.8731 42.9896 67.8396C43.4142 69.1588 43.8348 70.5105 43.7713 71.9141C43.2463 71.3708 42.7271 70.8238 42.2172 70.2652C39.4162 67.2278 34.1929 62.0602 29.9416 61.6794C29.5034 61.6987 29.5034 61.6987 29.1524 61.9317C28.8382 62.4833 28.8406 62.9423 28.8234 63.5742C28.9659 64.1545 29.213 64.2711 29.7019 64.5801C30.1761 64.8287 30.6513 65.0691 31.1309 65.3058C35.4195 67.4854 39.9 71.0116 42.5988 75.1736C42.5988 75.3081 42.5988 75.4425 42.5988 75.5811C38.4049 76.9235 33.6109 76.0458 29.7871 73.968C27.9233 72.9068 26.3598 71.5964 24.8168 70.0806C24.618 69.8966 24.618 69.8966 24.4153 69.7089C21.4042 66.803 19.6639 62.4567 19.15 58.2647C19.1287 57.6616 19.1314 57.06 19.1377 56.4566C19.1386 56.297 19.1395 56.1373 19.1404 55.9728C19.1427 55.5823 19.1462 55.1918 19.15 54.8014C23.603 53.4496 28.2449 54.0879 32.4376 56.0237Z" fill="#C3E565"/>
<path d="M80.8986 56.4312C80.9418 57.6415 80.8158 58.6564 80.4955 59.8181C80.4517 59.9775 80.408 60.137 80.3629 60.3013C79.0333 64.9205 76.1578 68.4014 72.1052 70.6918C69.7846 71.8753 67.5288 72.4266 64.9484 72.3852C64.6394 72.3862 64.6394 72.3862 64.3241 72.3872C63.0319 72.378 61.8318 72.2327 60.5762 71.9141C60.8352 71.104 61.3404 70.773 61.9685 70.2716C62.0909 70.173 62.2134 70.0744 62.3396 69.9729C64.8077 68.0097 67.4013 66.3871 70.1925 64.9722C70.3322 64.9011 70.472 64.83 70.616 64.7568C70.7424 64.6934 70.8687 64.6301 70.9989 64.5649C71.3603 64.3753 71.3603 64.3753 71.7144 63.9689C71.6678 62.9432 71.6678 62.9432 71.1282 62.1354C69.7152 61.9567 68.7744 62.4273 67.5376 63.1031C67.3509 63.2027 67.1643 63.3022 66.972 63.4048C65.2687 64.3338 63.6769 65.4093 62.1059 66.5607C61.6016 66.9282 61.0894 67.2823 60.5762 67.6359C60.8949 65.2537 62.3599 62.837 63.8981 61.1168C64.0278 60.9632 64.1576 60.8096 64.2912 60.6513C65.9884 58.7445 68.2195 57.3523 70.542 56.4312C70.7322 56.3514 70.9223 56.2715 71.1183 56.1893C74.0113 55.1415 78.0801 55.06 80.8986 56.4312Z" fill="#C2E564"/>
<path d="M65.2661 3.25964C67.5139 7.69066 68.6708 12.1833 67.2843 17.151C66.5726 19.3516 65.7008 21.4094 64.289 23.2244C64.1611 23.3933 64.0331 23.5622 63.9013 23.7361C62.6012 25.3512 60.9393 26.7886 59.0131 27.5026C59.1319 26.3238 59.4341 25.286 59.8138 24.1714C59.8748 23.9892 59.9359 23.8069 59.9988 23.6191C60.1285 23.2329 60.2588 22.847 60.3896 22.4613C60.5844 21.8869 60.7773 21.312 60.9698 20.7368C61.626 18.784 62.3026 16.8401 63.0059 14.9052C63.0728 14.7205 63.1397 14.5358 63.2087 14.3455C63.2706 14.1767 63.3325 14.0078 63.3963 13.8338C63.4509 13.6847 63.5055 13.5355 63.5618 13.3818C63.7028 13.0383 63.7028 13.0383 63.8982 12.8346C63.9743 11.9985 63.9743 11.9985 63.6784 11.243C63.1518 10.8953 62.7621 10.8106 62.1396 10.7974C61.5272 11.3237 61.2221 11.8182 60.9435 12.5855C60.8708 12.7832 60.7982 12.9809 60.7233 13.1846C60.6466 13.4011 60.5699 13.6175 60.4908 13.8405C60.4085 14.0679 60.3263 14.2954 60.2415 14.5297C58.7758 18.6187 57.3903 22.7449 56.0819 26.8914C55.4187 26.5457 55.3321 25.7424 55.1049 25.0452C55.054 24.8946 55.0031 24.744 54.9507 24.5888C54.8002 24.1359 54.6573 23.6815 54.5187 23.2244C54.4787 23.0929 54.4388 22.9614 54.3976 22.8259C53.2705 18.6937 54.3691 14.2534 56.2581 10.5804C57.8631 7.63315 61.7172 3.25964 65.2661 3.25964Z" fill="#AED549"/>
<path d="M75.818 32.3919C76.5182 32.386 77.2184 32.3824 77.9186 32.3792C78.1171 32.3775 78.3156 32.3758 78.5201 32.374C78.7116 32.3733 78.903 32.3727 79.1002 32.372C79.2762 32.3709 79.4523 32.3699 79.6336 32.3688C80.0845 32.3903 80.467 32.4629 80.8986 32.5956C80.9084 32.722 80.9182 32.8484 80.9283 32.9786C80.9736 33.5514 81.0216 34.124 81.0696 34.6965C81.0849 34.8954 81.1003 35.0944 81.1161 35.2993C81.1325 35.4904 81.1489 35.6814 81.1658 35.8783C81.1801 36.0543 81.1944 36.2303 81.2092 36.4117C81.2687 36.9291 81.2687 36.9291 81.6802 37.485C82.181 37.6336 82.181 37.6336 82.6573 37.6887C82.6295 38.2023 82.6008 38.7158 82.5718 39.2293C82.5641 39.3729 82.5564 39.5164 82.5485 39.6642C82.496 40.5774 82.402 41.4704 82.2664 42.3743C81.6861 42.5088 81.1057 42.6432 80.5078 42.7817C80.4791 42.9228 80.4504 43.0638 80.4208 43.2091C79.7795 46.1253 78.6146 48.7601 77.1859 51.3381C77.074 51.5658 76.9622 51.7935 76.847 52.028C76.4042 52.5604 76.4042 52.5604 75.6699 52.71C75.3855 52.7166 75.101 52.7174 74.8165 52.7132C74.5191 52.7193 74.2216 52.7264 73.9242 52.7347C73.7804 52.738 73.6365 52.7412 73.4883 52.7445C72.6836 52.7834 71.9069 52.9661 71.1282 53.1716C71.2066 53.0547 71.2849 52.9379 71.3656 52.8175C72.9269 50.3851 74.112 47.7461 74.9265 44.9463C74.9723 44.7893 75.0182 44.6322 75.0654 44.4705C75.818 41.7208 75.8688 39.033 75.8424 36.199C75.8405 35.8283 75.8387 35.4576 75.8371 35.0868C75.8328 34.1885 75.8261 33.2902 75.818 32.3919Z" fill="#84A918"/>
<path d="M60.9671 5.29688C61.1606 5.3641 61.354 5.43133 61.5533 5.5006C61.7568 5.97561 61.9179 6.42032 62.0663 6.91392C62.109 7.05128 62.1518 7.18865 62.1958 7.33017C62.5179 8.40965 62.6977 9.46057 62.7258 10.5937C62.5505 10.6517 62.3752 10.7097 62.1945 10.7695C61.2516 11.4097 61.0536 12.2043 60.674 13.2802C60.594 13.4975 60.514 13.7147 60.4316 13.9385C58.8784 18.2143 57.4532 22.5489 56.0819 26.8915C55.4187 26.5457 55.3321 25.7424 55.1049 25.0452C55.054 24.8946 55.0031 24.744 54.9507 24.5888C54.8002 24.1359 54.6573 23.6815 54.5187 23.2245C54.4787 23.0929 54.4388 22.9614 54.3976 22.8259C53.2705 18.6937 54.3691 14.2534 56.2581 10.5804C57.4051 8.4742 59.0318 6.64197 60.9671 5.29688Z" fill="#C2E564"/>
<path d="M75.818 55.6163C77.5785 55.5535 79.2774 55.6425 80.8986 56.4312C80.9418 57.6416 80.8158 58.6564 80.4955 59.8181C80.4518 59.9776 80.408 60.137 80.3629 60.3013C79.0333 64.9206 76.1578 68.4014 72.1052 70.6918C70.1388 71.6947 68.0621 72.4545 65.8522 72.3216C66.4242 71.8584 67.0155 71.4637 67.6353 71.0738C68.7857 70.313 69.7676 69.4455 70.7374 68.4509C70.8885 68.2959 71.0397 68.141 71.1954 67.9813C72.886 66.1403 74.0397 63.9249 74.8409 61.5243C74.9248 61.2785 74.9248 61.2785 75.0104 61.0277C75.4474 59.7086 75.6543 58.4765 75.7325 57.0806C75.7451 56.8689 75.7451 56.8689 75.7581 56.6529C75.7786 56.3074 75.7984 55.9619 75.818 55.6163Z" fill="#B0D74A"/>
<path d="M62.5303 94.5272C64.2136 94.6412 65.8542 94.874 67.5132 95.1893C67.7529 95.2348 67.9927 95.2803 68.2397 95.3271C72.9092 96.2324 77.3492 97.6615 81.7291 99.5821C82.0554 99.7251 82.0554 99.7251 82.3883 99.8711C83.2676 100.265 84.0576 100.62 84.8067 101.25C77.8595 101.645 77.8595 101.645 74.7373 99.5118C73.7735 98.9148 72.7286 98.5006 71.69 98.0669C71.3568 97.927 71.3568 97.927 71.0169 97.7842C68.2541 96.6461 65.4217 95.6534 62.5303 94.9347C62.5303 94.8002 62.5303 94.6658 62.5303 94.5272Z" fill="#ECBE7D"/>
<path d="M60.3808 60.3019C60.5098 60.3691 60.6388 60.4363 60.7716 60.5056C60.6611 60.6921 60.5505 60.8785 60.4365 61.0706C60.2918 61.3152 60.147 61.5598 60.0022 61.8043C59.9293 61.9272 59.8564 62.0501 59.7812 62.1768C59.3772 62.8574 59.3772 62.8574 59.013 63.5614C57.8233 63.8319 56.6224 63.7886 55.4102 63.7779C55.2113 63.777 55.0124 63.7761 54.8075 63.7751C54.3204 63.7727 53.8333 63.7694 53.3462 63.7652C53.3462 63.6979 53.3462 63.6307 53.3462 63.5614C53.5436 63.5602 53.5436 63.5602 53.7451 63.559C55.2771 63.4904 56.2543 63.0284 57.523 62.1608C57.6915 62.0503 57.86 61.9397 58.0336 61.8258C58.6883 61.3957 59.3377 60.9581 59.9854 60.5167C60.1159 60.4458 60.2464 60.3749 60.3808 60.3019Z" fill="#7FA218"/>
</g>
<defs>
<clipPath id="clip0_21_399">
<rect width="100.049" height="104.306" fill="white"/>
</clipPath>
</defs>
</svg>
