<svg width="103" height="101" viewBox="0 0 103 101" fill="none" xmlns="http://www.w3.org/2000/svg">
<g clip-path="url(#clip0_21_431)">
<path d="M79.4268 7.03465C82.4034 9.32527 84.08 12.1468 84.7114 15.7959C84.7415 15.9677 84.7716 16.1395 84.8026 16.3165C84.825 16.4676 84.8474 16.6188 84.8704 16.7745C85.0739 17.3688 85.2913 17.6099 85.8129 17.9775C86.3706 18.0502 86.8649 18.0869 87.4219 18.0874C88.8933 18.0964 88.8933 18.0964 89.3918 18.4347C89.6046 18.7591 89.6046 18.7591 89.8042 19.3453C90.3917 19.5896 91.0262 19.6843 91.6502 19.8094C91.8218 19.8489 91.9934 19.8885 92.1701 19.9292C93.1863 20.1599 93.1863 20.1599 94.1416 19.8415C94.2908 19.7422 94.44 19.643 94.5938 19.5407C96.3991 19.6009 97.8224 21.0787 99.0216 22.2764C101.186 24.7057 102.3 27.7519 102.252 30.9598C102.25 31.1572 102.248 31.3545 102.245 31.5578C102.17 35.0079 100.914 37.8412 98.3855 40.2539C98.1868 40.4579 98.1868 40.4579 97.984 40.6661C95.4416 43.1129 92.0023 44.0641 88.5234 44.05C86.6174 43.9986 84.8147 43.6327 83.1188 42.7453C82.3107 42.3497 81.9036 42.3316 81.0234 42.4034C80.9493 42.573 80.9493 42.573 80.8737 42.7461C79.9295 44.4074 77.9686 45.3821 76.1831 45.9215C72.939 46.7129 70.3322 46.0417 67.4522 44.5437C67.0674 44.3294 67.0674 44.3294 66.6547 44.3574C66.6889 44.4813 66.723 44.6052 66.7583 44.7328C69.4359 54.4802 68.9419 63.9703 63.7184 72.8593C63.04 73.9648 62.2711 74.9942 61.466 76.0134C61.3276 76.1925 61.1892 76.3716 61.0466 76.5561C55.4312 83.5682 47.1714 87.8625 38.212 89.0454C37.6855 89.0912 37.1771 89.116 36.6498 89.1233C34.8001 89.094 34.8001 89.094 33.24 89.9484C33.1232 90.0713 33.0065 90.1943 32.8861 90.3209C31.8508 91.3303 30.4535 91.4708 29.0616 91.585C27.5962 91.7439 26.8134 92.2499 25.6963 93.1597C23.261 95.1058 20.1894 95.3956 17.1626 95.1633C15.2355 94.9057 13.5147 94.1467 11.9989 92.9528C11.1558 92.507 10.4021 92.5385 9.45596 92.491C7.0233 92.2627 5.28974 90.9391 3.74419 89.179C2.31411 87.2912 2.19562 85.1223 2.39479 82.8527C2.91465 80.4355 4.36193 78.7696 6.38609 77.3813C6.71653 77.1824 7.04854 76.9859 7.38391 76.7951C7.31555 76.7016 7.24719 76.6081 7.17675 76.5118C6.86262 76.0816 6.54952 75.6506 6.23642 75.2196C6.12889 75.0726 6.02135 74.9256 5.91056 74.7742C4.02674 72.176 4.02674 72.176 4.19088 70.542C4.30973 70.3686 4.30973 70.3686 4.43098 70.1917C4.64537 69.6103 4.4523 69.283 4.19945 68.7383C4.10877 68.5551 4.10877 68.5551 4.01626 68.3681C3.39262 67.0588 3.39262 67.0588 3.39262 66.6339C3.21151 66.65 3.03041 66.6661 2.84381 66.6827C2.19523 66.6339 2.19523 66.6339 1.7883 66.3545C1.22663 65.6336 1.07722 64.8947 0.873111 64.0203C0.812142 63.7804 0.812142 63.7804 0.749942 63.5356C0.107756 60.9115 -0.0753705 58.3399 -0.0623493 55.6544C-0.0619192 55.4948 -0.0614891 55.3351 -0.061046 55.1706C-0.0297182 47.9241 2.29804 41.1566 6.78522 35.3687C6.67872 35.34 6.57222 35.3113 6.46249 35.2817C4.27652 34.6373 2.54725 33.5652 1.34084 31.6384C0.549849 30.1087 0.365883 28.2747 0.828677 26.6181C1.42915 25.0791 2.37002 23.7656 3.79175 22.8626C4.37975 22.6119 4.96504 22.4246 5.58783 22.2764C5.57857 22.1462 5.56931 22.016 5.55977 21.8818C5.47428 19.7442 6.10267 17.9963 7.58348 16.4142C9.14582 14.8628 10.9756 14.0866 13.2064 14.0624C15.8169 14.1856 17.3236 15.0152 19.1582 16.805C19.2426 16.9161 19.327 17.0272 19.4139 17.1416C19.9873 17.5589 20.6749 17.5158 21.3659 17.5622C22.8046 17.6947 23.9271 17.9557 25.1452 18.7591C25.3374 18.8789 25.3374 18.8789 25.5334 19.0011C26.6703 19.8179 27.2161 21.0223 27.7395 22.2764C27.7395 22.4054 27.7395 22.5344 27.7395 22.6672C27.8484 22.6413 27.9572 22.6153 28.0693 22.5886C28.2198 22.5541 28.3703 22.5196 28.5253 22.484C28.7441 22.433 28.7441 22.433 28.9673 22.381C30.5889 22.0826 32.2043 22.0378 33.8512 22.0322C34.0857 22.0303 34.3201 22.0283 34.5617 22.0264C36.1642 22.0307 37.6649 22.2106 39.2395 22.484C40.6064 22.7355 40.6064 22.7355 41.8954 22.3695C42.331 21.9299 42.331 21.9299 42.6866 21.4223C43.2194 20.7696 43.7978 20.4462 44.5404 20.0537C44.7696 19.9312 44.9988 19.8088 45.235 19.6827C45.8999 19.3453 45.8999 19.3453 46.5516 19.0949C47.2786 18.6475 47.4045 18.1411 47.6087 17.3668C48.3917 14.7907 49.6947 12.714 52.1613 11.3886C54.7505 10.1511 57.0613 9.98255 59.8695 10.552C60.2684 10.6185 60.6674 10.684 61.0669 10.7474C61.2154 10.5596 61.2154 10.5596 61.367 10.368C65.7521 4.90108 73.2828 2.75078 79.4268 7.03465Z" fill="#010202"/>
<path d="M37.7177 25.403C39.0399 25.3541 39.0399 25.3541 39.7134 25.7938C39.652 25.9638 39.652 25.9638 39.5894 26.1373C39.5088 26.3662 39.5088 26.3662 39.4265 26.5998C39.3733 26.7495 39.32 26.8991 39.2652 27.0532C38.604 29.2469 38.8146 31.4582 39.5138 33.6101C39.5671 33.7768 39.6203 33.9436 39.6752 34.1154C40.6777 36.8813 42.7675 38.928 45.4262 40.1943C46.8992 40.8559 48.3356 41.2312 49.9536 41.2432C50.6011 41.2918 50.8172 41.3535 51.2741 41.8172C51.6318 42.3278 51.9587 42.8507 52.286 43.3804C53.2231 44.6338 54.2621 45.4237 55.6786 46.1161C55.8425 46.1972 56.0063 46.2784 56.1752 46.3619C58.0946 47.1776 60.4376 47.2147 62.4264 46.5924C62.5717 46.5358 62.7171 46.4791 62.8668 46.4207C63.3366 46.2909 63.6038 46.3553 64.0603 46.5069C64.1866 46.9462 64.311 47.3859 64.4345 47.8259C64.5039 48.0708 64.5734 48.3156 64.645 48.5679C65.2131 50.7921 65.3311 52.935 65.3201 55.2148C65.3195 55.4484 65.3195 55.4484 65.319 55.6868C65.3052 59.1883 64.8805 62.3551 63.6612 65.6569C63.5288 66.0177 63.5288 66.0177 63.3938 66.3858C61.8258 70.4219 59.5276 73.8718 56.4768 76.9905C56.3387 77.1358 56.2006 77.2812 56.0582 77.4309C51.3661 82.2254 44.0281 85.7754 37.2079 86.0029C36.6454 86.0035 36.0847 85.9974 35.5225 85.9792C35.5053 85.8445 35.4881 85.7097 35.4703 85.5708C35.1946 83.7655 34.6314 82.3144 33.1332 81.162C31.5742 80.1472 30.2491 79.7321 28.3881 79.6895C27.0126 79.6033 26.169 79.248 25.1452 78.3583C25.0399 78.2717 24.9347 78.185 24.8263 78.0958C24.4486 77.659 24.2984 77.2092 24.0974 76.6729C23.2346 74.5946 21.8947 73.1118 19.8049 72.1369C17.9964 71.3961 15.5604 71.2909 13.7224 71.9939C12.3503 72.6154 11.0375 73.405 10.1778 74.6456C9.3376 74.3515 8.97346 73.7594 8.50644 73.0579C8.34723 72.8284 8.18795 72.5989 8.02858 72.3694C7.7651 71.9848 7.50877 71.5983 7.25682 71.2061C6.98703 70.8081 6.75208 70.4676 6.38606 70.1512C5.99112 70.0713 5.99113 70.0713 5.57533 70.0779C4.78955 69.9558 4.78955 69.9558 4.48006 69.5482C4.22178 69.0394 3.99858 68.5325 3.79172 68.0017C3.67982 67.7463 3.67982 67.7463 3.56565 67.4857C3.39259 67.0247 3.39259 67.0247 3.39259 66.4385C3.5243 66.3256 3.65602 66.2128 3.79172 66.0965C4.24505 65.6786 4.24505 65.6786 4.27816 65.0584C4.20854 64.4449 4.10631 63.9682 3.92892 63.3853C1.63172 55.5018 3.17192 47.3072 7.1469 40.2539C7.22133 40.1216 7.29576 39.9892 7.37244 39.8529C7.73105 39.2382 7.96969 38.8945 8.58128 38.4953C9.14255 38.5014 9.14255 38.5014 9.77867 38.593C9.98858 38.6192 10.1985 38.6453 10.4148 38.6723C10.9761 38.8861 10.9761 38.8861 11.3448 39.3563C11.7141 40.484 11.6617 41.6078 11.6624 42.7835C11.6911 44.2053 11.9376 44.8391 12.9093 45.8963C13.6371 46.243 14.372 46.1874 15.1669 46.1161C15.2852 46.0712 15.4036 46.0263 15.5255 45.9801C16.1818 45.8915 16.5 46.1586 17.0573 46.4947C17.2699 46.6214 17.4826 46.7481 17.7016 46.8787C17.923 47.0139 18.1444 47.1492 18.3724 47.2886C18.6964 47.4824 18.6964 47.4824 19.0269 47.6802C19.6716 48.0672 20.3132 48.459 20.9543 48.8518C21.2626 49.0377 21.2626 49.0377 21.5771 49.2274C21.7705 49.3453 21.964 49.4632 22.1634 49.5846C22.3346 49.6884 22.5058 49.7922 22.6821 49.8991C23.8562 50.7044 24.7519 51.7879 25.1452 53.1508C25.2182 53.8348 25.2171 54.5153 25.22 55.2026C25.3505 59.9136 27.9989 62.729 31.0877 66.0599C32.0332 67.1098 32.7827 68.1622 33.4271 69.4062C33.4923 69.5315 33.5574 69.6568 33.6246 69.7859C34.3462 71.26 34.5759 72.7617 34.6229 74.383C34.6361 74.6988 34.6493 75.0145 34.6627 75.3303C34.6816 75.819 34.6994 76.3077 34.715 76.7965C34.7177 79.368 34.7177 79.368 35.7221 81.6803C36.3571 82.2427 36.9777 82.4449 37.83 82.5474C39.2764 82.3671 40.1221 81.5629 41.1049 80.591C41.2337 80.4654 41.3625 80.3398 41.4953 80.2105C41.7665 79.9453 42.037 79.6793 42.3068 79.4127C42.7167 79.0083 43.1296 78.607 43.5429 78.2061C43.8073 77.9468 44.0714 77.6874 44.3353 77.4279C44.4574 77.3095 44.5794 77.1912 44.7052 77.0693C47.3324 74.4549 47.8555 70.8484 48.5749 67.3821C49.0778 64.9775 49.6831 62.7824 51.8868 61.3579C52.8892 60.7892 53.9212 60.2789 54.9544 59.7664C56.3118 59.0729 57.158 58.5117 57.9362 57.2055C58.239 56.0195 58.2891 54.9337 57.6368 53.8591C56.9439 52.8469 56.0049 52.3054 54.8928 51.8074C52.9839 50.9116 51.2378 49.7542 49.4653 48.6279C48.559 48.0538 47.6471 47.4884 46.7356 46.9222C45.3384 46.0525 43.9437 45.1793 42.5502 44.304C39.7579 42.5359 39.7579 42.5359 36.9195 40.8401C36.7981 40.7648 36.6766 40.6895 36.5515 40.6119C35.3491 40.1576 33.574 40.231 32.3615 40.6409C31.9246 40.8785 31.5293 41.1299 31.1321 41.4264C30.3583 41.9985 29.8319 42.3283 28.8423 42.306C27.8038 42.1041 26.9001 41.5349 25.9924 41.0201C25.6337 40.8169 25.2723 40.619 24.9101 40.4218C21.7495 38.6807 21.7495 38.6807 21.1539 37.3228C20.9913 36.467 21.207 35.9829 21.6652 35.271C22.4143 34.2535 23.1215 33.3582 24.4093 33.0727C25.1461 33.2194 25.5081 33.4141 26.1305 33.8055C26.8855 34.2745 27.4352 34.5849 28.3405 34.5031C29.8738 34.0725 30.9741 32.8311 32.0473 31.7445C32.5904 31.2041 33.1633 30.7132 33.7514 30.221C34.2508 29.7891 34.7139 29.327 35.1756 28.8569C35.5225 28.5295 35.5225 28.5295 36.0214 28.1745C36.6066 27.6741 36.8538 27.2129 37.1814 26.5266C37.2835 26.316 37.3857 26.1054 37.4909 25.8884C37.5658 25.7282 37.6406 25.568 37.7177 25.403Z" fill="#61D9F9"/>
<path d="M77.5184 9.42829C79.9136 11.2369 81.1017 13.3726 81.622 16.2553C81.9191 17.8897 82.2322 19.1819 83.6293 20.2436C85.1128 21.2005 86.5636 21.2925 88.2949 20.9817C89.0526 20.7743 89.0526 20.7743 89.405 20.1024C89.4709 19.917 89.5367 19.7316 89.6046 19.5406C91.0245 19.616 92.2697 19.8124 93.5959 20.3222C93.5753 20.5278 93.5547 20.7333 93.5335 20.9451C93.5265 21.6943 93.5265 21.6943 93.9825 22.1786C94.3165 22.4455 94.6537 22.7093 95.0038 22.9557C97.1363 24.4802 98.6911 26.7367 99.1837 29.311C99.4198 32.1249 98.9839 34.8163 97.16 37.0944C96.9763 37.3041 96.9763 37.3041 96.7889 37.5181C96.6747 37.6559 96.5605 37.7937 96.4428 37.9356C95.3237 39.1649 93.9133 39.7935 92.3985 40.4492C92.2305 40.5222 92.0625 40.5953 91.8895 40.6706C89.3341 41.5565 86.7874 41.0265 84.3964 39.9843C82.9977 39.3766 81.8669 38.9099 80.37 39.4363C79.271 39.9633 78.6003 40.6951 77.8256 41.6048C77.2451 42.2047 76.6124 42.5007 75.8346 42.7941C75.68 42.8636 75.5254 42.9331 75.3661 43.0048C73.7929 43.5402 71.9291 43.2916 70.4464 42.5987C70.0881 42.3923 69.7306 42.1846 69.3737 41.9758C68.2531 41.3596 67.3234 41.2009 66.0559 41.4262C65.372 41.6659 64.8554 42.0561 64.2895 42.4933C62.4039 43.9424 60.6849 44.4253 58.2729 44.1619C56.5909 43.7785 55.2753 42.8687 54.3066 41.4736C54.0748 41.1067 53.8489 40.7362 53.6307 40.3614C53.031 39.4997 52.3014 38.9976 51.2881 38.6905C50.7783 38.6239 50.7783 38.6239 50.2529 38.605C47.7197 38.4086 45.443 37.4029 43.7047 35.564C42.187 33.6181 41.3883 31.1667 41.709 28.7248C42.0654 27.1682 42.6949 25.8686 43.7047 24.6212C43.7955 24.5033 43.8863 24.3854 43.9799 24.264C44.8493 23.277 45.9501 22.8116 47.1266 22.2579C48.7875 21.4702 49.6917 20.8112 50.3262 19.0674C50.4298 18.7486 50.5309 18.4291 50.6286 18.1086C51.2597 16.0773 52.3589 14.7135 54.2481 13.6723C55.9666 12.9071 57.8985 13.1663 59.6285 13.741C60.637 14.0451 61.5614 13.9591 62.5137 13.5158C63.2278 13.0491 63.7292 12.3759 64.2599 11.7243C67.5872 7.65372 72.9478 6.48805 77.5184 9.42829Z" fill="#D3E1F2"/>
<path d="M34.5246 25.2074C34.2627 25.7745 33.982 26.178 33.5315 26.6157C33.4148 26.7296 33.2982 26.8436 33.178 26.961C33.0544 27.0795 32.9308 27.1981 32.8034 27.3202C32.6771 27.4426 32.5507 27.5651 32.4206 27.6912C31.6641 28.4198 30.8958 29.1261 30.0812 29.7926C29.6914 30.1304 29.3506 30.4984 28.9992 30.8742C28.4071 31.4552 28.4071 31.4552 27.8517 31.497C27.3403 31.265 27.3403 31.265 27.0152 31.0726C25.6596 30.3078 24.1998 30.2077 22.684 30.6055C20.7603 31.4377 19.3523 33.3458 18.4846 35.1609C18.1418 36.8054 18.3347 38.1867 19.1581 39.6675C20.7183 41.8372 23.995 42.9994 26.3253 44.2283C26.5063 44.3237 26.6873 44.4192 26.8738 44.5175C27.9985 45.0734 29.0986 45.0959 30.3338 44.9435C31.3264 44.5817 32.2856 44.1332 33.1025 43.4653C33.8662 42.9605 34.6388 43.0317 35.5225 43.1848C36.2647 43.502 36.905 43.9293 37.568 44.3817C37.9564 44.6352 38.3449 44.8886 38.7334 45.1419C39.0278 45.3371 39.0278 45.3371 39.3281 45.5362C40.2311 46.1296 41.151 46.6959 42.0707 47.2639C43.2365 47.989 44.4004 48.7167 45.5623 49.4478C48.4002 51.2331 48.4002 51.2331 51.2631 52.9796C51.4071 53.0662 51.5511 53.1528 51.6994 53.242C52.6762 53.8234 53.672 54.3504 54.7064 54.8283C55.0798 55.1047 55.0798 55.1047 55.2848 55.5764C55.2794 56.0817 55.2794 56.0817 55.0073 56.4748C54.2694 57.0196 53.4733 57.4017 52.6476 57.8037C51.2914 58.4846 50.0074 59.1492 48.8933 60.1852C48.7847 60.286 48.6762 60.3868 48.5643 60.4906C46.7248 62.3924 46.1808 64.8925 45.6504 67.3665C45.5826 67.6721 45.5145 67.9777 45.4461 68.2832C45.3497 68.7144 45.2536 69.1457 45.1599 69.5775C44.4419 72.8838 43.2146 74.6848 40.761 77.0147C40.5075 77.2597 40.2541 77.505 40.001 77.7505C38.156 79.5306 38.156 79.5306 37.9172 79.5306C37.6323 77.9514 37.4882 76.3932 37.3982 74.7936C37.2651 72.5185 37.1251 70.4797 36.1212 68.3923C36.0273 68.1969 35.9334 68.0014 35.8366 67.8C34.9534 66.169 33.7117 64.8432 32.4607 63.4788C30.028 60.8133 28.0825 58.6499 28.0513 54.9337C28.0038 53.3711 27.9392 52.002 27.1407 50.6103C27.0386 50.4312 26.9365 50.2521 26.8313 50.0676C25.8981 48.6413 24.7205 47.8181 23.2496 46.9865C22.6313 46.6344 22.019 46.2728 21.4064 45.9114C20.9192 45.6249 20.4316 45.339 19.9439 45.0534C19.8241 44.9832 19.7043 44.913 19.5809 44.8407C19.2344 44.6383 18.8872 44.4371 18.54 44.2359C18.2359 44.0593 18.2359 44.0593 17.9256 43.8791C17.0653 43.4158 16.3908 43.1315 15.4038 43.1604C15.2461 43.1639 15.0884 43.1674 14.926 43.1711C14.8079 43.1756 14.6898 43.1801 14.5682 43.1848C14.563 42.9699 14.5579 42.7551 14.5526 42.5337C14.4833 40.5459 14.2816 38.8662 13.2086 37.1272C12.4043 36.4071 11.4408 36.1125 10.3773 35.9547C15.1482 30.2451 22.097 26.2736 29.6041 25.26C31.2407 25.1419 32.8849 25.1777 34.5246 25.2074Z" fill="#08A56C"/>
<path d="M37.7177 25.403C39.0398 25.3541 39.0398 25.3541 39.7134 25.7938C39.6725 25.9071 39.6316 26.0205 39.5894 26.1373C39.5357 26.2899 39.4819 26.4426 39.4265 26.5998C39.3732 26.7495 39.32 26.8991 39.2651 27.0532C38.604 29.2469 38.8145 31.4582 39.5138 33.6101C39.5671 33.7768 39.6203 33.9436 39.6752 34.1154C40.6777 36.8813 42.7674 38.928 45.4262 40.1943C46.8992 40.8559 48.3355 41.2312 49.9535 41.2432C50.6011 41.2918 50.8172 41.3535 51.2741 41.8172C51.6318 42.3278 51.9587 42.8507 52.286 43.3804C53.223 44.6338 54.2621 45.4237 55.6786 46.1161C55.8424 46.1972 56.0063 46.2784 56.1751 46.3619C58.0945 47.1776 60.4376 47.2147 62.4263 46.5924C62.5717 46.5358 62.717 46.4791 62.8668 46.4207C63.3366 46.2909 63.6038 46.3553 64.0603 46.5069C64.1865 46.9462 64.3109 47.3859 64.4345 47.8259C64.5387 48.1932 64.5387 48.1932 64.6449 48.5679C65.213 50.7921 65.331 52.935 65.32 55.2148C65.3197 55.3705 65.3193 55.5263 65.3189 55.6868C65.3051 59.1883 64.8805 62.3551 63.6611 65.6569C63.5729 65.8974 63.4847 66.138 63.3938 66.3858C61.8258 70.4219 59.5275 73.8718 56.4768 76.9905C56.3387 77.1358 56.2005 77.2812 56.0582 77.4309C52.9119 80.6459 48.8221 82.9151 44.6027 84.5014C44.4129 84.5738 44.4129 84.5738 44.2193 84.6477C43.3111 84.9753 42.4659 85.1075 41.5095 85.1976C41.9555 84.597 42.4312 84.1007 43.0062 83.6221C49.2951 78.3066 54.2121 70.0832 55.2794 61.9441C55.2934 61.4841 55.3059 61.0241 55.3168 60.5641C55.3772 59.5024 55.3772 59.5024 55.8173 59.0764C56.2398 58.842 56.2398 58.842 56.6748 58.6443C57.3537 58.2757 57.5491 57.7328 57.8738 57.0589C57.9396 56.93 58.0055 56.801 58.0733 56.6681C58.2385 55.4253 58.1049 54.543 57.3912 53.5004C56.6722 52.7042 55.8705 52.2452 54.8928 51.8074C52.9839 50.9116 51.2378 49.7542 49.4653 48.6279C48.559 48.0538 47.647 47.4884 46.7356 46.9222C45.3384 46.0525 43.9437 45.1793 42.5502 44.304C39.7578 42.5359 39.7578 42.5359 36.9195 40.8401C36.798 40.7648 36.6766 40.6895 36.5515 40.6119C35.3491 40.1576 33.5739 40.231 32.3614 40.6409C31.9246 40.8785 31.5293 41.1299 31.1321 41.4264C30.3583 41.9985 29.8318 42.3283 28.8423 42.306C27.8038 42.1041 26.9001 41.5349 25.9924 41.0201C25.6337 40.8169 25.2723 40.619 24.9101 40.4218C21.7495 38.6807 21.7495 38.6807 21.1538 37.3228C20.9912 36.467 21.207 35.9829 21.6652 35.271C22.4143 34.2535 23.1215 33.3582 24.4092 33.0727C25.1461 33.2194 25.5081 33.4141 26.1305 33.8055C26.8855 34.2745 27.4352 34.5849 28.3405 34.5031C29.8738 34.0725 30.9741 32.8311 32.0473 31.7445C32.5904 31.2041 33.1633 30.7132 33.7514 30.221C34.2507 29.7891 34.7139 29.327 35.1756 28.8569C35.5225 28.5295 35.5225 28.5295 36.0214 28.1745C36.6066 27.6741 36.8538 27.2129 37.1814 26.5266C37.2835 26.316 37.3857 26.1054 37.4909 25.8884C37.5657 25.7282 37.6406 25.568 37.7177 25.403Z" fill="#01BFF8"/>
<path d="M19.0458 74.8532C20.5086 75.6908 21.0948 76.6029 21.7025 78.1385C22.4554 79.9405 23.6377 80.9785 25.382 81.8756C26.5149 82.3407 27.6031 82.3472 28.8174 82.3932C30.1724 82.5228 31.2838 83.0511 32.1547 84.0862C32.5335 84.7026 32.7033 85.2481 32.6489 85.9693C32.3463 86.9795 31.5846 87.6644 30.686 88.1981C29.515 88.7171 28.4072 88.7813 27.1367 88.8469C25.8429 88.9848 25.0391 89.7674 24.0949 90.5812C22.4014 91.9637 20.4103 92.3558 18.2491 92.2986C16.3565 92.1158 14.8813 91.2108 13.3208 90.2209C12.4735 89.7059 11.8427 89.6725 10.8636 89.6431C9.08902 89.5231 7.82866 89.0499 6.59793 87.7745C5.66179 86.6179 5.23996 85.4537 5.29374 83.9702C5.53476 82.6126 6.20885 81.2989 7.30888 80.4223C7.9747 79.9914 8.67515 79.7173 9.41678 79.433C10.6496 78.9553 11.1275 78.522 11.7975 77.3981C13.3553 74.816 16.0687 73.5125 19.0458 74.8532Z" fill="#D4E2F2"/>
<path d="M37.7177 25.403C39.0399 25.3541 39.0399 25.3541 39.7134 25.7938C39.6725 25.9071 39.6316 26.0205 39.5894 26.1373C39.5357 26.2899 39.4819 26.4426 39.4265 26.5998C39.3733 26.7495 39.32 26.8991 39.2651 27.0532C38.604 29.2469 38.8146 31.4582 39.5138 33.6101C39.5671 33.7768 39.6203 33.9436 39.6752 34.1154C40.6777 36.8813 42.7674 38.928 45.4262 40.1943C46.8992 40.8559 48.3356 41.2312 49.9536 41.2432C50.6011 41.2918 50.8172 41.3535 51.2741 41.8172C51.5112 42.1556 51.7385 42.5008 51.9562 42.8515C52.2725 43.3588 52.6101 43.7888 53.0094 44.2353C53.1149 44.3537 53.2203 44.4721 53.329 44.5941C53.6902 44.97 53.6902 44.97 54.2029 45.3108C55.7078 46.6161 55.5078 50.1158 55.6786 51.9783C54.4639 51.7109 53.57 51.2035 52.5354 50.5372C52.1961 50.3229 51.8567 50.1087 51.5173 49.8945C51.3457 49.7854 51.174 49.6763 50.9972 49.5638C50.2255 49.0753 49.447 48.5977 48.6689 48.1191C47.1889 47.2051 45.7144 46.283 44.241 45.3589C44.0319 45.2278 43.8228 45.0967 43.6073 44.9617C42.7639 44.4329 41.9205 43.9042 41.0778 43.3744C40.4778 42.9973 39.8774 42.6209 39.2768 42.2446C39.0968 42.1312 38.9168 42.0177 38.7313 41.9009C36.801 40.685 36.801 40.685 34.5621 40.3516C34.3509 40.3527 34.3509 40.3527 34.1354 40.3537C32.9065 40.3919 32.096 40.7068 31.1321 41.4264C30.3583 41.9985 29.8318 42.3283 28.8423 42.306C27.8038 42.1041 26.9001 41.5349 25.9924 41.0201C25.6337 40.8169 25.2723 40.619 24.9101 40.4218C21.7495 38.6807 21.7495 38.6807 21.1538 37.3228C20.9912 36.467 21.207 35.9829 21.6652 35.271C22.4143 34.2535 23.1215 33.3582 24.4093 33.0727C25.1461 33.2194 25.5081 33.4141 26.1305 33.8055C26.8855 34.2745 27.4352 34.5849 28.3405 34.5031C29.8738 34.0725 30.9741 32.8311 32.0473 31.7445C32.5904 31.2041 33.1633 30.7132 33.7514 30.221C34.2508 29.7891 34.7139 29.327 35.1756 28.8569C35.5225 28.5295 35.5225 28.5295 36.0214 28.1745C36.6066 27.6741 36.8538 27.2129 37.1814 26.5266C37.2835 26.316 37.3857 26.1054 37.4909 25.8884C37.5657 25.7282 37.6406 25.568 37.7177 25.403Z" fill="#61D9F8"/>
<path d="M89.6047 19.5408C91.0245 19.6161 92.2697 19.8126 93.596 20.3224C93.5754 20.5279 93.5548 20.7335 93.5336 20.9453C93.5266 21.6944 93.5266 21.6944 93.9826 22.1788C94.3166 22.4457 94.6538 22.7095 95.0038 22.9558C97.1364 24.4804 98.6912 26.7369 99.1838 29.3111C99.4199 32.125 98.9839 34.8165 97.1601 37.0946C97.0376 37.2344 96.9152 37.3742 96.789 37.5182C96.6748 37.656 96.5606 37.7938 96.4429 37.9358C95.3237 39.1651 93.9134 39.7937 92.3986 40.4493C92.2306 40.5224 92.0626 40.5954 91.8895 40.6707C90.8673 41.0251 89.8586 41.0665 88.7815 41.0722C88.5422 41.075 88.303 41.0777 88.0565 41.0806C87.4488 41.0383 87.1194 40.958 86.6112 40.6448C86.7511 40.5561 86.8911 40.4674 87.0353 40.3761C88.7072 38.8813 89.6409 36.5231 89.8458 34.3392C89.8647 33.8918 89.8697 33.4472 89.8666 32.9994C89.8662 32.8403 89.8658 32.6811 89.8654 32.5171C89.8396 30.9685 89.7227 29.1515 89.006 27.7479C88.9607 27.9978 88.9154 28.2476 88.8688 28.5051C88.4115 30.4814 87.2536 32.0239 86.0125 33.6101C86.1594 33.601 86.3063 33.592 86.4576 33.5826C88.038 33.5254 88.038 33.5254 88.8438 33.9276C89.2055 34.3917 89.2055 34.3917 89.3303 34.9657C89.2046 35.5688 89.0583 35.9117 88.6001 36.337C87.6521 36.8304 86.4573 36.6703 85.4138 36.6511C85.1602 36.6533 84.9065 36.6554 84.6452 36.6576C82.7847 36.6432 82.7847 36.6432 82.0498 36.1882C81.6221 35.7596 81.6221 35.7596 81.4771 35.0436C81.5517 33.9391 82.2589 33.196 82.9442 32.3644C83.7054 31.4152 84.4538 30.4671 85.1191 29.4501C85.2193 29.297 85.3195 29.1439 85.4227 28.9863C85.6563 28.4266 85.5869 28.1232 85.4138 27.5525C84.9317 27.5585 84.9317 27.5585 84.416 27.7479C84.0834 28.3178 84.0834 28.3178 83.8173 28.9203C83.2186 29.3111 83.2186 29.3111 82.5201 29.2867C81.8216 29.1157 81.8216 29.1157 81.435 28.7982C81.1333 28.138 81.1346 27.6834 81.2229 26.9662C81.8002 25.8793 82.6012 25.1509 83.6926 24.5603C84.9915 24.2272 85.883 24.3693 87.0384 24.9794C87.4462 25.2302 87.8266 25.5057 88.2077 25.7938C87.3289 24.2585 86.4442 22.744 85.4138 21.2994C85.635 21.2803 85.8563 21.2611 86.0842 21.2414C86.3763 21.2121 86.6684 21.1826 86.9604 21.1529C87.106 21.1408 87.2516 21.1287 87.4017 21.1162C88.0934 21.0424 88.5399 20.9591 89.0964 20.5392C89.4398 20.1248 89.4398 20.1248 89.6047 19.5408Z" fill="#B2CCEA"/>
<path d="M15.1919 17.4645C15.8944 17.8606 16.4133 18.3996 16.9755 18.9666C18.1806 20.1805 19.0225 20.5137 20.7423 20.6032C21.8922 20.6677 22.8482 20.745 23.7483 21.4947C24.7461 22.707 24.7461 22.707 24.7461 23.4488C24.6432 23.4839 24.5403 23.519 24.4342 23.5551C19.0315 25.4217 14.0583 28.0517 9.9783 32.0467C6.27826 32.3106 6.27826 32.3106 5.07103 31.3628C4.09156 30.3426 3.70488 29.3994 3.72318 28.0241C3.87943 26.9497 4.50635 26.211 5.35088 25.5494C5.987 25.2075 5.987 25.2075 6.39002 25.0357C7.2438 24.665 7.815 24.3421 8.25081 23.4832C8.41274 22.9575 8.44034 22.4703 8.46909 21.9222C8.55859 20.3661 9.08566 19.1301 10.2776 18.0751C11.6283 17.0021 13.5902 16.7873 15.1919 17.4645Z" fill="#D3E1F2"/>
<path d="M76.3048 21.2229C77.5772 22.2421 78.3929 23.4602 78.8282 25.012C78.9855 26.7405 79.0209 28.3934 78.0299 29.8971C77.943 30.0329 77.856 30.1687 77.7664 30.3086C76.8208 31.657 75.5825 32.6689 73.9615 33.1267C72.1178 33.4532 70.2754 33.4094 68.6504 32.4374C67.2986 31.4656 66.3294 30.4269 65.6569 28.9201C65.5705 28.7307 65.484 28.5413 65.395 28.3461C64.9508 26.4088 65.3349 24.5844 66.4053 22.9113C67.4281 21.5126 68.792 20.4256 70.5252 20.013C72.682 19.6743 74.4873 20.007 76.3048 21.2229Z" fill="#030304"/>
<path d="M15.9651 74.4502C17.6847 74.289 18.9476 74.6379 20.3056 75.7005C21.0206 76.4188 21.3351 77.2101 21.7026 78.1385C22.4555 79.9405 23.6378 80.9785 25.3821 81.8756C26.515 82.3407 27.6032 82.3472 28.8175 82.3932C30.1725 82.5228 31.2839 83.0511 32.1548 84.0862C32.5336 84.7026 32.7034 85.2481 32.649 85.9693C32.3464 86.9795 31.5847 87.6644 30.6861 88.1981C29.5151 88.7171 28.4073 88.7813 27.1368 88.8469C25.843 88.9848 25.0392 89.7674 24.095 90.5812C22.1584 92.1621 19.9966 92.325 17.5616 92.2322C17.5616 92.1677 17.5616 92.1033 17.5616 92.0368C17.7756 92.0167 17.9897 91.9965 18.2102 91.9758C19.7398 91.5993 21.0817 90.2081 21.9208 88.9408C22.8994 87.0468 23.0753 85.0008 22.5835 82.9328C21.37 79.6433 18.8572 77.2405 16.3642 74.841C16.2325 74.712 16.1008 74.583 15.9651 74.4502Z" fill="#B0CBE8"/>
<path d="M62.4638 20.9086C63.2402 21.5621 63.2402 21.5621 63.3618 22.2764C63.262 22.8627 63.262 22.8627 62.9502 23.3268C62.2703 23.7706 61.8743 23.7365 61.0668 23.6443C60.8023 23.5535 60.5403 23.4554 60.281 23.3512C59.2181 22.9284 58.3356 22.8896 57.2377 23.2901C56.3616 23.8429 55.6729 24.4473 55.2794 25.403C55.0916 26.7579 55.1518 27.8873 55.9919 29.0073C56.7962 29.8636 57.7714 30.1114 58.9215 30.1782C59.906 30.1766 60.3537 29.7855 61.084 29.1844C61.4659 28.9203 61.4659 28.9203 62.2143 28.7982C62.8629 28.9203 62.8629 28.9203 63.3493 29.2378C63.7632 29.8537 63.7946 30.1485 63.6612 30.8744C62.8421 32.1843 61.5232 32.7446 60.069 33.2192C57.7039 33.4008 56.1028 33.0361 54.252 31.5957C52.894 30.381 52.1843 29.0309 52.0232 27.2418C51.9755 25.7332 52.0537 24.5411 52.8847 23.2535C52.9693 23.1175 53.0539 22.9814 53.1411 22.8413C55.2805 19.7371 59.2144 19.0627 62.4638 20.9086Z" fill="#030404"/>
<path d="M77.0321 49.3158C77.881 49.489 78.1146 49.7252 78.6287 50.415C78.7811 51.2148 78.7726 52.0068 78.7698 52.8186C78.7728 53.0515 78.7758 53.2843 78.7789 53.5242C78.7875 54.2668 78.7892 55.0093 78.7908 55.752C78.7954 56.2559 78.8005 56.7598 78.806 57.2638C78.8186 58.4982 78.8255 59.7325 78.8282 60.967C78.9805 60.8722 79.1328 60.7775 79.2897 60.6799C79.9452 60.3142 80.28 60.2594 81.0234 60.3807C81.6865 60.8606 81.9766 61.1478 82.146 61.944C81.888 63.1567 80.6021 63.8428 79.614 64.5209C79.4919 64.6064 79.3699 64.692 79.2441 64.7801C77.7142 65.8408 77.7142 65.8408 76.8201 65.8766C75.6536 65.6731 74.7453 64.7879 73.8391 64.0935C73.5318 63.8732 73.2242 63.6533 72.9161 63.434C72.2676 62.97 72.2676 62.97 72.043 62.5302C71.9352 61.7383 71.9748 61.4482 72.4671 60.796C73.0408 60.3807 73.0408 60.3807 73.6395 60.283C74.2975 60.3904 74.6785 60.6202 75.2361 60.967C75.2363 60.8369 75.2366 60.7069 75.2369 60.5729C75.2408 59.2193 75.2517 57.8659 75.2665 56.5123C75.2711 56.0072 75.274 55.5021 75.2751 54.997C75.2769 54.2707 75.2851 53.5448 75.2945 52.8186C75.2933 52.48 75.2933 52.48 75.2921 52.1345C75.3212 50.5685 75.3212 50.5685 75.9059 49.7838C76.4334 49.4379 76.4334 49.4379 77.0321 49.3158Z" fill="black"/>
<path d="M89.1845 56.7803C89.7945 56.9011 90.0123 57.1792 90.4029 57.6451C90.5065 58.1471 90.5065 58.1471 90.5119 58.7204C90.5158 58.9355 90.5197 59.1506 90.5238 59.3723C90.524 59.6033 90.5243 59.8344 90.5245 60.0724C90.5278 60.3099 90.5311 60.5473 90.5345 60.792C90.5442 61.5505 90.5485 62.309 90.5526 63.0677C90.5582 63.5819 90.5642 64.0961 90.5705 64.6103C90.5853 65.871 90.5956 67.1317 90.6025 68.3925C90.8196 68.2633 91.0367 68.1341 91.2604 68.0009C91.8118 67.6728 91.9728 67.6104 92.648 67.6231C93.5099 67.9108 93.5099 67.9108 93.7955 68.3925C93.9363 69.4607 93.9363 69.4607 93.7955 69.9558C93.0566 70.8054 92.154 71.4326 91.2261 72.0686C91.09 72.1667 90.954 72.2648 90.8138 72.3659C90.1763 72.8028 89.6949 73.0638 88.9265 73.2212C87.8662 73.0163 87.131 72.4828 86.262 71.8732C86.0924 71.7602 85.9229 71.6472 85.7482 71.5308C84.1861 70.4616 84.1861 70.4616 83.8173 69.5649C83.8424 68.9499 83.9084 68.5546 84.2538 68.0383C84.7847 67.6978 85.1793 67.6352 85.8129 67.6109C86.2174 67.7956 86.6174 67.99 87.0103 68.1971C87.0115 68.072 87.0127 67.9468 87.0139 67.8179C87.0266 66.515 87.0435 65.2122 87.0627 63.9094C87.0693 63.4233 87.0749 62.9371 87.0795 62.4509C87.0862 61.7519 87.0966 61.053 87.1078 60.3541C87.109 60.1369 87.1103 59.9196 87.1116 59.6958C87.1156 59.4925 87.1195 59.2891 87.1236 59.0796C87.1258 58.9013 87.128 58.7229 87.1303 58.5392C87.3437 57.1895 87.895 56.849 89.1845 56.7803Z" fill="black"/>
<path d="M87.0454 24.9587C87.9555 25.5808 88.6796 26.5028 88.8875 27.583C88.9845 29.9571 87.4343 31.8151 86.0125 33.6101C86.1594 33.601 86.3063 33.5919 86.4576 33.5826C88.038 33.5254 88.038 33.5254 88.8438 33.9276C89.2055 34.3917 89.2055 34.3917 89.3303 34.9657C89.2046 35.5688 89.0583 35.9116 88.6001 36.337C87.6521 36.8303 86.4573 36.6703 85.4138 36.6511C85.1602 36.6532 84.9065 36.6554 84.6452 36.6576C82.7847 36.6432 82.7847 36.6432 82.0498 36.1882C81.6221 35.7596 81.6221 35.7596 81.4771 35.0436C81.5517 33.9391 82.2589 33.196 82.9442 32.3644C83.7054 31.4151 84.4538 30.4671 85.1191 29.45C85.2193 29.297 85.3195 29.1439 85.4227 28.9862C85.6563 28.4266 85.5869 28.1232 85.4138 27.5525C84.9317 27.5585 84.9317 27.5585 84.416 27.7479C84.0834 28.3178 84.0834 28.3178 83.8173 28.9203C83.2186 29.3111 83.2186 29.3111 82.5201 29.2867C81.8216 29.1157 81.8216 29.1157 81.435 28.7982C81.1333 28.138 81.1346 27.6834 81.2229 26.9662C81.8002 25.8793 82.6012 25.1508 83.6926 24.5603C84.9593 24.2354 85.915 24.3455 87.0454 24.9587Z" fill="#040404"/>
<path d="M73.7018 23.0946C74.6114 23.6953 75.4116 24.4002 75.8346 25.4029C75.9916 26.5934 75.9579 27.714 75.3248 28.7653C74.619 29.6225 73.8018 30.1795 72.6915 30.3942C71.3646 30.4609 70.4525 30.157 69.4485 29.311C68.6104 28.4688 68.3079 27.6618 68.1763 26.5021C68.2988 25.3424 68.7402 24.4358 69.6481 23.6686C70.9547 22.7624 72.1625 22.5543 73.7018 23.0946Z" fill="#D1DFEF"/>
<path d="M70.6459 7.8163C73.3732 7.63113 75.7804 8.11603 77.9885 9.78335C79.8304 11.3634 81.4535 13.5442 81.622 16.0234C81.56 16.285 81.494 16.5458 81.4224 16.805C81.1797 16.5606 81.1797 16.5606 80.9321 16.3112C79.7357 15.1166 78.5316 13.9815 77.1894 12.9419C76.6912 12.5518 76.2088 12.1481 75.7279 11.7378C74.4523 10.6534 73.1135 9.68877 71.7204 8.7534C71.5806 8.65927 71.4408 8.56514 71.2968 8.46816C71.1712 8.38463 71.0456 8.3011 70.9162 8.21503C70.827 8.14793 70.7378 8.08084 70.6459 8.0117C70.6459 7.94722 70.6459 7.88274 70.6459 7.8163Z" fill="#AFC9E6"/>
</g>
<defs>
<clipPath id="clip0_21_431">
<rect width="102.177" height="100.049" fill="white"/>
</clipPath>
</defs>
</svg>
