<svg width="103" height="101" viewBox="0 0 103 101" fill="none" xmlns="http://www.w3.org/2000/svg">
<g clip-path="url(#clip0_21_417)">
<path d="M87.3345 -0.0612459C87.5262 -0.0610196 87.7179 -0.0607933 87.9154 -0.0605602C96.4767 -0.0405926 96.4767 -0.0405926 98.4728 1.56308C98.9693 2.49664 98.9709 3.2686 98.7846 4.29878C98.599 4.78073 98.4065 5.23759 98.1859 5.70327C96.3155 9.65054 95.313 13.8363 94.2895 18.0536C93.5073 21.246 92.592 24.4145 91.1013 27.369C91.0253 27.5222 90.9492 27.6754 90.8709 27.8333C88.2823 32.9626 84.2106 37.2844 78.6267 39.2203C74.6973 40.4821 70.2477 40.4626 66.2555 39.4721C66.0579 39.4721 65.8604 39.4721 65.6568 39.4721C62.7363 45.1096 62.7363 45.1096 62.0646 51.1965C62.493 51.5608 62.493 51.5608 63.0625 51.8438C63.8858 52.3092 64.4602 52.7441 65.0706 53.4559C65.6057 54.0235 65.6057 54.0235 66.3561 54.1459C66.8725 54.0435 67.3516 53.8973 67.852 53.7368C71.2016 53.0476 74.7444 53.5594 77.6875 55.2697C78.4083 55.745 79.0343 56.3301 79.6451 56.9328C80.3199 57.6135 80.3199 57.6135 81.2229 57.8404C81.6465 57.745 81.6465 57.745 82.071 57.5717C82.9269 57.2718 83.7101 57.1157 84.6155 57.0587C84.8138 57.0432 84.8138 57.0432 85.0162 57.0274C87.3342 56.9311 89.6586 57.5906 91.6002 58.8174C91.9182 59.1042 92.2303 59.3972 92.5357 59.6967C93.0858 60.2376 93.0858 60.2376 93.8079 60.3929C94.1012 60.3169 94.3918 60.2306 94.6795 60.1364C96.2316 59.6929 97.8242 59.8251 99.2835 60.4784C100.336 61.0618 100.988 61.6989 101.578 62.7255C101.702 62.923 101.825 63.1205 101.953 63.324C102.459 64.626 102.399 66.2752 102.009 67.5939C101.115 69.5046 99.3765 70.7533 97.6745 71.9463C97.5126 72.0616 97.3506 72.1768 97.1838 72.2955C96.8678 72.5201 96.5511 72.7437 96.2337 72.9663C95.9492 73.1664 95.6658 73.368 95.3839 73.5716C94.6398 74.1058 94.1365 74.4304 93.1968 74.45C93.0074 74.3653 92.8181 74.2807 92.623 74.1935C92.0222 74.0034 92.0222 74.0034 91.5691 74.2317C91.0946 74.531 90.751 74.7954 90.4029 75.2316C90.3307 75.7068 90.3574 76.0795 90.4442 76.5514C90.3648 77.3941 89.5565 77.8379 88.9396 78.365C87.6236 79.4182 86.2753 80.4211 84.9125 81.4152C83.931 82.1318 82.9571 82.8581 81.9837 83.5853C81.8073 83.717 81.6309 83.8488 81.4491 83.9845C80.7307 84.521 80.0125 85.0578 79.2945 85.5948C77.4029 87.0091 75.5086 88.4191 73.602 89.8139C72.1524 90.8746 70.7186 91.9534 69.2927 93.0444C68.3153 93.7918 67.3303 94.5276 66.3335 95.2502C65.7671 95.6638 65.2115 96.09 64.6559 96.5173C64.4739 96.656 64.292 96.7947 64.1046 96.9376C63.7441 97.2126 63.3848 97.4893 63.0271 97.7679C60.4271 99.7423 57.9318 100.375 54.6807 100.048C53.2566 99.7827 51.8941 99.2906 50.5273 98.827C50.1229 98.6947 49.7184 98.563 49.3136 98.4318C48.439 98.1478 47.5654 97.8611 46.6923 97.5728C44.6232 96.8921 42.5436 96.2428 40.4652 95.5899C39.0312 95.1394 37.598 94.6866 36.1649 94.2334C36.0338 94.192 35.9027 94.1506 35.7677 94.1079C33.9591 93.5362 32.1513 92.9623 30.344 92.3867C29.3502 92.0702 28.3562 91.7545 27.3621 91.4389C26.5544 91.1823 25.7469 90.9249 24.9397 90.6667C24.3201 90.4688 23.7001 90.2724 23.0801 90.0757C22.7532 89.9706 22.7532 89.9706 22.4196 89.8634C19.9903 89.0959 17.7515 88.6289 15.1913 88.6345C14.7462 88.6354 14.3013 88.6326 13.8563 88.6289C12.7529 88.6206 11.6496 88.6184 10.5462 88.616C9.60835 88.6137 8.67058 88.6091 7.73277 88.6014C7.29756 88.5988 6.86245 88.5995 6.42724 88.6005C4.4977 88.5932 2.75826 88.4784 1.30855 87.1145C-0.265869 85.3216 -0.144338 83.3556 -0.125527 81.1228C-0.125692 80.7657 -0.126187 80.4087 -0.126988 80.0516C-0.127556 79.3062 -0.124644 78.561 -0.119144 77.8156C-0.112333 76.8633 -0.113549 75.9112 -0.117281 74.9589C-0.119396 74.2226 -0.117599 73.4864 -0.114607 72.7501C-0.113578 72.3991 -0.113666 72.048 -0.114918 71.697C-0.116013 71.2056 -0.111917 70.7144 -0.106477 70.2231C-0.107779 70.0801 -0.109081 69.9371 -0.110423 69.7898C-0.0857561 68.4708 0.396421 67.4801 1.27221 66.4871C3.13404 64.9245 4.75605 64.8191 7.13094 64.8214C7.5584 64.8216 7.98576 64.819 8.41321 64.8157C9.62745 64.8068 10.8417 64.8019 12.056 64.8006C12.8019 64.7996 13.5477 64.7948 14.2936 64.7878C14.5753 64.7859 14.857 64.7855 15.1387 64.7865C17.4795 64.7948 19.2158 64.3404 21.2669 63.2492C21.4937 63.1294 21.7204 63.0095 21.9541 62.8861C22.1904 62.7593 22.4267 62.6325 22.6631 62.5057C22.9105 62.3746 23.158 62.2436 23.4056 62.1128C24.4839 61.5414 25.5576 60.9629 26.6224 60.3677C26.9282 60.1969 27.2341 60.0262 27.5399 59.8555C27.6818 59.776 27.8236 59.6966 27.9698 59.6147C28.7865 59.1681 29.5667 58.8513 30.471 58.5976C31.4921 58.3045 31.9245 57.9029 32.5641 57.0885C34.2853 55.1001 37.1247 53.9138 39.7134 53.5414C41.6644 53.3865 43.4923 53.481 45.3807 54.0185C45.9378 54.1356 46.1802 54.155 46.6982 53.9322C47.1451 53.5719 47.1451 53.5719 47.5962 53.1262C48.6592 52.1552 49.811 51.4742 51.0886 50.8057C49.4473 46.7949 47.5309 42.7126 44.3034 39.6675C44.1434 39.7431 43.9834 39.8186 43.8185 39.8965C39.5112 41.8283 34.1072 42.5805 29.5418 41.0712C29.3422 40.9949 29.1426 40.9186 28.9369 40.8399C28.6313 40.7406 28.6313 40.7406 28.3195 40.6392C23.6541 38.985 20.3926 34.5295 18.3599 30.2879C17.3892 28.1187 16.6705 25.9058 16.0847 23.611C15.9612 23.1278 15.8346 22.6455 15.7072 22.1633C15.537 21.5189 15.3675 20.8744 15.199 20.2297C14.4228 17.2635 13.653 14.3783 12.3242 11.5949C11.8194 10.4908 11.6058 9.58735 11.9739 8.40233C12.7257 7.44117 13.4796 7.11837 14.6767 6.9134C14.9484 6.87998 15.2205 6.84871 15.4928 6.81923C15.6408 6.80288 15.7889 6.78652 15.9414 6.76968C17.6689 6.59328 19.3933 6.56641 21.1289 6.57039C21.3815 6.57045 21.3815 6.57045 21.6391 6.57051C28.575 6.58738 35.1931 8.10981 41.3099 11.3334C41.6263 11.4955 41.6263 11.4955 41.9491 11.6609C46.162 13.9232 49.1814 17.5858 50.5453 22.096C51.1797 24.3763 51.4708 26.5803 51.0653 28.9228C50.8033 30.3057 50.8033 30.3057 51.1774 31.6161C51.6092 32.0819 51.6092 32.0819 52.1137 32.5054C52.8426 33.1665 53.39 33.9103 53.9698 34.6968C54.1725 34.9704 54.3759 35.2434 54.5802 35.5159C54.667 35.6334 54.7538 35.7509 54.8432 35.872C55.0724 36.1791 55.0724 36.1791 55.479 36.3456C55.4957 36.2113 55.5124 36.0771 55.5297 35.9387C55.6824 35.3538 55.9344 34.9218 56.2541 34.4096C56.6083 33.8236 56.8594 33.2842 57.0755 32.6328C56.917 32.0476 56.6528 31.7219 56.2726 31.2467C55.7526 30.498 55.4973 29.729 55.2171 28.8712C55.1665 28.7209 55.1159 28.5706 55.0637 28.4157C53.4479 23.4777 54.6417 18.0905 57.0007 13.5928C57.8428 12.0497 58.9036 10.7004 60.069 9.37937C60.2619 9.16022 60.2619 9.16022 60.4588 8.93665C67.0698 2.01298 78.1025 -0.0950814 87.3345 -0.0612459Z" fill="#272726"/>
<path d="M37.3186 62.1394C37.5997 62.1827 37.8809 62.2257 38.1621 62.2684C38.9644 62.3905 39.7662 62.5153 40.568 62.6408C41.1431 62.7308 41.7184 62.8202 42.2937 62.9096C44.4078 63.2388 46.5204 63.5748 48.6314 63.9225C50.0708 64.1593 51.51 64.3837 52.956 64.5783C53.7414 64.6879 54.5249 64.8072 55.3083 64.9293C55.4699 64.9544 55.6315 64.9795 55.798 65.0053C56.3569 65.0921 56.9158 65.179 57.4746 65.2659C59.1132 65.5207 60.7518 65.7752 62.3905 66.0293C62.8877 66.1065 63.3848 66.1838 63.882 66.2612C64.6164 66.3755 65.351 66.4894 66.0856 66.6032C66.3219 66.64 66.5582 66.6768 66.8017 66.7147C67.8992 66.8842 68.9966 67.0469 70.0981 67.1895C70.3859 67.2271 70.3859 67.2271 70.6795 67.2655C71.0315 67.3108 71.3837 67.3543 71.7362 67.3956C73.2147 67.5856 74.2459 68.0385 75.2359 69.1741C75.3981 69.5405 75.3981 69.5405 75.4355 69.9557C75.4561 70.1693 75.4766 70.3829 75.4978 70.603C75.4251 71.4435 75.228 72.0665 74.6372 72.6914C73.7209 73.2277 73.0457 73.3508 71.9843 73.3503C71.7711 73.3514 71.7711 73.3514 71.5536 73.3525C71.0798 73.3543 70.606 73.352 70.1322 73.3497C69.7915 73.3502 69.4508 73.3509 69.1102 73.3519C68.3777 73.3536 67.6454 73.3534 66.9129 73.3519C65.7549 73.3496 64.5968 73.352 63.4388 73.3551C60.5629 73.3622 57.687 73.3634 54.8111 73.3629C52.575 73.3626 50.3389 73.364 48.1027 73.3708C46.9514 73.374 45.8002 73.3737 44.6488 73.3706C43.933 73.3695 43.2171 73.3716 42.5012 73.3746C42.1692 73.3753 41.8372 73.3747 41.5052 73.3726C41.0519 73.37 40.599 73.3722 40.1458 73.3756C39.8922 73.3755 39.6386 73.3755 39.3773 73.3754C38.5945 73.4909 38.2616 73.6986 37.7177 74.2547C37.5514 74.9302 37.5514 74.9302 37.7177 75.6225C38.1145 76.1589 38.4224 76.5452 39.1113 76.673C39.5965 76.6861 40.0722 76.6684 40.5568 76.6415C40.9253 76.632 41.2938 76.6233 41.6623 76.6153C41.8536 76.6102 42.0448 76.6051 42.2419 76.5998C47.7904 76.4829 47.7904 76.4829 49.9215 78.3741C50.1849 78.6265 50.4438 78.8836 50.6977 79.1452C51.3803 79.8184 52.1621 80.3656 52.9345 80.9351C53.2299 81.1603 53.5248 81.386 53.8193 81.6122C54.6522 82.247 55.4919 82.8719 56.3396 83.4877C56.4602 83.5764 56.5808 83.6651 56.705 83.7565C57.8441 84.5768 58.8047 84.9625 60.2194 84.9257C61.648 84.6631 62.8548 83.807 64.0603 83.048C64.2366 82.937 64.4128 82.826 64.5945 82.7117C65.573 82.0924 66.5472 81.467 67.5199 80.839C68.4834 80.2194 69.4588 79.624 70.4464 79.0421C71.8308 78.2254 73.1866 77.3708 74.5374 76.5018C76.0344 75.5392 77.5413 74.6003 79.0738 73.6931C80.8179 72.6586 82.5329 71.5798 84.2507 70.5042C95.902 63.2131 95.902 63.2131 97.188 63.3119C98.0118 63.6682 98.4273 64.0649 98.7846 64.8751C98.9134 65.5436 98.9287 65.9902 98.5835 66.5956C97.2601 68.2307 95.2711 69.3995 93.5507 70.6007C92.5062 71.3384 92.5062 71.3384 91.9619 72.4471C91.9923 72.9618 92.0626 73.3724 92.1989 73.8638C91.9242 74.1042 91.6447 74.3393 91.3633 74.5722C91.2081 74.7037 91.053 74.8352 90.8932 74.9706C90.7314 75.0568 90.5696 75.1429 90.4028 75.2317C89.9312 75.0775 89.9312 75.0775 89.405 74.8409C88.2575 74.715 87.6314 74.9692 86.7483 75.6469C86.6298 75.7338 86.5112 75.8206 86.389 75.9101C85.9943 76.2013 85.604 76.4975 85.2142 76.795C85.0774 76.8985 84.9406 77.0021 84.7997 77.1088C84.212 77.5539 83.6252 78.0002 83.0404 78.4489C81.8927 79.3292 80.7319 80.1908 79.564 81.0451C78.2819 81.983 77.0061 82.9273 75.7395 83.8853C73.4256 85.634 71.0958 87.3627 68.755 89.0767C67.9716 89.651 67.1927 90.2304 66.4176 90.8154C66.1086 91.0485 66.1086 91.0485 65.7932 91.2864C65.3863 91.5934 64.9797 91.9007 64.5733 92.2084C64.0288 92.6202 63.4833 93.0308 62.9377 93.4412C62.7664 93.5712 62.595 93.7013 62.4184 93.8353C58.1863 97.012 58.1863 97.012 55.479 96.7265C54.9373 96.5769 54.43 96.3864 53.9082 96.18C53.0425 95.854 52.158 95.6104 51.2666 95.3615C48.1808 94.4941 45.1355 93.495 42.0858 92.5144C37.0617 90.899 37.0617 90.899 32.0277 89.3135C30.8553 88.9467 29.6875 88.5687 28.5222 88.1812C28.2359 88.0864 27.9496 87.9916 27.6634 87.8969C27.1285 87.7197 26.5945 87.5405 26.0608 87.36C25.3872 87.1339 24.7096 86.9221 24.0297 86.7149C23.6907 86.6095 23.353 86.5003 23.0161 86.3883C19.1749 85.1231 15.5758 85.0177 11.5744 85.0585C10.3119 85.0708 9.0495 85.0744 7.78696 85.0722C7.3504 85.073 6.91413 85.0789 6.47762 85.0853C6.08331 85.0862 6.08331 85.0862 5.68104 85.087C5.33492 85.0906 5.33492 85.0906 4.98181 85.0943C4.26194 84.982 4.03774 84.7724 3.59213 84.2204C3.29681 83.6421 3.36062 83.1188 3.35408 82.4734C3.35245 82.3338 3.35081 82.1943 3.34913 82.0506C3.34417 81.5879 3.34088 81.1253 3.338 80.6626C3.33694 80.5047 3.33588 80.3467 3.33478 80.184C3.32945 79.3479 3.32558 78.5119 3.3227 77.6758C3.31938 76.8123 3.31044 75.949 3.30028 75.0856C3.29356 74.4216 3.29126 73.7576 3.29013 73.0935C3.28879 72.7753 3.28575 72.457 3.28097 72.1388C3.27466 71.6929 3.27464 71.2475 3.27612 70.8016C3.27451 70.5481 3.2729 70.2945 3.27123 70.0333C3.42695 69.1814 3.68027 68.8981 4.39039 68.3924C4.98941 68.2702 4.98941 68.2702 5.66276 68.2698C5.91595 68.2672 6.16914 68.2646 6.43 68.262C6.70508 68.2639 6.98016 68.266 7.25524 68.268C7.53987 68.2664 7.82449 68.2644 8.10911 68.2619C8.85803 68.2563 9.60684 68.2562 10.3558 68.2575C11.5507 68.259 12.7455 68.2528 13.9404 68.2453C14.3549 68.2436 14.7693 68.2446 15.1839 68.246C18.916 68.2354 21.6915 66.905 24.9082 65.2049C25.1795 65.0624 25.4509 64.92 25.7224 64.7778C26.6696 64.281 27.6162 63.7832 28.5619 63.2837C28.9743 63.066 29.3871 62.8488 29.7998 62.6317C29.9878 62.5322 29.9878 62.5322 30.1795 62.4306C32.4162 61.2563 34.9022 61.7467 37.3186 62.1394Z" fill="#F3BB94"/>
<path d="M85.3078 3.28914C85.4671 3.28849 85.6263 3.28784 85.7904 3.28717C86.1265 3.28619 86.4626 3.28572 86.7987 3.28575C87.3028 3.28533 87.8067 3.28179 88.3107 3.27807C92.8162 3.26286 92.8162 3.26286 94.7934 3.90818C94.6668 4.61232 94.4744 5.25032 94.2165 5.91874C94.1412 6.11692 94.0659 6.31509 93.9883 6.51928C93.8682 6.83487 93.8682 6.83487 93.7457 7.15683C92.8495 9.5558 92.1594 11.9523 91.5747 14.4388C90.2122 20.2182 88.6396 26.2607 84.6156 30.8744C84.4829 31.0326 84.3501 31.1908 84.2134 31.3537C81.5926 34.3629 78.0298 36.1766 74.0387 36.7366C73.3982 36.7686 72.7591 36.7738 72.1179 36.7732C71.9403 36.7732 71.7627 36.7732 71.5797 36.7732C68.6748 36.7486 68.6748 36.7486 67.453 36.1504C69.1878 31.1968 75.6689 27.0552 80.1714 24.6038C81.839 23.672 82.6149 22.8776 83.2187 21.104C83.3962 19.4721 83.234 18.1453 82.2208 16.8051C81.1423 15.7788 79.9809 15.192 78.4665 15.1197C76.6806 15.1512 75.3417 15.9401 73.8391 16.8051C73.7076 16.8793 73.5761 16.9535 73.4406 17.03C70.22 18.8618 67.3302 21.1111 64.6591 23.6443C64.4955 23.7967 64.3319 23.9491 64.1633 24.1061C62.5552 25.6345 61.1821 27.3228 59.9514 29.1546C59.8585 29.2708 59.7657 29.3869 59.67 29.5065C59.5383 29.5065 59.4066 29.5065 59.2709 29.5065C57.5175 26.2124 57.4704 22.4739 58.4726 18.9545C59.3611 16.2539 60.759 13.8626 62.6635 11.7245C62.7669 11.6068 62.8703 11.4892 62.9769 11.368C65.7877 8.40135 69.8239 6.62308 73.6395 5.27604C73.7802 5.22638 73.9208 5.17673 74.0657 5.12557C76.7067 4.22124 79.4598 3.89005 82.2208 3.51737C82.4402 3.48259 82.6596 3.44782 82.8857 3.41199C83.6992 3.31196 84.4892 3.29033 85.3078 3.28914Z" fill="#86D155"/>
<path d="M28.5377 10.5519C28.6722 10.5791 28.8068 10.6063 28.9454 10.6344C29.8857 10.8297 30.8085 11.069 31.7307 11.3335C31.8862 11.3778 32.0416 11.422 32.2018 11.4676C34.3323 12.0871 36.3589 12.8532 38.3663 13.7884C38.6476 13.9193 38.6476 13.9193 38.9346 14.0529C42.9776 15.9924 45.6611 18.7723 47.1479 22.9855C47.6868 24.7486 47.791 26.3161 47.6959 28.1386C46.9351 27.8236 46.3734 27.3247 45.7626 26.7951C43.3445 24.7505 40.6858 23.0464 37.9172 21.4947C37.7063 21.3753 37.4954 21.2559 37.278 21.1329C35.9132 20.379 34.7302 19.9269 33.1277 20.1269C31.7359 20.5373 30.4809 21.2707 29.6712 22.4718C29.0048 23.7494 28.868 25.0939 29.2822 26.4753C29.9884 28.1548 30.9632 29.0221 32.5789 29.824C35.4886 31.3404 38.0382 33.2482 40.5116 35.3686C40.7983 35.6009 41.0851 35.833 41.3722 36.0648C41.5492 36.222 41.7262 36.3791 41.9085 36.5411C41.9085 36.6701 41.9085 36.799 41.9085 36.9319C41.4474 37.0878 40.9859 37.2422 40.5241 37.396C40.3963 37.4393 40.2686 37.4826 40.137 37.5273C38.4469 38.0872 36.8738 38.372 35.0859 38.3608C34.9029 38.3599 34.7199 38.3589 34.5314 38.3579C30.7596 38.2947 28.1088 37.0448 25.4172 34.4756C21.3371 30.2786 19.8642 24.6379 18.5444 19.1619C17.9044 16.5102 17.2044 13.8835 16.1265 11.3641C15.9651 10.9427 15.9651 10.9427 15.9651 10.3565C19.0517 8.84539 25.2521 9.86717 28.5377 10.5519Z" fill="#74B54B"/>
<path d="M62.0646 55.3002C62.9581 56.0601 63.6902 56.818 64.2598 57.8405C65.0696 58.237 65.9418 58.1371 66.7762 57.868C67.1171 57.7317 67.4562 57.5908 67.7927 57.4444C69.6984 56.6542 72.3546 56.7874 74.263 57.4619C76.0978 58.2736 77.3585 59.4699 78.6285 60.967C79.2614 61.7408 79.2614 61.7408 80.1782 62.0044C80.9275 61.9344 81.3979 61.7185 82.0585 61.3701C83.7934 60.4662 85.5077 60.2996 87.4397 60.7098C88.6572 61.1127 89.6307 61.7124 90.6023 62.5303C89.8806 63.3293 89.0135 63.8328 88.0953 64.3867C87.7528 64.5958 87.4103 64.8049 87.0679 65.0141C86.8927 65.1206 86.7176 65.2271 86.5372 65.3368C85.715 65.8381 84.8973 66.3462 84.0791 66.8537C82.3989 67.8935 80.7143 68.9261 79.0276 69.9558C78.6731 69.4352 78.5433 69.134 78.379 68.5513C77.879 67.0532 77.0238 66.0597 75.6404 65.2675C74.6662 64.7933 73.7295 64.5691 72.6571 64.4126C72.502 64.389 72.3469 64.3654 72.1872 64.341C71.6902 64.2656 71.193 64.1917 70.6958 64.118C70.3772 64.07 70.0586 64.0219 69.74 63.9737C69.2458 63.8989 68.7515 63.8243 68.2571 63.75C66.9439 63.5526 65.6322 63.3472 64.3206 63.1402C62.3638 62.8319 60.4053 62.5348 58.4459 62.2425C58.1663 62.2008 57.8868 62.159 57.6072 62.1172C56.4674 61.947 55.3276 61.7768 54.1876 61.6078C53.4765 61.5023 52.7656 61.3962 52.0547 61.2896C51.6641 61.2312 51.2734 61.1736 50.8827 61.1159C49.3623 60.8876 47.8573 60.6179 46.3515 60.313C45.4854 60.1433 44.6173 60.0178 43.742 59.9045C42.0431 59.6759 40.3478 59.4286 38.6531 59.1717C38.422 59.1367 38.1909 59.1017 37.9528 59.0657C37.4088 58.9832 36.8647 58.9005 36.3207 58.8176C36.3207 58.6886 36.3207 58.5596 36.3207 58.4267C36.6983 58.2339 37.0768 58.0429 37.4557 57.8527C37.6664 57.7462 37.8771 57.6396 38.0942 57.5299C39.8967 56.7304 42.5647 56.7218 44.4428 57.2772C44.8329 57.4503 45.2204 57.629 45.6044 57.8146C46.3769 58.16 46.8594 58.1796 47.6959 58.0359C48.2197 57.6356 48.5853 57.1898 49.0017 56.6872C52.3648 52.7611 57.8557 52.2269 62.0646 55.3002Z" fill="#6A4329"/>
<path d="M79.2771 18.527C79.6264 18.759 79.6264 18.759 80.0255 19.3452C80.1168 20.0303 80.106 20.3906 79.7308 20.9825C79.0634 21.6614 78.3228 22.0402 77.481 22.484C74.9969 23.8435 72.7595 25.4541 70.6779 27.3562C70.275 27.7222 69.8593 28.0642 69.4361 28.4073C68.4458 29.2544 67.6624 30.2544 66.8542 31.2651C66.6981 31.4517 66.5419 31.6384 66.381 31.8307C62.0289 37.1422 59.4517 43.5077 58.4725 50.2196C56.7932 50.1229 56.7932 50.1229 55.0799 50.0242C55.0198 48.5011 55.2236 47.1874 55.6037 45.713C55.6581 45.4984 55.7124 45.2838 55.7683 45.0626C56.2296 43.2844 56.775 41.5645 57.4747 39.863C57.5296 39.7271 57.5844 39.5912 57.641 39.4512C59.1101 35.8652 61.1237 32.4679 63.6612 29.5064C63.7545 29.3958 63.8478 29.2851 63.944 29.1711C65.9107 26.8417 67.9971 24.7164 70.4464 22.8626C70.5522 22.7811 70.658 22.6995 70.767 22.6156C72.3209 21.4238 73.9425 20.3804 75.6475 19.4063C75.8257 19.3028 76.0038 19.1994 76.1873 19.0927C77.2516 18.4993 78.0559 18.0952 79.2771 18.527Z" fill="#73B44B"/>
<path d="M34.9238 23.4489C35.4991 23.6671 36.0011 23.9676 36.5203 24.2916C36.6658 24.3791 36.8113 24.4667 36.9612 24.5568C39.9129 26.3524 42.6391 28.3348 45.2076 30.6309C45.5373 30.9246 45.87 31.2152 46.2054 31.5026C48.4263 33.4121 50.2658 35.6393 52.0863 37.9091C52.1781 38.0207 52.2699 38.1323 52.3645 38.2472C53.6524 39.8291 53.6524 39.8291 53.7179 40.7432C53.6253 41.262 53.4712 41.7143 53.2837 42.208C53.1415 42.6719 53.0001 43.136 52.8597 43.6003C52.7359 43.9833 52.6115 44.3661 52.4855 44.7483C52.0672 44.3614 51.7501 43.9864 51.4549 43.5034C51.3367 43.3127 51.3367 43.3127 51.216 43.1181C51.1328 42.983 51.0496 42.848 50.9638 42.7088C50.0829 41.3072 49.1432 39.9792 48.0951 38.6907C47.941 38.4998 47.7869 38.3088 47.6281 38.1121C45.0471 34.9863 42.0772 32.2021 38.7155 29.8974C38.5859 29.8081 38.4563 29.7188 38.3227 29.6268C36.7647 28.5622 35.1665 27.6091 33.4925 26.7296C32.9441 26.3899 32.6534 26.1427 32.3294 25.5984C32.1926 24.8115 32.2597 24.5242 32.7286 23.8642C33.4733 23.3477 34.0467 23.3149 34.9238 23.4489Z" fill="#5E8A42"/>
<path d="M53.0842 76.795C57.8918 76.795 62.6993 76.795 67.6525 76.795C67.0541 77.3809 66.6452 77.7395 65.9507 78.1537C65.7773 78.258 65.6039 78.3622 65.4253 78.4696C65.2424 78.578 65.0595 78.6863 64.871 78.798C64.4929 79.0233 64.1148 79.2488 63.7368 79.4743C63.5532 79.5835 63.3695 79.6928 63.1803 79.8053C62.7306 80.0764 62.2869 80.3537 61.8456 80.6375C61.7287 80.7118 61.6117 80.786 61.4913 80.8625C61.1886 81.0556 60.8875 81.251 60.5866 81.4467C59.95 81.7339 59.7344 81.678 59.0712 81.4848C58.6017 81.1973 58.6017 81.1973 58.1201 80.8299C57.9424 80.6956 57.7646 80.5614 57.5815 80.4231C57.3063 80.2111 57.3063 80.2111 57.0256 79.9948C56.8453 79.8581 56.665 79.7213 56.4792 79.5804C56.1205 79.308 55.7625 79.0347 55.4054 78.7604C55.0536 78.491 54.7005 78.2235 54.3459 77.9578C54.1817 77.8345 54.0174 77.7113 53.8482 77.5843C53.7009 77.4744 53.5535 77.3645 53.4017 77.2512C53.2969 77.1652 53.1922 77.0791 53.0842 76.9905C53.0842 76.926 53.0842 76.8615 53.0842 76.795Z" fill="#6A4329"/>
</g>
<defs>
<clipPath id="clip0_21_417">
<rect width="102.177" height="100.049" fill="white"/>
</clipPath>
</defs>
</svg>
