<svg width="59" height="55" viewBox="0 0 59 55" fill="none" xmlns="http://www.w3.org/2000/svg">
<g clip-path="url(#clip0_21_323)">
<path d="M28.6101 25.6026L28.2473 25.6002C25.8358 25.5772 23.5625 26.5537 22.0707 28.3519C21.7958 28.7781 21.7838 29.0089 21.8854 29.494C22.1431 29.7813 22.1431 29.7813 22.0858 30.0329L22.0137 30.2621L21.8854 30.6695C20.9469 30.6755 20.0084 30.6827 19.0698 30.6918L18.952 30.693C18.5114 30.6974 18.0708 30.7019 17.6301 30.7048C17.1614 30.7076 16.6928 30.7108 16.2241 30.7159C16.0445 30.7179 15.8648 30.7199 15.6852 30.7217L15.1683 30.7237C12.3626 30.7496 10.8174 31.9723 8.91958 33.7775C8.64611 34.0381 8.3712 34.2974 8.09571 34.5562C7.63225 34.9915 7.16975 35.4276 6.70859 35.8651C6.05679 36.4836 5.40343 37.1006 4.74889 37.7165C4.23339 38.2016 3.71843 38.6873 3.20371 39.1731L3.03888 39.3287C2.72125 39.6285 2.40382 39.9284 2.08683 40.2287L1.7944 40.5061C1.61875 40.672 1.44334 40.8381 1.26823 41.0045C1.11187 41.1576 0.955107 41.3103 0.797879 41.4626L0.562091 41.6685C0.0359696 42.1573 -0.0921131 42.519 -0.0993042 43.2105C-1.10269e-05 44.6827 9.11893 54.7136 12.7665 54.7136C14.4438 54.7136 16.4141 51.066 18.1548 50.3341C18.2905 50.0783 18.2905 50.0783 18.4658 49.9048L18.676 49.9194L18.9218 50.0116L19.201 50.0984L19.5175 50.203L19.8796 50.3223L20.2714 50.452L20.4788 50.5204C20.7602 50.6133 21.0417 50.7061 21.3231 50.7991C21.7704 50.9469 22.2179 51.0945 22.6654 51.2417C23.7827 51.6093 24.9005 51.9756 26.0161 52.3476C27.3277 52.7853 28.6443 53.2696 30.0079 53.5458C34.5602 54.3034 37.8796 52.5177 41.5254 50.2688C42.1155 49.9047 42.7065 49.542 43.2982 49.1804L43.9448 48.7854L44.2674 48.5882L45.8932 47.5943L46.2216 47.3935L47.8657 46.3882L48.1999 46.1838L48.8647 45.7772L49.0056 45.6909C49.4907 45.3938 49.9757 45.0967 50.463 44.8028C53.9896 42.6822 57.3666 40.2887 58.3198 36.2256C58.4398 35.6086 58.5711 34.9145 58.1809 34.3734C57.9053 34.196 57.9053 34.196 57.5116 34.1542L57.0788 34.1692L56.6425 34.1809L56.3094 34.196C56.4234 33.9088 56.4234 33.9088 56.4849 33.7051C56.6085 33.1001 56.7325 32.3435 56.3655 31.8078C56.0402 31.6056 55.7798 31.5722 55.3931 31.5557L55.1411 31.5511C54.9743 31.5449 54.8074 31.5387 54.6406 31.5327L54.2577 31.5244C54.4343 31.0313 54.6006 30.5378 54.7136 30.0283C54.7785 29.477 54.8971 28.8864 54.5445 28.4111C54.1898 28.1645 53.9721 28.1568 53.5401 28.1468L53.2558 28.1474C53.0547 28.1455 52.8536 28.144 52.6525 28.1428C52.3372 28.1442 52.0224 28.1449 51.7072 28.1398C50.6766 28.1219 49.7103 28.0469 48.8485 28.648C48.5437 28.8632 48.2307 29.0377 47.8999 29.2149C47.7381 29.3013 47.5768 29.3884 47.416 29.4763C47.17 29.6115 46.9239 29.7466 46.6776 29.8814C46.427 30.0169 46.1766 30.1526 45.927 30.2897L45.6909 30.4199C45.255 30.6534 44.8311 30.8296 44.6828 31.3107C44.7297 31.6273 44.7297 31.6273 44.6828 31.9518C44.3759 32.2145 44.3759 32.2145 44.1267 32.3503L43.892 32.4728C43.2212 32.838 42.7358 33.0303 41.9471 32.9136V32.4861C42.403 32.4861 42.403 32.4861 42.6595 32.3259C42.9249 31.9704 42.9249 31.9704 42.859 31.2038C42.1167 29.8121 40.9046 28.6034 39.4127 27.914L39.0974 27.7842C38.0782 27.3632 37.1242 27.2464 36.0198 27.3567C35.6778 27.5705 35.6778 27.5705 35.5995 27.9044L35.5638 28.2116L35.2726 28.1995L34.8942 28.1783C34.525 28.1673 34.525 28.1673 34.196 28.1048C33.5959 27.2609 32.5575 26.6208 31.5841 26.208L31.2323 26.0744C30.3542 25.734 29.5531 25.6213 28.6101 25.6026Z" fill="#E6CD9F"/>
<path d="M28.2474 25.6002C28.427 25.6014 28.427 25.6014 28.6102 25.6026C29.5532 25.6213 30.3543 25.734 31.2324 26.0744C31.4066 26.1405 31.4066 26.1405 31.5842 26.208C32.5576 26.6208 33.596 27.2609 34.1961 28.1048C34.5251 28.1673 34.5251 28.1673 34.8943 28.1783C35.0192 28.1853 35.1441 28.1923 35.2727 28.1995C35.3688 28.2035 35.4649 28.2075 35.5639 28.2116C35.5757 28.1103 35.5874 28.0089 35.5996 27.9044C35.6779 27.5705 35.6779 27.5705 36.0199 27.3567C37.1243 27.2464 38.0783 27.3632 39.0975 27.7842C39.2536 27.8485 39.2536 27.8485 39.4128 27.914C40.9047 28.6034 42.1168 29.8121 42.8591 31.2038C42.925 31.9704 42.925 31.9704 42.6596 32.3259C42.4031 32.4861 42.4031 32.4861 41.9472 32.4861C41.9472 32.6272 41.9472 32.7683 41.9472 32.9136C42.7359 33.0303 43.2213 32.838 43.8921 32.4728C43.9695 32.4324 44.047 32.3919 44.1268 32.3503C44.376 32.2145 44.376 32.2145 44.6829 31.9518C44.7298 31.6273 44.7298 31.6273 44.6829 31.3107C44.8312 30.8296 45.2551 30.6534 45.691 30.4199C45.7689 30.3769 45.8468 30.334 45.9271 30.2897C46.1767 30.1526 46.4271 30.0169 46.6777 29.8814C46.924 29.7466 47.1701 29.6115 47.4161 29.4763C47.5769 29.3884 47.7382 29.3013 47.9 29.2149C48.2308 29.0377 48.5438 28.8632 48.8486 28.648C49.7104 28.0469 50.6767 28.1219 51.7073 28.1398C52.0225 28.1449 52.3373 28.1442 52.6526 28.1428C52.8537 28.144 53.0548 28.1455 53.2559 28.1474C53.3497 28.1472 53.4435 28.147 53.5402 28.1468C53.9722 28.1568 54.1899 28.1645 54.5446 28.4111C54.8972 28.8864 54.7786 29.477 54.7137 30.0283C54.6007 30.5378 54.4344 31.0313 54.2578 31.5244C54.3841 31.5271 54.5105 31.5299 54.6407 31.5327C54.8075 31.5388 54.9743 31.5449 55.1412 31.5511C55.2243 31.5526 55.3075 31.5541 55.3932 31.5557C55.7799 31.5722 56.0403 31.6056 56.3656 31.8078C56.7326 32.3435 56.6086 33.1001 56.485 33.7051C56.4235 33.9088 56.4235 33.9088 56.3095 34.196C56.4194 34.191 56.5294 34.186 56.6426 34.1809C56.7866 34.1771 56.9306 34.1732 57.0789 34.1692C57.2218 34.1643 57.3646 34.1593 57.5117 34.1542C57.9053 34.196 57.9053 34.196 58.181 34.3734C58.5712 34.9145 58.4399 35.6086 58.3199 36.2256C57.3667 40.2887 53.9897 42.6822 50.4631 44.8028C49.9286 45.1252 49.3968 45.4514 48.8648 45.7772C48.6432 45.9127 48.4216 46.0483 48.2 46.1838C48.0346 46.285 48.0346 46.285 47.8658 46.3882C47.3178 46.7234 46.7697 47.0584 46.2217 47.3935C46.1133 47.4597 46.005 47.526 45.8933 47.5943C45.3514 47.9256 44.8095 48.2569 44.2675 48.5882C44.161 48.6532 44.0545 48.7183 43.9449 48.7854C43.7294 48.9171 43.5139 49.0487 43.2983 49.1804C42.7066 49.542 42.1156 49.9047 41.5255 50.2688C37.8797 52.5177 34.5603 54.3034 30.008 53.5458C28.6444 53.2696 27.3278 52.7853 26.0162 52.3476C24.9006 51.9756 23.7828 51.6093 22.6655 51.2417C22.218 51.0945 21.7705 50.9469 21.3232 50.7991C20.9727 50.6833 20.6221 50.5677 20.2715 50.452C20.1422 50.4092 20.0129 50.3664 19.8797 50.3223C19.7602 50.2829 19.6407 50.2435 19.5176 50.203C19.4132 50.1685 19.3087 50.134 19.2011 50.0984C19.0629 50.0555 19.0629 50.0555 18.9219 50.0116C18.8448 49.9812 18.7677 49.9508 18.6883 49.9194C18.4454 49.8806 18.4454 49.8806 18.2233 50.0745C18.0927 50.203 18.0927 50.203 17.9596 50.3341C17.8602 50.4303 17.7609 50.5266 17.6585 50.6258C17.6059 50.678 17.5533 50.7302 17.4991 50.784C17.3342 50.9475 17.1673 51.109 16.9997 51.2702C16.5237 51.7285 16.051 52.1899 15.5804 52.6532C15.2923 52.9364 15.0018 53.2172 14.7096 53.4967C14.5991 53.6035 14.4895 53.7111 14.381 53.8197C13.533 54.6679 13.533 54.6679 13.0415 54.7821C12.6776 54.7875 12.4089 54.7596 12.0827 54.6067C11.8646 54.327 11.8548 54.1766 11.8726 53.826C11.9863 53.3586 12.144 53.1847 12.5008 52.846C12.556 52.7927 12.6113 52.7395 12.6682 52.6846C12.8502 52.5101 13.0347 52.338 13.2194 52.166C13.3475 52.0449 13.4755 51.9238 13.6034 51.8026C13.8714 51.5494 14.1407 51.2975 14.4109 51.0463C14.7564 50.7248 15.0982 50.4001 15.4391 50.0742C15.7024 49.8235 15.9678 49.5747 16.2339 49.3265C16.3608 49.2076 16.487 49.088 16.6125 48.9677C16.7884 48.7995 16.967 48.6344 17.1466 48.4697C17.2475 48.3751 17.3484 48.2805 17.4524 48.1831C17.9559 47.8747 18.3688 47.9212 18.9571 48.0299C19.0277 48.0529 19.0983 48.0759 19.171 48.0995C19.2539 48.1258 19.3368 48.1521 19.4222 48.1792C19.5098 48.2085 19.5974 48.2378 19.6877 48.268C19.7829 48.2987 19.8782 48.3293 19.9763 48.3609C20.2902 48.4624 20.6034 48.5658 20.9166 48.6692C21.1372 48.7408 21.3579 48.8124 21.5785 48.8838C22.7898 49.2772 23.9977 49.6798 25.2049 50.0838C25.3888 50.1453 25.3888 50.1453 25.5765 50.208C26.1712 50.4067 26.7655 50.6063 27.3591 50.8078C28.45 51.1759 29.5191 51.5253 30.6625 51.7214C30.7423 51.7352 30.8221 51.749 30.9043 51.7631C34.4774 52.2758 37.4023 50.5976 40.2516 48.8256C40.746 48.5191 41.2432 48.2167 41.7406 47.9144C41.9279 47.8004 42.1152 47.6863 42.3025 47.5721C42.5807 47.4027 42.8589 47.2333 43.137 47.0639C43.4172 46.8933 43.6974 46.7226 43.9776 46.5519C44.0705 46.4953 44.1635 46.4387 44.2592 46.3804C45.1093 45.8623 45.9585 45.3428 46.8075 44.8232C47.3746 44.4764 47.9422 44.1306 48.5115 43.7869C48.8226 43.5989 49.1332 43.41 49.4435 43.2208C49.6254 43.11 49.8074 42.9994 49.9896 42.889C52.8922 41.1262 55.3199 39.2501 56.3095 36.0126C54.2747 35.7418 53.1059 36.3385 51.4401 37.3865C50.8141 37.7699 50.1634 38.1117 49.5131 38.4571C49.2629 38.5916 49.0128 38.7263 48.7628 38.8612C48.6477 38.9233 48.5325 38.9854 48.4139 39.0494C47.9658 39.2927 47.522 39.5423 47.0791 39.7938C46.3323 40.2169 45.5785 40.6288 44.8254 41.0418C43.5665 41.7324 42.3101 42.4268 41.0561 43.1253C40.8225 43.2553 40.5886 43.3849 40.3544 43.514C40.1162 43.6471 39.8799 43.7833 39.6453 43.922C39.4678 44.025 39.4678 44.025 39.2868 44.13C39.1819 44.1923 39.077 44.2546 38.9689 44.3188C38.1401 44.663 37.1888 44.3538 36.3369 44.193C36.1899 44.1658 36.0429 44.1386 35.8915 44.1106C35.5798 44.0529 35.2683 43.9948 34.9568 43.9362C34.5659 43.8628 34.175 43.7902 33.7839 43.7178C32.2687 43.4375 30.7562 43.1484 29.2481 42.8359C27.6899 42.5157 26.1213 42.2415 24.5547 41.9597C24.1367 41.8843 23.7189 41.8083 23.301 41.7323C23.1755 41.7099 23.05 41.6875 22.9207 41.6644C21.5646 41.4167 20.5315 41.2033 19.6058 40.1803C19.1744 39.5236 19.007 38.8052 19.1498 38.043C19.4678 37.1269 20.0655 36.5171 20.958 36.0588C21.5663 35.8208 22.1999 35.8614 22.8487 35.8646C22.99 35.8641 23.1313 35.8635 23.2769 35.8629C23.583 35.8619 23.889 35.8614 24.1951 35.8619C24.6794 35.8626 25.1638 35.8609 25.6481 35.8588C26.7634 35.8545 27.8787 35.8532 28.994 35.852C30.0169 35.8509 31.0398 35.8491 32.0627 35.8448C32.5438 35.8428 33.0249 35.8424 33.506 35.8432C33.8759 35.8434 34.2457 35.8415 34.6156 35.84C34.7483 35.8407 34.881 35.8413 35.0177 35.842C35.6613 35.8374 36.1549 35.832 36.7038 35.4783C37.1997 34.9757 37.3143 34.573 37.3062 33.9058C37.2428 33.4294 36.9552 33.1337 36.5827 32.8268C36.1223 32.5622 35.6855 32.5774 35.1642 32.578C35.0763 32.5777 34.9884 32.5774 34.8978 32.577C34.6022 32.5761 34.3066 32.576 34.0111 32.5758C33.7995 32.5753 33.5879 32.5748 33.3763 32.5742C32.8007 32.5728 32.2251 32.5721 31.6495 32.5716C31.2897 32.5713 30.93 32.5709 30.5702 32.5704C29.4443 32.5689 28.3183 32.5679 27.1924 32.5675C25.8934 32.567 24.5944 32.5651 23.2954 32.562C22.291 32.5597 21.2867 32.5586 20.2823 32.5585C19.6827 32.5584 19.083 32.5578 18.4833 32.5559C17.9187 32.5541 17.3541 32.5539 16.7895 32.5548C16.5828 32.5549 16.3761 32.5544 16.1694 32.5534C14.3243 32.5445 12.933 32.7737 11.5493 34.0085C11.3632 34.1839 11.1784 34.3606 10.9946 34.5382C10.8379 34.6868 10.6812 34.8355 10.5245 34.9841C10.3581 35.1423 10.1924 35.301 10.0268 35.4598C9.68027 35.7921 9.33176 36.1224 8.98291 36.4526C8.05466 37.3315 7.12883 38.2127 6.20451 39.0952C5.5956 39.6767 4.98555 40.257 4.37329 40.8353C4.02657 41.163 3.68174 41.4923 3.33824 41.8229C3.07391 42.0764 2.80698 42.3274 2.54044 42.5787C2.44639 42.6703 2.35233 42.7618 2.25542 42.8561C1.5283 43.5344 1.5283 43.5344 0.977149 43.609C0.408942 43.5962 0.408942 43.5962 0.114049 43.3861C-0.0743362 43.0329 -0.0861658 42.6965 6.22198e-05 42.3175C0.145136 42.1185 0.145136 42.1185 0.340295 41.9206C0.449544 41.8092 0.449545 41.8092 0.561 41.6954C0.968301 41.2953 1.37883 40.8986 1.79449 40.5061C1.89099 40.4145 1.98749 40.323 2.08692 40.2287C2.40391 39.9284 2.72134 39.6285 3.03897 39.3287C3.09336 39.2773 3.14776 39.226 3.2038 39.1731C3.71852 38.6873 4.23348 38.2016 4.74898 37.7165C5.40352 37.1006 6.05688 36.4836 6.70868 35.8651C7.16985 35.4276 7.63234 34.9915 8.0958 34.5562C8.3713 34.2974 8.6462 34.0381 8.91968 33.7775C10.8175 31.9723 12.3627 30.7496 15.1684 30.7237C15.3407 30.723 15.513 30.7223 15.6853 30.7217C15.8649 30.7199 16.0446 30.7179 16.2242 30.7159C16.6929 30.7108 17.1615 30.7076 17.6302 30.7048C18.1101 30.7016 18.59 30.6966 19.0699 30.6918C20.0084 30.6827 20.947 30.6755 21.8855 30.6695C21.949 30.4678 21.949 30.4678 22.0138 30.2621C22.0376 30.1864 22.0614 30.1108 22.0859 30.0329C22.1432 29.7813 22.1432 29.7813 21.8855 29.494C21.7839 29.0089 21.7958 28.7781 22.0708 28.3519C23.5626 26.5537 25.8359 25.5772 28.2474 25.6002Z" fill="#010101"/>
<path d="M17.782 -0.000110142C18.0901 0.0745315 18.3749 0.15403 18.6725 0.254106C18.755 0.280567 18.8374 0.307029 18.9223 0.334292C19.0979 0.390753 19.2733 0.447769 19.4484 0.505299C19.9074 0.655852 20.368 0.801864 20.8285 0.948296C20.9196 0.977362 21.0107 1.00643 21.1045 1.03638C23.0462 1.65375 25.0353 2.26727 27.087 2.42094C29.7577 2.62108 31.9736 3.54758 33.75 5.50081C35.222 7.3202 35.222 7.3202 35.222 8.22831C35.2972 8.22831 35.3725 8.22831 35.45 8.22831C35.4794 8.15062 35.5087 8.07293 35.539 7.99288C36.447 6.03936 38.6922 5.04957 40.6759 4.31384C42.8214 3.5448 45.588 2.70192 47.8745 3.41949C48.1595 3.54639 48.1595 3.54639 48.3305 3.74008C48.5252 4.45262 48.347 5.08086 48.1951 5.79051C47.8693 7.40456 47.7191 9.02407 47.5919 10.6614C47.4674 12.1855 47.2285 13.4268 46.1647 14.6401C46.0993 14.7147 46.034 14.7894 45.9666 14.8663C44.6222 16.2535 42.4295 16.981 40.4795 17.1215C40.1491 17.1339 39.82 17.1376 39.4894 17.138C39.3795 17.1406 39.2697 17.1432 39.1565 17.1459C37.8626 17.1508 36.8855 16.6904 35.9536 15.8707C35.3814 15.2988 35.0278 14.5851 34.6521 13.892C34.5981 13.9657 34.5442 14.0394 34.4887 14.1154C33.0065 16.09 33.0065 16.09 31.9562 16.3048C31.8432 16.3209 31.7301 16.337 31.6136 16.3536C31.4875 16.3717 31.3615 16.3899 31.2316 16.4085C31.1002 16.4266 30.9689 16.4447 30.8335 16.4634C30.7057 16.4819 30.5778 16.5005 30.4461 16.5196C26.9931 17.0074 23.7265 16.7744 20.8324 14.7755C18.1713 12.8703 16.9435 9.96585 16.4142 6.94596C16.3941 6.8349 16.3941 6.8349 16.3737 6.72159C16.1836 5.61433 16.1638 4.50602 16.1577 3.3861C16.1566 3.25237 16.1556 3.11864 16.1545 2.98085C16.1625 0.781025 16.1625 0.781025 16.594 0.174663C16.9851 -0.0728506 17.331 -0.057096 17.782 -0.000110142Z" fill="#010101"/>
<path d="M28.2474 25.6002C28.4269 25.6014 28.4269 25.6014 28.6101 25.6026C29.5532 25.6213 30.3542 25.734 31.2324 26.0744C31.3485 26.1185 31.4645 26.1626 31.5841 26.208C32.5575 26.6208 33.596 27.2609 34.196 28.1048C34.525 28.1673 34.525 28.1673 34.8942 28.1783C35.0191 28.1853 35.144 28.1923 35.2727 28.1995C35.3688 28.2035 35.4649 28.2075 35.5639 28.2116C35.5756 28.1103 35.5874 28.0089 35.5995 27.9044C35.6779 27.5705 35.6779 27.5705 36.0198 27.3567C37.1242 27.2464 38.0783 27.3632 39.0975 27.7842C39.2535 27.8485 39.2535 27.8485 39.4127 27.914C40.9047 28.6034 42.1168 29.8121 42.859 31.2038C42.925 31.9704 42.925 31.9704 42.6596 32.3259C42.4031 32.4861 42.4031 32.4861 41.9471 32.4861C41.9471 32.6272 41.9471 32.7683 41.9471 32.9136C42.9387 33.0604 43.5221 32.6506 44.3226 32.1622C44.6828 31.9518 44.6828 31.9518 44.9108 31.9518C44.9531 32.0047 44.9954 32.0576 45.039 32.1121C45.3246 32.3263 45.5662 32.3082 45.9223 32.3013C46.3141 32.2546 46.5887 32.0893 46.9198 31.8938C46.9872 31.8548 47.0546 31.8157 47.124 31.7755C47.3374 31.6512 47.5489 31.5244 47.7605 31.3975C47.9022 31.3143 48.0441 31.2313 48.1861 31.1485C48.3245 31.0675 48.4628 30.9864 48.6011 30.9053C48.6684 30.8659 48.7358 30.8265 48.8051 30.7859C49.0804 30.6236 49.3509 30.4595 49.613 30.2788C50.2477 29.8489 50.8122 29.8574 51.579 29.8881C51.6945 29.8905 51.81 29.8929 51.929 29.8954C52.2115 29.9016 52.4936 29.9104 52.7759 29.9214C52.7241 30.1063 52.6717 30.2911 52.6192 30.4758C52.5901 30.5787 52.561 30.6816 52.531 30.7876C52.4829 30.9407 52.4829 30.9407 52.4339 31.0969C52.4089 31.1935 52.384 31.2901 52.3582 31.3896C52.132 31.7486 51.8284 31.7326 51.408 31.845C51.1606 31.9675 50.9179 32.0987 50.68 32.2369C50.6136 32.2752 50.5471 32.3134 50.4786 32.3528C50.2678 32.4744 50.0578 32.5971 49.8479 32.7199C49.6405 32.8401 49.433 32.9601 49.2255 33.08C49.0892 33.1588 48.9529 33.2378 48.8168 33.3169C48.2529 33.644 47.6797 33.9536 47.1016 34.2583C46.8351 34.3892 46.8351 34.3892 46.7346 34.6234C46.6897 35.1175 46.6897 35.1175 46.8486 35.5785C47.2127 35.7599 47.5888 35.737 47.9884 35.692C48.3788 35.5407 48.3788 35.5407 48.7436 35.3134C48.8447 35.2548 48.8447 35.2548 48.9478 35.1951C49.1612 35.0708 49.3727 34.944 49.5843 34.8171C49.726 34.7339 49.8679 34.6509 50.0099 34.5681C50.1483 34.4871 50.2866 34.406 50.4249 34.3249C50.4922 34.2855 50.5596 34.2461 50.6289 34.2055C50.9042 34.0432 51.1747 33.8791 51.4368 33.6985C52.0715 33.2686 52.636 33.277 53.4028 33.3077C53.5183 33.3101 53.6338 33.3125 53.7528 33.315C54.0353 33.3212 54.3174 33.33 54.5997 33.3411C54.5244 33.6232 54.4492 33.9053 54.3717 34.196C54.303 34.2042 54.2342 34.2124 54.1634 34.2209C53.3483 34.3426 52.7572 34.6223 52.0635 35.0308C51.841 35.1579 51.6185 35.2849 51.396 35.4119C51.2839 35.4767 51.1717 35.5415 51.0561 35.6082C50.5478 35.9002 50.034 36.1834 49.5201 36.4668C49.3129 36.5816 49.1057 36.6964 48.8986 36.8112C48.1093 37.2477 47.3187 37.6821 46.528 38.1165C46.4563 38.1558 46.3847 38.1952 46.3109 38.2357C46.0308 38.3896 45.7507 38.5434 45.4706 38.6973C44.321 39.3287 43.1725 39.9617 42.0272 40.5998C41.6876 40.789 41.3477 40.9778 41.0071 41.1656C40.1906 41.616 40.1906 41.616 39.3873 42.0867C39.3168 42.128 39.2463 42.1694 39.1737 42.2121C39.0021 42.3132 38.8323 42.4173 38.6629 42.5216C37.7 42.8303 36.4693 42.443 35.4998 42.2627C35.349 42.2351 35.1981 42.2075 35.0472 42.18C34.6414 42.1057 34.2357 42.0307 33.83 41.9554C33.5761 41.9082 33.3222 41.8612 33.0683 41.8143C32.2724 41.667 31.4766 41.5193 30.681 41.3708C29.7649 41.1998 28.8485 41.0306 27.9318 40.8629C27.2209 40.7328 26.5104 40.601 25.8001 40.4681C25.3767 40.3889 24.9531 40.3104 24.5293 40.2335C24.1312 40.1613 23.7337 40.0871 23.3363 40.0114C23.1215 39.971 22.9063 39.9326 22.691 39.8943C21.5076 39.6653 21.5076 39.6653 21.0876 39.1116C21.0079 38.8679 21.0079 38.8679 21.0092 38.6307C21.0064 38.5525 21.0036 38.4743 21.0007 38.3936C21.1384 38.007 21.3963 37.7991 21.7715 37.6156C22.2331 37.5384 22.6884 37.5473 23.1563 37.5536C23.3649 37.5532 23.3649 37.5532 23.5778 37.5528C23.8796 37.5525 24.1812 37.5533 24.4829 37.5556C24.9612 37.5592 25.4395 37.5588 25.9178 37.5577C27.0203 37.5559 28.1227 37.5594 29.2252 37.563C30.2342 37.5662 31.2433 37.5682 32.2523 37.566C32.7265 37.5651 33.2006 37.5668 33.6748 37.5705C34.0413 37.5726 34.4079 37.5714 34.7745 37.5707C34.9039 37.5724 35.0332 37.5742 35.1665 37.576C36.2395 37.5685 37.0885 37.2764 38.0003 36.754C38.8098 35.9047 39.141 34.923 39.1291 33.8065C39.0838 33.2925 38.9237 32.9237 38.6415 32.4861C38.5971 32.4115 38.5528 32.3368 38.5071 32.2599C37.9871 31.4956 37.1416 31.1625 36.2478 30.8832C36.0526 30.8724 35.857 30.8676 35.6614 30.8663C35.4795 30.8647 35.4795 30.8647 35.2938 30.8631C35.1607 30.8625 35.0277 30.8619 34.8906 30.8613C34.7504 30.8602 34.6103 30.8592 34.4659 30.8581C34.0816 30.8553 33.6973 30.8529 33.313 30.8508C32.9113 30.8485 32.5097 30.8455 32.1081 30.8427C31.3475 30.8373 30.587 30.8325 29.8264 30.8279C28.9606 30.8226 28.0947 30.8168 27.2289 30.8109C25.4478 30.7987 23.6666 30.7873 21.8855 30.7763C21.9046 30.7106 21.9237 30.6449 21.9433 30.5772C21.9666 30.4909 21.9898 30.4045 22.0137 30.3155C22.0375 30.23 22.0613 30.1444 22.0858 30.0563C22.1447 29.7844 22.1447 29.7844 21.8855 29.494C21.7838 29.0089 21.7958 28.7781 22.0707 28.3519C23.5625 26.5537 25.8359 25.5772 28.2474 25.6002Z" fill="#D6956F"/>
<path d="M18.1239 2.03033C18.235 2.06526 18.346 2.10019 18.4604 2.13618C21.4356 3.06907 24.3598 3.98038 27.4977 4.26894C28.4079 4.35726 29.1635 4.50564 29.9786 4.91563C30.0861 4.96949 30.1937 5.02335 30.3045 5.07884C32.0128 6.01897 33.1512 7.48171 33.6689 9.26694C33.9737 10.7672 33.6118 12.1987 32.7142 13.4646C32.5358 13.7025 32.3624 13.896 32.1443 14.1058C31.8024 14.1058 31.8024 14.1058 31.6385 13.9639C31.5503 13.8622 31.5503 13.8622 31.4604 13.7585C31.1099 13.3659 30.7483 12.9855 30.3775 12.6097C29.967 12.192 29.5632 11.7699 29.1664 11.3407C28.8905 11.0476 28.6082 10.7601 28.3258 10.4725C27.9154 10.0547 27.5114 9.63268 27.1146 9.20349C26.8387 8.91034 26.5564 8.62282 26.274 8.33523C25.6764 7.72631 25.0865 7.11314 24.5286 6.47181C24.3089 6.19452 24.3089 6.19452 24.0513 6.09111C23.522 6.04743 23.522 6.04743 23.0325 6.20466C22.8414 6.53137 22.8777 6.79286 22.9114 7.15974C23.1008 7.47312 23.1008 7.47312 23.3745 7.74748C23.4683 7.84846 23.5622 7.94943 23.659 8.05346C23.9471 8.34514 24.24 8.62902 24.5446 8.90544C24.8181 9.16064 25.0673 9.43359 25.3194 9.70733C25.7257 10.1462 26.1435 10.5755 26.559 11.0068C27.0999 11.5683 27.6385 12.1311 28.1677 12.7024C28.4299 12.9803 28.6987 13.2521 28.9669 13.5247C29.3811 13.9497 29.7522 14.3752 30.0926 14.8538C27.1458 15.2078 24.3157 15.0143 21.8784 13.2977C21.7268 13.1773 21.577 13.055 21.4296 12.9303C21.3627 12.8774 21.2958 12.8245 21.227 12.77C20.0779 11.7929 19.4193 10.4322 18.9218 9.08327C18.8786 8.9699 18.8354 8.85653 18.7909 8.73972C18.0477 6.5787 18.0719 4.27514 18.1239 2.03033Z" fill="#93C38E"/>
<path d="M46.2786 5.02253C46.22 5.59321 46.1568 6.16321 46.0867 6.73275C45.9224 8.07067 45.7722 9.40574 45.6884 10.7506C45.6184 11.7156 45.4361 12.5768 44.7968 13.3578C44.7283 13.4442 44.6598 13.5306 44.5893 13.6195C43.6054 14.6989 41.8253 15.2636 40.3513 15.3882C39.7812 15.4083 39.2118 15.4012 38.6415 15.3882C38.8243 14.87 39.1377 14.47 39.475 14.0324C39.5351 13.9536 39.5951 13.8748 39.657 13.7936C39.8498 13.541 40.0435 13.2891 40.2373 13.0372C40.3666 12.8687 40.4959 12.7002 40.6251 12.5317C40.7201 12.4082 40.7201 12.4082 40.817 12.2821C40.9429 12.1184 41.0686 11.9545 41.1942 11.7905C41.4615 11.4424 41.7301 11.0969 42.0152 10.7614C42.5246 10.1737 42.5246 10.1737 42.7094 9.45733C42.6545 9.09984 42.6545 9.09984 42.5099 8.86959C42.1547 8.69769 41.883 8.71762 41.4912 8.76273C41.0458 9.10666 40.7406 9.56335 40.4154 10.005C40.294 10.1681 40.1724 10.3312 40.0507 10.4942C39.9879 10.5785 39.9251 10.6627 39.8604 10.7495C39.4821 11.2537 39.0962 11.7529 38.7097 12.2516C38.4371 12.6034 38.1656 12.9554 37.9015 13.3127C37.8212 13.4202 37.741 13.5276 37.6584 13.6383C37.5911 13.7301 37.5238 13.8218 37.4544 13.9163C37.3649 14.0102 37.3649 14.0102 37.2736 14.1059C37.1608 14.1059 37.048 14.1059 36.9317 14.1059C36.8569 13.9773 36.7836 13.848 36.7108 13.7185C36.6698 13.6466 36.6288 13.5747 36.5866 13.5006C36.0901 12.3827 36.2531 10.8307 36.673 9.71781C37.6245 7.65379 39.3561 6.70171 41.4912 5.87744C43.0016 5.33204 44.6541 4.94397 46.2786 5.02253Z" fill="#879A67"/>
<path d="M51.579 29.8881C51.7522 29.8917 51.7522 29.8917 51.9289 29.8954C52.2114 29.9016 52.4935 29.9104 52.7758 29.9215C52.724 30.1064 52.6717 30.2911 52.6191 30.4758C52.5755 30.6302 52.5755 30.6302 52.5309 30.7876C52.4989 30.8897 52.4669 30.9918 52.4339 31.097C52.4089 31.1935 52.3839 31.2901 52.3582 31.3896C52.132 31.7486 51.8284 31.7326 51.408 31.845C51.1605 31.9675 50.9178 32.0987 50.68 32.237C50.6135 32.2752 50.5471 32.3135 50.4786 32.3529C50.2678 32.4744 50.0578 32.5971 49.8478 32.7199C49.6405 32.8401 49.433 32.9601 49.2254 33.08C49.0891 33.1588 48.9529 33.2378 48.8168 33.317C48.2528 33.644 47.6796 33.9536 47.1015 34.2583C46.8351 34.3892 46.8351 34.3892 46.7345 34.6234C46.6897 35.1175 46.6897 35.1175 46.8485 35.5785C47.2127 35.7599 47.5887 35.737 47.9884 35.692C48.3787 35.5407 48.3787 35.5407 48.7436 35.3134C48.8109 35.2744 48.8783 35.2353 48.9478 35.1951C49.1611 35.0708 49.3726 34.9441 49.5842 34.8171C49.726 34.7339 49.8679 34.6509 50.0099 34.5681C50.1482 34.4871 50.2865 34.406 50.4249 34.325C50.5258 34.2658 50.5258 34.2658 50.6289 34.2055C50.9042 34.0432 51.1746 33.8791 51.4367 33.6985C52.0714 33.2686 52.636 33.277 53.4028 33.3077C53.5183 33.3101 53.6337 33.3125 53.7527 33.315C54.0352 33.3212 54.3173 33.33 54.5996 33.3411C54.5244 33.6232 54.4492 33.9053 54.3716 34.196C54.3029 34.2042 54.2342 34.2124 54.1634 34.2209C53.3483 34.3427 52.7572 34.6223 52.0634 35.0308C51.841 35.1579 51.6185 35.2849 51.396 35.4119C51.2838 35.4767 51.1716 35.5415 51.0561 35.6082C50.5477 35.9002 50.034 36.1835 49.5201 36.4668C49.3148 36.5803 49.1095 36.6939 48.9043 36.8074C48.7962 36.8672 48.688 36.927 48.5766 36.9886C48.3148 37.1336 48.0531 37.2789 47.7915 37.4244C47.4144 37.6342 47.037 37.8435 46.6593 38.0525C46.5109 38.1347 46.3626 38.2172 46.2144 38.2998C46.0067 38.4156 45.7985 38.5308 45.5902 38.6458C45.4701 38.7125 45.3499 38.7792 45.2262 38.8479C44.9603 38.9802 44.7486 39.0626 44.4548 39.1116C44.4839 38.7842 44.5151 38.4571 44.5474 38.1298C44.5554 38.0375 44.5634 37.9451 44.5717 37.85C44.6251 37.3272 44.7058 36.9899 45.0247 36.5469C45.2003 35.7342 44.8543 35.0802 44.4263 34.3955C43.99 33.7843 43.4327 33.4637 42.745 33.1273C43.1501 32.81 43.564 32.5478 44.0202 32.2992C44.1394 32.2336 44.2586 32.168 44.3813 32.1005C44.6828 31.9519 44.6828 31.9519 44.9107 31.9519C44.9531 32.0048 44.9954 32.0576 45.039 32.1121C45.3246 32.3264 45.5661 32.3083 45.9222 32.3013C46.314 32.2547 46.5886 32.0894 46.9198 31.8938C46.9872 31.8548 47.0545 31.8157 47.124 31.7755C47.3374 31.6512 47.5489 31.5245 47.7604 31.3975C47.9022 31.3143 48.0441 31.2313 48.1861 31.1485C48.3244 31.0675 48.4628 30.9864 48.6011 30.9054C48.6684 30.8659 48.7357 30.8265 48.8051 30.7859C49.0804 30.6236 49.3508 30.4595 49.6129 30.2789C50.2477 29.849 50.8122 29.8574 51.579 29.8881Z" fill="#E3CB9D"/>
<path d="M28.2474 25.6002C28.4269 25.6014 28.4269 25.6014 28.6101 25.6026C29.5532 25.6213 30.3542 25.734 31.2324 26.0744C31.3485 26.1185 31.4646 26.1626 31.5841 26.208C32.8071 26.7267 34.0769 27.5728 34.652 28.746C34.7304 29.0933 34.7304 29.0933 34.652 29.3871C34.3721 29.7422 34.2045 29.8975 33.7401 29.9882C33.2776 29.8979 33.1376 29.7196 32.8282 29.3871C31.7104 28.1948 30.2271 27.544 28.5488 27.4381C26.9351 27.4073 25.5065 27.8344 24.2641 28.8349C23.9656 29.1129 23.7 29.3981 23.4385 29.7077C23.0441 29.9895 22.8159 29.948 22.3401 29.8881C22.1134 29.8146 22.1134 29.8146 21.8855 29.494C21.7838 29.0089 21.7958 28.7781 22.0707 28.3519C23.5625 26.5537 25.8359 25.5772 28.2474 25.6002Z" fill="#010100"/>
<path d="M34.652 16.1896C34.7272 16.1885 34.8024 16.1874 34.8799 16.1863C35.2254 16.2723 35.3466 16.4039 35.5638 16.6705C35.6088 16.9855 35.6262 17.2606 35.6228 17.5755C35.6236 17.6666 35.6244 17.7577 35.6253 17.8515C35.6273 18.1525 35.6259 18.4534 35.6244 18.7543C35.6247 18.9635 35.6252 19.1727 35.6257 19.3819C35.6264 19.8203 35.6254 20.2587 35.6233 20.6971C35.6207 21.2591 35.6222 21.8211 35.6249 22.3831C35.6266 22.8151 35.626 23.247 35.6249 23.679C35.6246 23.8862 35.6249 24.0935 35.626 24.3007C35.6271 24.5903 35.6254 24.8798 35.6228 25.1694C35.6238 25.2551 35.6247 25.3409 35.6256 25.4292C35.6194 25.8139 35.5993 26.0309 35.3464 26.3411C35.088 26.5153 34.9666 26.5599 34.652 26.5553C34.5767 26.5564 34.5015 26.5575 34.424 26.5586C34.0785 26.4726 33.9573 26.341 33.7401 26.0744C33.6951 25.7594 33.6777 25.4843 33.6811 25.1694C33.6803 25.0783 33.6795 24.9872 33.6786 24.8934C33.6766 24.5924 33.678 24.2916 33.6795 23.9906C33.6792 23.7814 33.6788 23.5722 33.6782 23.363C33.6775 22.9246 33.6785 22.4862 33.6806 22.0479C33.6832 21.4858 33.6817 20.9239 33.679 20.3618C33.6773 19.9298 33.6779 19.4979 33.679 19.0659C33.6793 18.8587 33.679 18.6514 33.6779 18.4442C33.6768 18.1546 33.6785 17.8651 33.6811 17.5755C33.6801 17.4898 33.6792 17.404 33.6783 17.3157C33.6845 16.931 33.7046 16.714 33.9575 16.4038C34.2159 16.2296 34.3373 16.185 34.652 16.1896Z" fill="black"/>
<path d="M37.7296 27.3567C38.212 27.453 38.6466 27.598 39.0974 27.7842C39.2535 27.8485 39.2535 27.8485 39.4127 27.914C40.9046 28.6034 42.1167 29.8121 42.859 31.2038C42.9241 31.961 42.9241 31.961 42.6809 32.3259C42.29 32.5513 42.0563 32.5529 41.6051 32.4861C41.1736 32.1853 40.9159 31.7944 40.6077 31.3841C39.7346 30.2452 38.6383 29.4759 37.1596 29.1734C36.9817 29.1566 36.8035 29.1411 36.6253 29.1267C36.3331 29.0972 36.1238 29.0628 35.8488 28.9597C35.5743 28.6165 35.5012 28.2075 35.5638 27.7842C36.0653 27.106 36.9506 27.286 37.7296 27.3567Z" fill="#010100"/>
<path d="M42.4029 32.9137C42.8556 33.0834 43.2525 33.3008 43.6568 33.5549C43.7263 33.5983 43.7958 33.6417 43.8674 33.6864C44.512 34.1392 44.9636 34.8542 45.1386 35.5853C45.2003 36.1658 45.2062 36.6088 44.7967 37.0813C44.4765 37.2314 44.2395 37.2148 43.8848 37.1882C43.5529 37.0179 43.4467 36.9197 43.3295 36.5783C43.3082 36.4688 43.2869 36.3593 43.265 36.2465C43.1253 35.661 42.9919 35.3469 42.5169 34.9441C42.2437 34.8018 42.0009 34.7398 41.695 34.6861C40.9713 34.5566 40.9713 34.5566 40.686 34.3296C40.5403 34.0017 40.5178 33.8004 40.5792 33.448C41.0256 32.7842 41.6409 32.7807 42.4029 32.9137Z" fill="#040302"/>
</g>
<defs>
<clipPath id="clip0_21_323">
<rect width="58.3612" height="54.7137" fill="white"/>
</clipPath>
</defs>
</svg>
