<svg width="88" height="88" viewBox="0 0 88 88" fill="none" xmlns="http://www.w3.org/2000/svg">
<path d="M31.66 14.8087C32.8075 15.4966 33.0411 16.4603 33.4213 17.695C33.4859 17.8952 33.5504 18.0953 33.6169 18.3015C33.8224 18.9412 34.0232 19.5824 34.2238 20.2237C34.3593 20.6478 34.495 21.0719 34.6311 21.4959C34.8915 22.3092 35.1491 23.1232 35.4041 23.9382C35.6074 24.5876 35.8143 25.2354 36.0296 25.8809C36.0704 26.0048 36.1111 26.1288 36.1531 26.2565C36.2553 26.5664 36.3593 26.8757 36.4635 27.185C36.6262 27.8717 36.654 28.4016 36.5962 29.1067C36.3409 29.4472 36.3409 29.4472 36.0856 29.6174C36.5138 31.1752 37.1088 32.656 37.7182 34.1504C38.4444 35.9846 38.4444 35.9846 38.2984 36.9366C37.926 37.3515 37.926 37.3515 37.4473 37.6175C36.9918 37.6341 36.9918 37.6341 36.5962 37.6175C36.9319 38.4873 37.2682 39.3568 37.605 40.2262C37.7196 40.5222 37.834 40.8182 37.9483 41.1143C38.1122 41.5391 38.2767 41.9636 38.4413 42.3882C38.4926 42.5213 38.5438 42.6545 38.5966 42.7917C38.7973 43.3987 38.7973 43.3987 39.1494 43.9154C39.6108 42.7584 40.0713 41.601 40.5312 40.4434C40.6878 40.0494 40.8447 39.6554 41.0018 39.2615C41.2271 38.6964 41.4516 38.1311 41.6761 37.5656C41.7468 37.3887 41.8176 37.2117 41.8904 37.0294C41.9552 36.8658 42.0199 36.7023 42.0866 36.5338C42.1441 36.3894 42.2015 36.245 42.2607 36.0962C42.4023 35.7536 42.4023 35.7536 42.3835 35.4047C42.105 35.2261 41.821 35.0559 41.5324 34.894C41.3622 34.7238 41.3622 34.7238 41.32 34.1371C41.3326 33.2629 41.5866 32.5068 41.8682 31.6859C41.9218 31.5242 41.9753 31.3626 42.0305 31.196C42.2066 30.6656 42.3855 30.1362 42.5644 29.6067C42.8145 28.8574 43.0634 28.1077 43.3124 27.3581C43.3763 27.1664 43.4402 26.9747 43.506 26.7773C43.9537 25.4313 44.3867 24.0812 44.8111 22.7277C44.8687 22.5445 44.9263 22.3613 44.9856 22.1726C45.2086 21.4627 45.4316 20.7527 45.6516 20.0419C45.8028 19.5535 45.9561 19.0657 46.1096 18.578C46.1752 18.3631 46.1752 18.3631 46.242 18.1439C46.5326 17.2287 46.8537 16.383 47.6176 15.7555C48.2181 15.6054 48.7933 15.5926 49.3623 15.83C50.2622 16.7075 50.5551 17.6932 50.9235 18.8752C50.9861 19.0694 51.0488 19.2636 51.1133 19.4637C51.312 20.0816 51.5075 20.7005 51.7028 21.3194C51.9013 21.9405 52.1004 22.5615 52.2996 23.1824C52.4231 23.5682 52.5461 23.9543 52.6684 24.3406C52.7512 24.6014 52.7512 24.6014 52.8356 24.8675C52.8841 25.0209 52.9325 25.1743 52.9825 25.3324C53.0982 25.7044 53.0982 25.7044 53.2773 26.0429C53.315 25.927 53.3526 25.811 53.3915 25.6916C53.5638 25.166 53.7396 24.6417 53.9156 24.1173C53.9748 23.9349 54.0341 23.7524 54.0951 23.5645C54.184 23.302 54.184 23.302 54.2746 23.0342C54.3281 22.8729 54.3816 22.7115 54.4367 22.5453C54.6688 22.0665 54.8592 21.8778 55.3199 21.6173C56.4821 21.4881 56.4821 21.4881 57.0998 21.8881C57.6131 22.3743 57.7991 22.8405 58.007 23.4972C58.0673 23.6762 58.0673 23.6762 58.1289 23.8589C58.2606 24.252 58.3881 24.6463 58.5154 25.0409C58.606 25.3157 58.6968 25.5904 58.7877 25.8651C58.9775 26.4405 59.1652 27.0164 59.3516 27.5929C59.59 28.3301 59.8332 29.0657 60.078 29.8009C60.2662 30.3679 60.4519 30.9357 60.6369 31.5038C60.7256 31.7752 60.8151 32.0465 60.9053 32.3175C61.0312 32.6971 61.1538 33.0777 61.2756 33.4587C61.3318 33.625 61.3318 33.625 61.3892 33.7946C61.6277 34.5571 61.6281 35.1392 61.4476 35.9153C61.35 36.024 61.2524 36.1326 61.1518 36.2445C61.0809 36.3606 61.01 36.4766 60.9369 36.5962C61.0666 37.0908 61.2126 37.5026 61.4143 37.9672C61.4684 38.0998 61.5224 38.2325 61.578 38.3691C61.7513 38.7937 61.9288 39.2163 62.1072 39.6388C62.284 40.0601 62.4599 40.4818 62.6327 40.9048C62.7402 41.168 62.8502 41.4303 62.9628 41.6914C63.2713 42.4438 63.3875 42.935 63.1497 43.7452C62.9582 44.0644 62.9582 44.0644 62.6391 44.2559C62.242 44.2636 61.8447 44.2641 61.4476 44.2559C61.4856 44.3513 61.5236 44.4468 61.5628 44.5451C61.9592 45.5413 62.3537 46.5383 62.7473 47.5357C62.8942 47.9075 63.0417 48.2791 63.1896 48.6506C63.4025 49.1854 63.6137 49.7209 63.8246 50.2566C63.8908 50.4217 63.9569 50.5868 64.025 50.757C64.841 52.8413 64.841 52.8413 64.4795 53.8305C64.1656 54.3068 63.9779 54.5246 63.4902 54.8092C62.9597 54.8672 62.9597 54.8672 62.3439 54.8591C62.1234 54.8574 61.9028 54.8558 61.6756 54.8541C61.4436 54.8498 61.2115 54.8455 60.9795 54.8411C60.7448 54.8385 60.5101 54.8362 60.2754 54.8341C59.7015 54.8281 59.1277 54.8197 58.5539 54.8092C58.6399 55.0126 58.726 55.216 58.8146 55.4255C58.9264 55.6988 59.0381 55.972 59.1497 56.2454C59.2065 56.3787 59.2633 56.512 59.3219 56.6493C59.6967 57.5787 59.8736 58.4015 59.7454 59.405C59.5332 59.9038 59.367 60.1569 58.9369 60.4795C58.4061 60.6417 57.9135 60.6177 57.3624 60.5965C57.3772 60.7844 57.3772 60.7844 57.3923 60.9762C57.4549 62.3301 57.4549 62.3301 57.0007 63.0114C56.4241 63.3749 56.1584 63.4479 55.4901 63.3199C55.2654 63.0952 55.0407 62.8706 54.8092 62.6391C54.8092 61.965 54.8092 61.291 54.8092 60.5965C53.1241 60.5965 51.439 60.5965 49.7028 60.5965C49.7107 61.3873 49.7186 62.1781 49.7267 62.9928C49.7302 63.4939 49.7335 63.995 49.736 64.4961C49.7401 65.2915 49.7449 66.0868 49.7541 66.8821C49.7615 67.5233 49.7656 68.1645 49.7674 68.8057C49.7686 69.0503 49.7711 69.2949 49.7747 69.5395C49.7797 69.8821 49.78 70.2248 49.7801 70.5675C49.7816 70.7626 49.7831 70.9576 49.7846 71.1586C49.6846 71.7719 49.5117 71.97 49.0219 72.3413C48.5219 72.4371 48.5219 72.4371 48.0006 72.3413C47.4651 71.9114 47.1827 71.6573 47.0472 70.9743C47.05 70.6869 47.05 70.6869 47.0529 70.3936C47.053 70.1756 47.053 69.9575 47.0531 69.7329C47.0575 69.4966 47.0619 69.2604 47.0664 69.0241C47.068 68.7811 47.0692 68.5381 47.0701 68.2951C47.0733 67.6573 47.0817 67.0196 47.0911 66.3819C47.0998 65.7304 47.1037 65.0789 47.108 64.4273C47.1171 63.1503 47.1316 61.8734 47.1495 60.5965C47.0405 60.598 46.9315 60.5995 46.8192 60.6011C45.6844 60.6161 44.5496 60.6264 43.4147 60.6339C42.9912 60.6373 42.5677 60.642 42.1442 60.6479C41.5353 60.6561 40.9266 60.66 40.3177 60.663C40.0338 60.6683 40.0338 60.6683 39.7443 60.6736C38.4265 60.674 38.4265 60.674 37.7606 60.2712C37.2319 59.6712 37.0439 59.2427 37.0544 58.4287C37.1754 57.5402 37.5666 56.7103 37.8961 55.8823C37.9772 55.6739 38.0583 55.4655 38.1419 55.2508C38.3572 54.6974 38.5749 54.145 38.7932 53.5928C39.0121 53.0378 39.2288 52.482 39.4457 51.9262C39.7663 51.1049 40.0882 50.2843 40.4112 49.464C40.8476 48.3543 41.2762 47.2417 41.7027 46.1282C41.0848 46.1282 40.4669 46.1282 39.8303 46.1282C39.7882 46.3108 39.746 46.4933 39.7026 46.6814C39.4774 47.3572 39.3765 47.5886 38.809 48.0006C38.2934 48.06 37.8417 48.0802 37.3276 48.0671C37.185 48.0661 37.0424 48.0652 36.8955 48.0642C36.441 48.0604 35.9868 48.0518 35.5324 48.0431C35.2239 48.0397 34.9153 48.0366 34.6068 48.0338C33.8514 48.0263 33.0962 48.0146 32.3408 48.0006C32.3431 48.1455 32.3431 48.1455 32.3454 48.2933C32.3605 49.2983 32.3708 50.3033 32.3782 51.3085C32.3817 51.6836 32.3863 52.0587 32.3922 52.4338C32.4005 52.973 32.4043 53.512 32.4073 54.0512C32.4109 54.219 32.4144 54.3867 32.418 54.5595C32.4184 55.7181 32.4184 55.7181 32.0335 56.2761C31.4773 56.6264 31.1106 56.6145 30.4685 56.5113C30.0433 56.1452 29.8173 55.8493 29.7291 55.2872C29.7087 54.8238 29.7111 54.3654 29.7211 53.9016C29.7221 53.7328 29.7231 53.564 29.7241 53.39C29.7279 52.8524 29.7364 52.3149 29.7451 51.7772C29.7485 51.4121 29.7516 51.047 29.7544 50.6818C29.7619 49.788 29.7733 48.8943 29.7876 48.0006C29.6013 48.005 29.415 48.0095 29.223 48.0141C28.5299 48.0295 27.8368 48.0393 27.1436 48.0473C26.8439 48.0516 26.5443 48.0574 26.2447 48.0648C25.8132 48.0752 25.382 48.08 24.9505 48.0837C24.7504 48.0903 24.7504 48.0903 24.5463 48.097C23.8272 48.0974 23.568 48.0627 22.9833 47.5994C22.5722 47.0628 22.4717 46.804 22.4684 46.1282C22.5795 45.621 22.7536 45.1454 22.9365 44.6601C22.9885 44.5169 23.0405 44.3736 23.0941 44.226C25.0229 38.9766 25.0229 38.9766 25.7025 37.6175C25.4234 37.5912 25.4234 37.5912 25.1386 37.5643C24.511 37.4473 24.511 37.4473 24.1918 37.2345C23.9417 36.8455 23.8848 36.5454 23.8301 36.0856C23.9379 35.649 23.9379 35.649 24.1187 35.1866C24.1841 35.0162 24.2496 34.8458 24.317 34.6702C24.388 34.4913 24.4591 34.3124 24.5322 34.1281C24.6023 33.9451 24.6723 33.7622 24.7445 33.5737C25.0419 32.7995 25.3447 32.0293 25.6779 31.2697C25.7597 31.079 25.8416 30.8883 25.9259 30.6919C25.9989 30.5332 26.072 30.3746 26.1473 30.2111C26.1799 30.0015 26.1799 30.0015 26.2131 29.7876C26.1032 29.6566 25.9933 29.5256 25.88 29.3907C25.5323 28.9365 25.5323 28.9365 25.5736 28.3023C25.6771 27.6393 25.8493 27.0133 26.0547 26.3739C26.0902 26.2625 26.1257 26.151 26.1622 26.0362C26.2783 25.6723 26.3962 25.309 26.5143 24.9458C26.5965 24.6907 26.6785 24.4356 26.7606 24.1804C26.9322 23.6477 27.1047 23.1152 27.2778 22.583C27.4989 21.9029 27.7175 21.2221 27.9353 20.5409C28.104 20.0146 28.2742 19.4887 28.4449 18.963C28.526 18.7122 28.6067 18.4612 28.6869 18.2101C28.7994 17.8586 28.9138 17.5078 29.0288 17.157C29.0933 16.9578 29.1578 16.7586 29.2243 16.5533C29.7603 15.2232 30.1937 14.6621 31.66 14.8087Z" fill="#010101"/>
<path d="M62.5433 1.61704C63.957 2.52422 64.7257 3.99596 65.5008 5.43624C65.7084 5.81539 65.9163 6.19438 66.1245 6.57322C66.2257 6.75792 66.3269 6.94261 66.4312 7.1329C66.8993 7.97439 67.393 8.8005 67.8973 9.62076C68.6751 10.9109 69.142 12.1332 68.8692 13.6551C68.5838 14.7354 67.9874 15.5391 67.0646 16.1704C65.8387 16.7362 64.6451 16.7558 63.3146 16.7489C63.105 16.7494 62.8955 16.7499 62.6796 16.7504C62.2384 16.7507 61.7972 16.7498 61.356 16.7476C60.6837 16.7449 60.0115 16.7476 59.3391 16.7509C58.909 16.7505 58.4788 16.7499 58.0486 16.7489C57.7493 16.7504 57.7493 16.7504 57.444 16.752C56.0227 16.7399 54.5973 16.6165 53.5073 15.5966C52.6281 14.537 52.3287 13.5065 52.3796 12.1444C52.4262 11.7448 52.4262 11.7448 52.5964 11.2342C51.8625 11.095 51.1284 10.957 50.3942 10.8193C50.1879 10.7801 49.9815 10.741 49.7689 10.7006C41.1168 9.08273 32.0597 10.915 24.7749 15.8803C21.6503 18.0588 18.9522 20.6036 16.681 23.6599C16.5748 23.801 16.4686 23.942 16.3592 24.0874C11.3547 30.9744 9.19832 39.9341 10.4044 48.3623C11.0295 52.2739 12.2828 55.9149 14.1278 59.405C14.2215 59.5829 14.3152 59.7609 14.4117 59.9442C14.8529 60.7665 15.3152 61.5642 15.8333 62.3405C16.3143 63.2009 16.2814 64.2385 16.1704 65.1923C15.7635 66.4339 15.1508 67.3011 13.9842 67.9091C12.8962 68.3797 11.8173 68.4293 10.6916 68.054C9.22804 67.4161 8.60561 66.3186 7.83386 64.9808C7.67015 64.6997 7.5002 64.4222 7.32986 64.1451C3.63875 58.0056 1.95843 50.7555 1.98937 43.6388C1.98968 43.4899 1.98999 43.341 1.99031 43.1876C1.99851 40.8439 2.10606 38.5621 2.55321 36.2558C2.58061 36.1076 2.60801 35.9594 2.63624 35.8068C4.71111 24.8564 11.1348 15.3434 20.2556 9.02139C20.882 8.60734 21.5169 8.21385 22.1659 7.83628C22.3761 7.71353 22.5855 7.58924 22.7941 7.46377C29.0206 3.72668 36.2854 1.95797 43.5112 1.98939C43.6601 1.9897 43.809 1.99001 43.9624 1.99033C48.3839 2.00579 52.653 2.6671 56.8517 4.08516C56.9024 3.92564 56.9531 3.76612 57.0053 3.60177C57.3608 2.57848 57.9928 2.016 58.9349 1.52396C60.0654 1.13379 61.4374 1.13724 62.5433 1.61704Z" fill="#000202"/>
<path d="M77.1073 19.4045C78.166 20.0662 78.6985 21.0939 79.3081 22.1539C79.4875 22.4634 79.6722 22.7691 79.858 23.0748C82.6582 27.7613 84.1717 33.0977 84.9372 38.4686C84.9658 38.6671 84.9658 38.6671 84.995 38.8697C85.1786 40.3822 85.149 41.9156 85.15 43.4367C85.1501 43.5886 85.1502 43.7405 85.1503 43.897C85.1475 46.2647 85.0486 48.564 84.5968 50.8943C84.5694 51.0424 84.542 51.1906 84.5138 51.3432C82.6795 61.0236 77.3846 69.9836 69.6179 76.0861C69.3631 76.2911 69.3631 76.2911 69.1033 76.5003C61.9245 82.2222 52.7703 85.2003 43.6388 85.1606C43.4899 85.1603 43.341 85.16 43.1876 85.1597C38.7661 85.1442 34.497 84.4829 30.2983 83.0649C30.2474 83.2244 30.1964 83.3839 30.144 83.5482C29.8247 84.4707 29.3557 84.9347 28.5216 85.416C27.3779 85.9498 26.179 86.0061 24.9604 85.6813C23.3148 84.97 22.4654 83.231 21.6599 81.7351C21.4526 81.3568 21.2452 80.9787 21.0375 80.6007C20.9353 80.414 20.833 80.2272 20.7277 80.0347C20.2127 79.106 19.673 78.1915 19.1281 77.28C18.4027 76.048 17.9745 74.9145 18.3041 73.4756C18.6872 72.2155 19.2655 71.4692 20.4258 70.8094C21.5378 70.3893 22.6238 70.4169 23.8022 70.4178C24.1172 70.4167 24.1172 70.4167 24.4386 70.4156C24.8818 70.4146 25.3251 70.4145 25.7683 70.4152C26.4436 70.4158 27.1189 70.4118 27.7942 70.4075C28.226 70.4071 28.6577 70.407 29.0895 70.4071C29.29 70.4056 29.4906 70.404 29.6973 70.4024C31.1231 70.4103 32.5489 70.5299 33.6427 71.5534C34.5219 72.613 34.8213 73.6435 34.7704 75.0056C34.7238 75.4052 34.7238 75.4052 34.5536 75.9158C35.2875 76.0551 36.0216 76.193 36.7558 76.3307C36.9621 76.3699 37.1685 76.4091 37.3811 76.4494C46.0332 78.0673 55.0903 76.235 62.3752 71.2697C69.9659 65.9773 74.8559 58.2445 76.602 49.1622C78.0497 40.7705 76.0418 32.1924 71.4902 25.0642C70.8873 24.0844 70.8478 23.0899 70.9796 21.9577C71.3865 20.7161 71.9992 19.849 73.1658 19.2409C74.5027 18.6627 75.8203 18.7377 77.1073 19.4045Z" fill="#020100"/>
<path d="M75.2184 21.34C76.4861 21.7201 77.1637 23.432 77.7882 24.5109C77.8973 24.6966 78.0063 24.8822 78.1187 25.0735C80.285 28.9335 81.6952 33.2442 82.3342 37.6196C82.3824 37.9471 82.436 38.2737 82.4897 38.6002C83.0387 42.3937 82.8267 46.2736 82.2138 50.0432C82.1937 50.1809 82.1736 50.3187 82.153 50.4606C81.6139 54.1292 80.3068 58.0726 78.4755 61.3036C78.2763 61.6579 78.0864 62.0164 77.8966 62.3758C77.0116 64.0332 76.033 65.5706 74.8946 67.0647C74.7244 67.2891 74.7244 67.2891 74.5508 67.5181C73.651 68.6726 72.6678 69.7491 71.6605 70.8094C71.5742 70.9006 71.4879 70.9917 71.399 71.0857C70.053 72.498 68.6304 73.7325 67.0647 74.8945C66.9679 74.9676 66.8712 75.0406 66.7715 75.1159C65.2431 76.2676 63.6479 77.2327 61.9582 78.1286C61.8499 78.187 61.7416 78.2453 61.63 78.3054C52.7373 83.0699 42.1697 84.0076 32.5111 81.1925C31.8401 80.9745 31.1755 80.7419 30.5193 80.4825C29.8549 80.2245 29.3083 80.0632 28.5961 80.1712C28.2097 80.5241 28.1009 80.7508 28.0223 81.267C28.0186 81.4109 28.0149 81.5548 28.011 81.7031C27.9675 82.2607 27.943 82.5105 27.6387 82.9904C27.0765 83.3306 26.702 83.4166 26.0429 83.4053C25.016 82.7381 24.5487 81.8278 23.979 80.767C23.7867 80.4158 23.594 80.0647 23.4012 79.7138C23.3039 79.5356 23.2066 79.3574 23.1063 79.1739C22.8165 78.6531 22.5166 78.1402 22.2111 77.6286C22.1166 77.4692 22.0222 77.3098 21.9249 77.1456C21.7452 76.8433 21.5637 76.542 21.3802 76.242C20.9071 75.4373 20.5765 74.8324 20.7662 73.8733C21.0489 73.4414 21.1788 73.266 21.6173 73.0222C22.3416 72.8927 23.0587 72.903 23.7929 72.9091C24.005 72.9083 24.2171 72.9075 24.4357 72.9067C24.9984 72.906 25.561 72.9094 26.1237 72.9141C26.4682 72.9158 26.8124 72.9141 27.1569 72.9112C27.8193 72.906 28.4815 72.9066 29.144 72.9091C29.3492 72.9074 29.5543 72.9057 29.7657 72.9039C31.3472 72.9261 31.3472 72.9261 31.8744 73.4328C32.2478 73.988 32.2833 74.2625 32.2458 74.9092C32.132 75.4026 31.8113 75.7043 31.4898 76.086C31.3917 76.7663 31.3917 76.7663 31.6726 77.3666C32.1459 77.7295 32.6704 77.8764 33.2345 78.0435C33.3561 78.0802 33.4777 78.117 33.603 78.1548C34.6975 78.4766 35.7983 78.7282 36.9235 78.9191C37.1675 78.9609 37.4112 79.0048 37.6546 79.0503C41.2564 79.7178 45.0701 79.7891 48.6815 79.1499C48.9811 79.1017 49.2808 79.0536 49.5804 79.0056C57.0792 77.7655 63.9033 74.1151 69.2775 68.7668C69.3678 68.6771 69.4582 68.5875 69.5512 68.4951C76.0485 61.9628 79.565 52.5727 79.5648 43.4367C79.5324 37.4107 78.0616 28.1886 73.5328 23.6599C73.4435 22.938 73.4158 22.3279 73.7882 21.6918C74.2669 21.4165 74.6686 21.3586 75.2184 21.34Z" fill="#F9CA54"/>
<path d="M60.5859 3.63834C61.2828 3.78058 61.6648 4.07612 62.1284 4.59579C62.6129 5.33197 63.0351 6.1002 63.4582 6.87242C63.698 7.30411 63.9389 7.73518 64.1797 8.16632C64.238 8.27124 64.2963 8.37616 64.3563 8.48426C64.68 9.06442 65.0139 9.63466 65.3698 10.1956C65.4422 10.3098 65.5145 10.4241 65.589 10.5418C65.772 10.8263 65.9581 11.1088 66.1444 11.3911C66.4713 12.1066 66.49 12.4927 66.3838 13.2768C66.0886 13.7369 66.0886 13.7369 65.5327 14.1278C64.8082 14.2565 64.0914 14.247 63.3572 14.2409C63.145 14.2417 62.9329 14.2425 62.7144 14.2433C62.1516 14.2441 61.589 14.2406 61.0263 14.2359C60.6819 14.2342 60.3376 14.2359 59.9932 14.2388C59.3307 14.244 58.6685 14.2434 58.006 14.2409C57.8009 14.2426 57.5957 14.2443 57.3843 14.2461C55.8028 14.2239 55.8028 14.2239 55.2757 13.7172C54.9022 13.162 54.8667 12.8875 54.9043 12.2408C55.0181 11.7474 55.3388 11.4457 55.6603 11.064C55.7596 10.5388 55.7596 10.5388 55.6603 10.0427C55.3062 9.60002 54.982 9.4368 54.4448 9.2767C54.306 9.23485 54.1672 9.19299 54.0242 9.14987C53.8019 9.08627 53.8019 9.08627 53.5751 9.02138C53.4219 8.97678 53.2687 8.93219 53.1108 8.88624C51.8144 8.51638 50.5248 8.21169 49.1921 8.00009C48.9747 7.9652 48.7572 7.93032 48.5332 7.89437C39.1485 6.55593 29.6586 9.1739 22.0535 14.7342C14.2604 20.8066 9.05897 29.4345 7.80862 39.2983C6.84566 47.7763 8.88422 56.3907 13.6172 63.4901C13.7115 64.325 13.746 64.6646 13.2661 65.3625C12.6337 65.7931 12.3256 65.837 11.5746 65.7029C9.89817 64.2324 8.93802 61.9032 8.00011 59.9156C7.91279 59.7311 7.82546 59.5466 7.73548 59.3564C7.16639 58.0906 6.70979 56.7936 6.26605 55.4794C6.20933 55.3124 6.15261 55.1454 6.09417 54.9734C4.16823 49.1452 3.95726 42.7902 4.93625 36.7664C4.96772 36.5693 4.96772 36.5693 4.99983 36.3681C6.2575 28.9197 10.1101 21.811 15.378 16.4574C15.6481 16.1823 15.9142 15.9039 16.1797 15.6245C17.3859 14.3692 18.6917 13.2956 20.0854 12.2555C20.1778 12.1849 20.2703 12.1143 20.3655 12.0416C28.4847 5.851 38.9405 3.44923 48.9817 4.76995C51.5564 5.11952 53.9437 5.65253 56.3652 6.60467C57.2132 6.92477 57.8204 7.07226 58.7241 6.80859C59.0883 6.26227 59.0996 6.09705 59.1178 5.46815C59.1726 4.82178 59.2212 4.61517 59.6071 4.06387C60.0859 3.74472 60.0859 3.74472 60.5859 3.63834Z" fill="#64D1ED"/>
<path d="M48.341 19.9151C48.6814 20.0853 48.6814 20.0853 48.8406 20.4657C48.8952 20.6341 48.9499 20.8024 49.0062 20.9758C49.0687 21.1663 49.1312 21.3568 49.1956 21.5531C49.2625 21.7612 49.3293 21.9693 49.3982 22.1838C49.4685 22.3996 49.5389 22.6154 49.6094 22.8312C49.7955 23.4019 49.9801 23.9732 50.1643 24.5446C50.3129 25.0044 50.4625 25.4638 50.6122 25.9233C52.4873 31.678 52.4873 31.678 52.7666 32.8515C52.5735 32.9322 52.3804 33.0129 52.1815 33.0961C51.6164 33.3002 51.6164 33.3002 51.4049 33.5323C51.4743 34.571 51.7341 35.4236 52.1263 36.3821C52.1811 36.5197 52.2359 36.6573 52.2924 36.7991C52.4667 37.2356 52.6432 37.6712 52.8198 38.1068C52.9364 38.3978 53.0529 38.6888 53.1692 38.9799C53.7599 40.4557 53.7599 40.4557 54.362 41.9269C54.4242 42.078 54.4864 42.2291 54.5505 42.3848C54.6019 42.5075 54.6533 42.6302 54.7062 42.7566C54.8092 43.0644 54.8092 43.0644 54.8092 43.575C54.6183 43.5845 54.6183 43.5845 54.4235 43.5943C54.2559 43.6055 54.0883 43.6167 53.9156 43.6282C53.6667 43.643 53.6667 43.643 53.4129 43.6581C52.732 43.7823 52.732 43.7823 52.256 44.2559C52.3038 45.4892 52.6454 46.4984 53.1024 47.6362C53.1707 47.8107 53.239 47.9852 53.3094 48.1649C53.5274 48.7208 53.748 49.2756 53.9687 49.8304C54.1124 50.1949 54.2559 50.5595 54.3993 50.9242C54.6118 51.4646 54.8244 52.0049 55.0375 52.5451C55.5124 53.7491 55.9831 54.9546 56.4468 56.1629C56.5053 56.314 56.5637 56.465 56.6239 56.6206C56.7029 56.8276 56.7029 56.8276 56.7836 57.0388C56.853 57.2197 56.853 57.2197 56.9238 57.4043C57.022 57.7028 57.022 57.7028 57.022 58.0433C51.4049 58.0433 45.7878 58.0433 40.0005 58.0433C40.1166 57.3467 40.2063 56.857 40.4497 56.2257C40.5066 56.0766 40.5635 55.9275 40.6222 55.7738C40.6841 55.6148 40.7459 55.4558 40.8097 55.2919C40.9065 55.0398 40.9065 55.0398 41.0052 54.7826C41.212 54.245 41.4201 53.708 41.6282 53.1709C41.7636 52.8189 41.8989 52.467 42.0341 52.115C42.1685 51.7661 42.3029 51.4173 42.4374 51.0684C42.5035 50.8962 42.5697 50.7241 42.6379 50.5466C42.9599 49.7135 43.2892 48.8852 43.6387 48.0632C43.7023 47.9117 43.7659 47.7602 43.8314 47.6041C43.9496 47.3238 44.0702 47.0445 44.1938 46.7665C44.6073 45.7809 44.6476 44.9831 44.5963 43.9154C43.8099 43.8031 43.0235 43.6907 42.2133 43.575C42.4048 42.426 42.4048 42.426 42.6291 41.8473C42.6786 41.7183 42.728 41.5893 42.779 41.4564C42.8323 41.3202 42.8857 41.184 42.9407 41.0437C42.9959 40.9006 43.0511 40.7576 43.108 40.6102C43.284 40.1548 43.4614 39.7 43.6388 39.2452C43.7568 38.9401 43.8747 38.635 43.9926 38.3299C44.1064 38.0359 44.2203 37.7419 44.3343 37.4479C44.387 37.3121 44.4397 37.1762 44.494 37.0362C44.7267 36.4396 44.9645 35.8485 45.2257 35.2637C45.4826 34.6381 45.5247 34.2024 45.4474 33.5323C45.1229 33.0456 44.8071 32.9767 44.2559 32.8515C44.5343 31.4211 44.9905 30.0557 45.4487 28.6752C45.5322 28.4217 45.6157 28.1682 45.6991 27.9147C45.9173 27.2522 46.1363 26.5899 46.3556 25.9277C46.5798 25.2501 46.8031 24.5721 47.0265 23.8942C47.4639 22.5676 47.9021 21.2413 48.341 19.9151Z" fill="#C4E892"/>
<path d="M30.9791 19.2343C31.3195 19.4045 31.3195 19.4045 31.4509 19.6983C31.4925 19.8258 31.5341 19.9534 31.5769 20.0849C31.6246 20.2292 31.6723 20.3736 31.7214 20.5223C31.7718 20.6793 31.8222 20.8364 31.874 20.9983C31.9265 21.1589 31.9789 21.3195 32.0329 21.4849C32.1436 21.8254 32.2538 22.1662 32.3633 22.5071C32.5312 23.0288 32.7015 23.5496 32.8721 24.0704C32.9793 24.401 33.0863 24.7315 33.1932 25.0621C33.2443 25.2182 33.2953 25.3742 33.3479 25.535C33.3945 25.681 33.4412 25.8269 33.4892 25.9773C33.5305 26.1053 33.5718 26.2333 33.6143 26.3651C33.7025 26.7237 33.7025 26.7237 33.7025 27.4046C33.5287 27.5047 33.5287 27.5047 33.3515 27.6067C33.2426 27.7085 33.1338 27.8103 33.0217 27.9152C33.0217 29.4318 33.664 30.7777 34.2238 32.16C34.3689 32.5223 34.5135 32.8849 34.6575 33.2477C34.7467 33.4721 34.8366 33.6963 34.9274 33.92C35.2345 34.6863 35.2345 34.6863 35.2345 35.0643C34.8909 35.1363 34.5474 35.2083 34.2039 35.2804C33.8097 35.3916 33.8097 35.3916 33.5323 35.9153C33.5828 36.9256 33.9315 37.7927 34.3029 38.7199C34.3623 38.8711 34.4217 39.0223 34.4829 39.1781C34.672 39.6584 34.8628 40.1379 35.0536 40.6175C35.1813 40.9411 35.3088 41.2646 35.4363 41.5883C35.6701 42.1816 35.9046 42.7746 36.14 43.3673C36.2147 43.5565 36.2147 43.5565 36.291 43.7495C36.4011 44.0238 36.5173 44.2956 36.6351 44.5666C36.7664 44.9367 36.7664 44.9367 36.7664 45.6176C33.0029 45.6176 29.2395 45.6176 25.362 45.6176C25.7069 44.4678 26.0662 43.3805 26.5183 42.2765C26.6408 41.971 26.7633 41.6655 26.8856 41.3599C27.0761 40.8862 27.2673 40.4129 27.4606 39.9404C27.6489 39.4788 27.8338 39.0161 28.0183 38.553C28.1052 38.3439 28.1052 38.3439 28.1939 38.1306C28.5689 37.1796 28.6516 36.4266 28.5961 35.4047C28.0905 35.2924 27.585 35.18 27.0641 35.0643C27.3449 33.4751 27.9948 32.0703 28.643 30.6001C28.7264 30.4035 28.8099 30.2069 28.896 30.0044C28.9731 29.8278 29.0503 29.6513 29.1298 29.4694C29.308 28.8239 29.2721 28.3912 29.1067 27.745C28.9382 27.6327 28.7697 27.5203 28.5961 27.4046C28.6885 26.2505 29.007 25.2644 29.4046 24.1812C29.99 22.5469 30.5124 20.906 30.9791 19.2343Z" fill="#ACDE67"/>
<path d="M56.0007 26.0429C56.2837 26.4674 56.4288 26.7525 56.5856 27.223C56.6304 27.3565 56.6752 27.49 56.7214 27.6276C56.7922 27.8431 56.7922 27.8431 56.8644 28.0628C56.9134 28.2112 56.9625 28.3596 57.013 28.5125C57.1163 28.8263 57.2191 29.1402 57.3215 29.4542C57.4786 29.9342 57.6387 30.4131 57.7989 30.892C57.8989 31.1971 57.9988 31.5023 58.0984 31.8076C58.1466 31.9505 58.1949 32.0934 58.2445 32.2407C58.6523 33.5106 58.6523 33.5106 58.3837 34.2132C58.2924 34.2869 58.2011 34.3606 58.1071 34.4366C57.8033 34.7428 57.8033 34.7428 57.9145 35.346C58.0168 36.0469 58.2328 36.6569 58.5067 37.3116C58.5518 37.4214 58.5969 37.5312 58.6433 37.6444C58.7857 37.9907 58.9302 38.3361 59.0752 38.6813C59.2206 39.0291 59.3654 39.377 59.5088 39.7256C59.6383 40.0401 59.7696 40.3539 59.901 40.6676C60.0858 41.192 60.0858 41.192 60.0858 41.8729C59.8015 41.9045 59.8015 41.9045 59.5114 41.9367C58.889 41.9829 58.889 41.9829 58.5539 42.3835C58.4345 43.4455 58.7542 44.258 59.1377 45.2253C59.1973 45.3803 59.257 45.5352 59.3184 45.6949C59.5085 46.1876 59.7014 46.6792 59.8943 47.1708C60.0228 47.5025 60.1512 47.8343 60.2793 48.1662C60.5147 48.7746 60.7509 49.3826 60.9887 49.9901C61.039 50.1192 61.0893 50.2483 61.1412 50.3813C61.2514 50.6587 61.3681 50.9335 61.4869 51.2073C61.6178 51.5751 61.6178 51.5751 61.6178 52.256C60.2135 52.256 58.8092 52.256 57.3624 52.256C57.0464 51.4657 56.731 50.6752 56.417 49.8841C56.31 49.6151 56.2026 49.3461 56.095 49.0773C55.9404 48.691 55.7869 48.3043 55.6336 47.9175C55.561 47.7371 55.561 47.7371 55.487 47.5531C55.2895 47.0519 55.1496 46.6722 55.1496 46.1282C55.2769 46.1238 55.4041 46.1195 55.5352 46.1149C56.5562 46.0643 56.5562 46.0643 57.4901 45.6921C57.8022 45.0834 57.6753 44.56 57.5326 43.9154C57.3215 43.2687 57.0669 42.6423 56.8085 42.0132C56.737 41.8349 56.6654 41.6567 56.5917 41.4731C56.3643 40.9071 56.1348 40.3421 55.9049 39.7771C55.6747 39.209 55.445 38.6407 55.2163 38.0719C55.0742 37.7188 54.9312 37.3661 54.7872 37.0137C54.6909 36.775 54.6909 36.775 54.5927 36.5315C54.5358 36.3916 54.4788 36.2517 54.4202 36.1075C54.2985 35.7451 54.2985 35.7451 54.2985 35.2345C54.4354 35.1853 54.5724 35.1362 54.7134 35.0855C55.1722 34.9396 55.1722 34.9396 55.3198 34.5536C55.3871 33.626 55.2113 32.9933 54.8624 32.1387C54.3924 30.8547 54.5081 30.0279 54.9794 28.7663C55.0541 28.5373 55.1276 28.3079 55.2001 28.0781C55.7782 26.2653 55.7782 26.2653 56.0007 26.0429Z" fill="#ABDD67"/>
</svg>
