<svg width="88" height="88" viewBox="0 0 88 88" fill="none" xmlns="http://www.w3.org/2000/svg">
<g clip-path="url(#clip0_21_289)">
<path d="M50.5516 0.680913C50.6949 0.717389 50.8383 0.753866 50.986 0.791448C57.5472 2.49467 63.2183 6.47167 67.2319 11.9146C67.3039 12.0113 67.3759 12.1079 67.45 12.2075C71.8479 18.1927 73.5267 26.0736 72.4764 33.382C72.3862 33.9452 72.282 34.504 72.1679 35.0628C72.1282 35.2604 72.1282 35.2604 72.0877 35.462C71.1543 39.893 69.0831 44.2874 66.0405 47.6582C65.9187 47.7982 65.7969 47.9382 65.6715 48.0824C60.3762 54.0993 53.2906 57.6577 45.2752 58.2111C38.2938 58.5801 31.4142 56.5192 25.8715 52.2538C25.7151 52.1355 25.5586 52.0173 25.3974 51.8954C19.751 47.4631 16.1689 41.223 14.808 34.2118C14.7663 34.0102 14.7246 33.8085 14.6817 33.6008C13.7244 27.9816 14.5096 21.0086 17.4781 16.0315C17.8717 15.489 17.8717 15.489 18.3824 15.1486C18.7793 15.1351 19.177 15.1336 19.5738 15.1486C19.7544 14.8527 19.931 14.5543 20.1057 14.255C20.2538 14.0062 20.2538 14.0062 20.4049 13.7523C20.6485 13.2954 20.6485 13.2954 20.4608 12.9039C20.3587 12.7512 20.3587 12.7512 20.2546 12.5954C20.1599 12.0744 20.1649 11.7325 20.4295 11.2657C20.6964 10.899 20.9795 10.5558 21.2759 10.2125C21.3931 10.0767 21.5102 9.94091 21.6309 9.80098C22.0167 9.36441 22.4104 8.93653 22.8078 8.51046C22.919 8.38803 23.0302 8.2656 23.1449 8.13946C26.8996 4.17412 32.0365 1.7763 37.2754 0.510705C37.3978 0.48018 37.5203 0.449655 37.6464 0.418205C41.6768 -0.539019 46.5691 -0.370098 50.5516 0.680913Z" fill="#161717"/>
<path d="M30.9893 60.9051C31.1927 60.9025 31.3962 60.8999 31.6059 60.8973C32.4968 60.9558 33.1796 61.224 33.8713 61.7853C34.8767 62.9617 35.1263 63.9497 35.1093 65.4794C35.0211 66.5423 34.6072 67.2321 33.85 67.966C32.3995 69.0678 30.324 69.1701 28.5736 69.4766C28.3107 69.5234 28.0479 69.5702 27.7851 69.6172C27.1474 69.7309 26.5095 69.8435 25.8716 69.9553C25.629 70.6344 25.4629 71.2838 25.3609 71.9978C25.5551 72.0691 25.7492 72.1404 25.9493 72.2138C26.6681 72.4779 27.3869 72.7422 28.1056 73.0065C28.417 73.121 28.7283 73.2354 29.0398 73.3498C29.4868 73.5139 29.9338 73.6783 30.3807 73.8428C30.5204 73.8941 30.6602 73.9453 30.8041 73.9981C31.7901 74.3613 31.7901 74.3613 32.1692 74.5509C32.1131 74.4105 32.0569 74.2701 31.999 74.1254C31.6563 72.9257 31.7797 72.003 32.273 70.8741C32.8606 69.8607 33.7675 69.2372 34.85 68.8337C36.0104 68.6221 36.9395 68.8155 38.0261 69.2047C38.1574 69.2496 38.2886 69.2945 38.4238 69.3408C38.8396 69.4834 39.2543 69.6287 39.669 69.7744C40.0844 69.9192 40.5 70.0633 40.916 70.2063C41.1737 70.2949 41.431 70.3846 41.6878 70.4756C43.0262 70.9385 43.9763 71.0441 45.3091 70.5524C45.5025 70.4846 45.5025 70.4846 45.6998 70.4155C46.1088 70.2716 46.5164 70.1242 46.9241 69.9766C47.3338 69.831 47.7438 69.6861 48.1539 69.5413C48.4081 69.4512 48.6622 69.3605 48.916 69.2691C50.46 68.7147 51.669 68.5342 53.2071 69.2086C54.2893 69.8343 54.9134 70.7808 55.2443 71.9699C55.4358 72.934 55.2971 73.6391 54.977 74.5509C55.2034 74.4621 55.2034 74.4621 55.4344 74.3715C56.002 74.1491 56.5699 73.9276 57.1379 73.7063C57.3823 73.611 57.6265 73.5154 57.8707 73.4196C59.217 72.8915 60.5577 72.3762 61.9556 71.9978C61.8994 71.8187 61.8432 71.6397 61.7853 71.4552C61.6405 70.9032 61.5997 70.5145 61.6151 69.9553C61.4781 69.9322 61.341 69.9091 61.1998 69.8853C60.6789 69.7972 60.158 69.7086 59.6371 69.6197C59.3059 69.5634 58.9745 69.5075 58.6432 69.4517C57.55 69.2648 56.4595 69.068 55.3726 68.8476C55.1841 68.8094 54.9956 68.7712 54.8013 68.7318C53.6665 68.4213 53.0052 67.7883 52.4239 66.7852C51.9222 65.6487 51.872 64.5463 52.2225 63.3558C52.7011 62.2451 53.3983 61.6466 54.4664 61.1045C56.7102 60.3566 59.8484 61.0489 62.1568 61.2065C62.735 61.2459 63.3132 61.2836 63.8915 61.3209C64.4528 61.3572 65.014 61.3952 65.5751 61.433C65.7794 61.4461 65.9837 61.4592 66.1942 61.4728C69.6766 61.7151 69.6766 61.7151 71.1787 62.4981C71.2876 62.5544 71.3966 62.6107 71.5089 62.6688C72.8427 63.3754 74.1279 64.175 75.4094 64.9715C75.9126 65.2809 76.4197 65.5795 76.9338 65.8703C77.0645 65.9447 77.1952 66.0191 77.3298 66.0957C78.7302 66.7737 80.2863 66.6419 81.806 66.6362C82.365 66.6342 82.9238 66.6366 83.4828 66.6416C83.6082 66.6396 83.7336 66.6377 83.8628 66.6357C84.9348 66.646 85.7367 66.9405 86.5657 67.6258C87.4226 68.5828 87.2662 69.8482 87.2533 71.057C87.2534 71.2971 87.2539 71.5372 87.2546 71.7772C87.255 72.2787 87.2526 72.7801 87.2479 73.2815C87.2421 73.9224 87.2431 74.563 87.2463 75.2038C87.2481 75.699 87.2465 76.1942 87.244 76.6893C87.2431 76.9255 87.2432 77.1618 87.2443 77.398C87.2507 79.6788 87.2507 79.6788 86.4654 80.5082C85.7278 81.158 85.3638 81.3813 84.3906 81.3409C80.076 81.2596 76.0753 82.3607 71.9246 83.4343C70.9702 83.68 70.0145 83.9202 69.0587 84.1606C67.9446 84.4413 66.8305 84.7223 65.717 85.0053C63.7078 85.5159 61.6982 86.0248 59.682 86.507C59.4424 86.5644 59.203 86.6224 58.9637 86.6808C56.5052 87.2805 54.082 87.6565 51.7431 86.4654C51.6346 86.4114 51.5261 86.3574 51.4143 86.3018C46.1236 83.6552 46.1236 83.6552 44.1704 82.2444C43.7538 81.9887 43.7538 81.9887 43.3189 82.1497C43.1782 82.2259 43.0374 82.302 42.8923 82.3804C42.7527 82.4513 42.6131 82.5222 42.4693 82.5952C42.3221 82.6753 42.175 82.7554 42.0233 82.8379C41.8573 82.928 41.6914 83.018 41.5204 83.1108C41.3447 83.2068 41.1691 83.3028 40.9881 83.4017C40.8069 83.5002 40.6256 83.5987 40.4389 83.7002C39.5938 84.1603 38.7505 84.6234 37.9111 85.0938C37.7081 85.2075 37.7081 85.2075 37.501 85.3235C37.2537 85.4625 37.0068 85.602 36.7604 85.7424C33.4284 87.6187 30.4692 87.3139 26.8622 86.393C26.538 86.3132 26.2137 86.2337 25.8893 86.1545C25.0391 85.9462 24.1901 85.7334 23.3413 85.5195C22.5046 85.3095 21.6668 85.1036 20.8292 84.8973C18.2948 84.272 15.7605 83.6463 13.2317 82.9992C12.5424 82.8233 11.8526 82.6497 11.1627 82.4764C10.8393 82.3945 10.5161 82.3117 10.1933 82.2278C7.71592 81.5839 5.41883 81.3272 2.85697 81.3971C1.95349 81.4011 1.51404 81.2935 0.851047 80.6784C0.169585 79.9048 -0.0209106 79.5057 -0.030118 78.4828C-0.0323027 78.272 -0.0344873 78.0612 -0.0367382 77.844C-0.0381287 77.6126 -0.0393956 77.3813 -0.0405482 77.1499C-0.0412419 77.0334 -0.0419346 76.9169 -0.0426493 76.7968C-0.046201 76.1797 -0.0486353 75.5625 -0.0502304 74.9453C-0.0521093 74.3096 -0.0579594 73.674 -0.0647278 73.0384C-0.0691925 72.5482 -0.0706029 72.058 -0.0712129 71.5678C-0.0720389 71.3336 -0.0740113 71.0994 -0.0771786 70.8653C-0.10626 68.5718 -0.106259 68.5718 0.680839 67.5724C1.65059 66.8203 2.38618 66.698 3.58035 66.6914C3.85794 66.6875 4.13552 66.6834 4.4131 66.6791C4.84854 66.6732 5.2839 66.6682 5.71937 66.6659C8.05253 66.6688 8.05253 66.6688 10.2125 65.8703C10.3965 65.7678 10.5805 65.6654 10.7702 65.5598C11.4062 65.1986 12.0329 64.8225 12.6592 64.4448C15.0079 63.0336 15.0079 63.0336 16.2083 62.3957C16.3537 62.3181 16.4991 62.2405 16.6488 62.1606C18.1812 61.581 19.8453 61.5327 21.4648 61.433C21.6926 61.4182 21.9204 61.4035 22.1482 61.3886C22.6231 61.3579 23.098 61.3279 23.5729 61.2986C24.1739 61.2613 24.7748 61.2224 25.3757 61.183C25.8456 61.1523 26.3156 61.1224 26.7855 61.0927C27.1124 61.072 27.4392 61.0507 27.7659 61.0294C28.8401 60.9637 29.9132 60.9174 30.9893 60.9051Z" fill="#171717"/>
<path d="M48.3389 3.23396C48.1118 3.99733 47.807 4.62679 47.3935 5.30637C47.3351 5.4033 47.2768 5.50022 47.2166 5.60009C47.0314 5.90767 46.8449 6.21446 46.6581 6.52109C44.8598 9.29483 44.8598 9.29483 44.6628 12.479C44.9534 13.5709 45.5925 14.4408 46.4666 15.1485C47.5198 15.7401 48.4286 15.9284 49.6254 15.9211C49.7736 15.9231 49.9217 15.9251 50.0744 15.9272C50.542 15.9331 51.0095 15.9347 51.4771 15.9357C51.949 15.9385 52.4208 15.9422 52.8926 15.9479C53.1849 15.9512 53.4772 15.9528 53.7695 15.9525C54.7688 15.9615 54.7688 15.9615 55.1472 16.3399C55.0834 16.8718 55.0834 16.8718 54.977 17.3612C54.7866 17.3637 54.5962 17.3662 54.4001 17.3687C53.6844 17.3787 52.9687 17.3918 52.2531 17.4059C51.9451 17.4115 51.6371 17.4163 51.3291 17.4202C48.119 17.4619 45.5342 17.8774 43.1123 20.1723C42.0251 21.3503 41.38 22.6161 41.02 24.1695C40.9886 24.2724 40.9572 24.3753 40.9249 24.4813C40.6459 25.8517 40.7432 27.4464 41.1902 28.7651C41.2339 28.8989 41.2775 29.0328 41.3225 29.1707C42.0727 31.2765 43.6435 32.8966 45.605 33.9351C46.6946 34.4442 47.7161 34.6442 48.9007 34.7928C50.1915 34.9653 50.988 35.0982 51.8814 36.084C52.2197 36.6539 52.2747 37.1885 52.2751 37.843C52.2758 37.9874 52.2764 38.1318 52.2771 38.2806C52.2773 38.4355 52.2774 38.5905 52.2776 38.7502C52.2807 39.0815 52.2841 39.4128 52.2876 39.7441C52.2925 40.264 52.2962 40.7838 52.2963 41.3037C52.2969 41.8072 52.3028 42.3104 52.3095 42.8139C52.3077 43.0432 52.3077 43.0432 52.3059 43.2772C52.33 44.5521 52.6986 45.6863 53.5886 46.6286C54.6895 47.6201 55.5997 47.7513 57.07 47.71C58.2286 47.6147 58.8874 47.2 59.7003 46.3922C60.3485 45.5888 60.5935 44.7391 60.845 43.7493C60.941 43.377 61.044 43.0071 61.1484 42.637C61.373 41.8363 61.5887 41.0334 61.8027 40.2298C61.9068 39.8404 62.0121 39.4512 62.1183 39.0624C63.9609 32.3051 65.3907 25.4124 66.4705 18.4929C66.5511 18.042 66.5511 18.042 66.7213 17.5314C66.8337 17.5314 66.946 17.5314 67.0617 17.5314C70.1291 24.1788 70.5694 31.38 68.0697 38.3107C67.6406 39.4413 67.123 40.5169 66.5421 41.5766C66.3935 41.8481 66.2503 42.1224 66.1077 42.397C64.2472 45.8193 61.274 48.7619 58.0407 50.8921C57.9305 50.9649 57.8202 51.0377 57.7066 51.1126C54.8987 52.9327 51.8024 54.2096 48.5091 54.8068C48.2228 54.8638 48.2228 54.8638 47.9307 54.9219C43.7272 55.6289 39.4486 55.1826 35.4031 53.9558C35.4846 53.6827 35.5662 53.4097 35.6478 53.1367C35.6932 52.9846 35.7386 52.8326 35.7854 52.6759C35.8804 52.3636 35.9807 52.0528 36.084 51.7431C36.1016 51.425 36.1093 51.1062 36.1114 50.7876C36.113 50.5915 36.1147 50.3955 36.1164 50.1935C36.1171 49.9812 36.1178 49.769 36.1185 49.5504C36.1195 49.3318 36.1205 49.1133 36.1215 48.8881C36.1233 48.4248 36.1243 47.9615 36.1249 47.4982C36.1258 46.9082 36.1299 46.3183 36.1347 45.7283C36.1387 45.1619 36.139 44.5956 36.1398 44.0293C36.143 43.714 36.143 43.714 36.1462 43.3924C36.1409 41.3485 35.6452 39.8543 34.2709 38.324C33.3793 37.5199 32.3555 37.1811 31.2437 36.7861C29.561 36.1847 28.5237 35.4636 27.3575 34.1007C26.3669 32.9515 25.6499 32.2865 24.1136 32.1008C22.7578 32.0406 21.6985 32.2036 20.5951 33.0203C19.7437 33.8032 19.1277 34.747 18.5526 35.7436C17.9421 35.1075 17.8767 34.4122 17.7547 33.5735C17.7222 33.3607 17.7222 33.3607 17.689 33.1437C17.4978 31.7921 17.4806 30.4685 17.5313 29.1055C17.6668 29.1039 17.8023 29.1023 17.9418 29.1007C18.5639 29.0915 19.1859 29.0772 19.8079 29.063C20.0209 29.0605 20.234 29.0581 20.4535 29.0556C22.3528 29.0059 23.9681 28.5888 25.3609 27.2332C26.2364 26.0993 26.5848 25.0482 26.6474 23.6276C26.8238 22.5021 27.5097 21.7533 28.2438 20.9355C28.4438 20.7089 28.6437 20.4822 28.8435 20.2554C28.9948 20.0846 28.9948 20.0846 29.1492 19.9104C29.5974 19.4021 30.0378 18.8873 30.4778 18.3718C30.9955 17.7651 31.5146 17.1599 32.0402 16.56C34.121 14.2559 34.121 14.2559 34.7735 11.3062C34.5976 9.88774 33.9768 9.01138 32.9039 8.10083C32.0923 7.54243 31.391 7.43756 30.4139 7.38277C30.2004 7.37004 29.987 7.35732 29.767 7.34421C29.6049 7.33587 29.4427 7.32753 29.2757 7.31894C29.9106 6.56342 30.7339 6.17132 31.5947 5.72325C31.7531 5.64064 31.9115 5.55803 32.0747 5.47292C33.5376 4.72962 35.019 4.19134 36.5946 3.74458C36.7736 3.69105 36.9527 3.63751 37.1371 3.58236C40.7984 2.56754 44.6113 2.78982 48.3389 3.23396Z" fill="#1288E8"/>
<path d="M31.8288 63.9981C32.1692 64.5087 32.1692 64.5087 32.1266 65.03C31.999 65.53 31.999 65.53 31.6586 65.8704C31.162 65.9777 30.6731 66.0673 30.1719 66.1463C29.8674 66.1972 29.5629 66.248 29.2584 66.2989C28.7781 66.3774 28.2978 66.4554 27.8174 66.533C27.3538 66.6084 26.8906 66.6858 26.4273 66.7633C26.2848 66.7857 26.1422 66.808 25.9953 66.8311C24.8814 67.0183 23.886 67.3063 23.1655 68.2453C22.4378 69.5975 22.3022 71.344 22.4674 72.8489C22.7497 73.6812 23.1162 74.0549 23.829 74.551C24.4084 74.8271 25.0033 75.0575 25.6022 75.2877C25.7746 75.3547 25.9469 75.4217 26.1244 75.4908C26.4885 75.6318 26.8529 75.7719 27.2176 75.9113C27.772 76.124 28.3245 76.3413 28.8771 76.5589C29.2321 76.6957 29.5873 76.8322 29.9425 76.9685C30.1061 77.0333 30.2696 77.0982 30.4381 77.1651C32.1798 77.82 33.5049 77.713 35.2389 77.1028C35.399 77.0487 35.5592 76.9947 35.7241 76.9391C36.2456 76.7625 36.7658 76.5823 37.2861 76.402C37.6492 76.2783 38.0123 76.1548 38.3756 76.0315C39.3039 75.7158 40.2312 75.3972 41.1583 75.0779C42.0111 74.7847 42.8649 74.4943 43.7187 74.2039C44.7607 73.8493 45.8024 73.4941 46.8434 73.1367C47.2262 73.0054 47.6092 72.8748 47.9922 72.7442C48.4258 72.5962 48.8577 72.445 49.2893 72.2914C49.5574 72.1975 49.5574 72.1975 49.8309 72.1016C49.9806 72.048 50.1303 71.9944 50.2845 71.9392C50.7887 71.8106 51.2246 71.7959 51.7431 71.8277C52.0622 72.0191 52.0622 72.0191 52.2537 72.3383C52.3388 72.8276 52.3388 72.8276 52.2537 73.3595C51.5336 74.2619 50.561 74.7063 49.5516 75.2318C49.1814 75.4283 48.8112 75.6251 48.4413 75.8222C48.2535 75.9221 48.0658 76.0219 47.8723 76.1247C47.0273 76.5796 46.1937 77.0539 45.3603 77.5296C44.0287 78.2878 42.6886 79.0271 41.3391 79.753C40.0202 80.4624 38.7119 81.1871 37.4137 81.9337C32.5015 84.7573 32.5015 84.7573 29.2699 83.8976C29.0197 83.8294 28.7697 83.7607 28.5198 83.6915C27.8269 83.5014 27.1317 83.3205 26.4364 83.1395C26.0619 83.042 25.6876 82.9438 25.3136 82.8446C24.1299 82.534 22.9421 82.2544 21.748 81.9869C19.5809 81.5006 17.429 80.9573 15.2761 80.4125C13.9798 80.0845 12.6832 79.7579 11.3848 79.438C11.0722 79.3609 10.7598 79.2833 10.4475 79.205C8.66798 78.7617 7.00601 78.5298 5.17002 78.5083C4.04314 78.4872 4.04314 78.4872 2.89349 78.4658C2.89349 75.6012 2.89349 72.7366 2.89349 69.7852C5.62745 69.7533 5.62745 69.7533 6.47255 69.7498C9.2601 69.7103 11.4284 68.7526 13.7761 67.3172C13.9906 67.1886 14.2053 67.0603 14.4201 66.9322C15.3635 66.3676 16.303 65.7981 17.2179 65.1879C17.9934 64.7709 18.7502 64.6325 19.621 64.5832C19.9327 64.5644 19.9327 64.5644 20.2506 64.5452C20.4731 64.5332 20.6956 64.5211 20.9249 64.5087C21.1588 64.4952 21.3927 64.4814 21.6267 64.4676C21.9908 64.4461 22.3549 64.4247 22.719 64.4039C23.5646 64.3553 24.4096 64.3004 25.2545 64.2415C30.8069 63.8556 30.8069 63.8556 31.8288 63.9981Z" fill="#F7C8BC"/>
<path d="M51.2324 4.08493C56.1315 4.96418 60.6804 8.74971 63.8277 12.4251C64.0272 12.6229 64.0272 12.6229 64.2306 12.8247C64.6155 13.4498 64.4506 13.9476 64.3384 14.6378C64.2944 14.939 64.2944 14.939 64.2496 15.2462C63.2138 21.9124 61.911 28.5184 60.3318 35.0772C60.2602 35.3749 60.1889 35.6727 60.1177 35.9706C59.7104 37.6691 59.26 39.3497 58.7534 41.0213C58.6172 41.4724 58.49 41.9245 58.3705 42.3803C58.3143 42.5914 58.2581 42.8024 58.2003 43.0199C58.1526 43.2051 58.105 43.3903 58.056 43.5811C57.8469 44.1475 57.6143 44.5062 57.1896 44.9347C56.8492 45.0478 56.8492 45.0478 56.5088 45.0411C56.3965 45.0433 56.2841 45.0455 56.1684 45.0478C55.6142 44.8638 55.4524 44.5781 55.1472 44.0837C55.0508 43.5152 55.0604 42.9544 55.0674 42.379C55.0662 42.2138 55.065 42.0486 55.0637 41.8785C55.0587 41.1741 55.0615 40.4699 55.0636 39.7656C55.064 39.2502 55.0605 38.7349 55.0567 38.2195C55.0587 38.0626 55.0606 37.9056 55.0626 37.7439C55.0498 36.0822 54.3858 34.7513 53.2749 33.5308C52.1792 32.5168 50.9438 32.1719 49.4771 32.1053C47.472 31.9835 46.0181 31.1306 44.6807 29.6812C43.6267 28.3778 43.4652 26.7391 43.6089 25.1288C43.8288 23.558 44.7458 22.2964 45.9739 21.3178C46.9525 20.6741 48.04 20.2317 49.2183 20.2359C49.4255 20.2358 49.4255 20.2358 49.6368 20.2356C49.8589 20.2361 49.8589 20.2361 50.0855 20.2367C50.4021 20.2344 50.7187 20.2318 51.0352 20.229C51.532 20.2252 52.0286 20.2227 52.5254 20.2249C54.8873 20.313 54.8873 20.313 56.9488 19.3254C57.835 18.3606 57.9329 17.3956 57.9177 16.1278C57.8241 15.1982 57.3751 14.5984 56.679 13.9889C56.036 13.52 55.5891 13.2334 54.7859 13.2354C54.5813 13.2344 54.5813 13.2344 54.3726 13.2334C54.1538 13.2345 54.1538 13.2345 53.9304 13.2356C53.6193 13.233 53.3081 13.2302 52.997 13.2273C52.508 13.2245 52.0192 13.2229 51.5302 13.2242C51.0572 13.2246 50.5844 13.2198 50.1114 13.2143C49.9662 13.216 49.8209 13.2178 49.6713 13.2196C48.9492 13.2078 48.4811 13.1578 47.9089 12.6949C47.457 12.2227 47.3344 12.0866 47.2724 11.4495C47.3271 10.777 47.5305 10.4033 47.8714 9.82279C47.9579 9.67355 47.9579 9.67355 48.0461 9.52129C48.2303 9.20433 48.4174 8.88926 48.6048 8.57415C48.7261 8.36661 48.8472 8.15895 48.9682 7.95117C49.265 7.442 49.5643 6.93429 49.8643 6.42693C50.1534 5.93671 50.4398 5.44496 50.7264 4.95325C50.824 4.78576 50.9217 4.61827 51.0222 4.44571C51.0916 4.32665 51.1609 4.20759 51.2324 4.08493Z" fill="#A7E864"/>
<path d="M55.3174 63.9979C55.6399 63.9359 55.6399 63.9359 56.0398 63.9391C56.2662 63.9395 56.2662 63.9395 56.4973 63.94C56.6628 63.9433 56.8283 63.9466 56.9989 63.9501C57.259 63.953 57.259 63.953 57.5244 63.956C59.4781 63.9869 61.4282 64.0837 63.3775 64.214C63.786 64.2403 64.1947 64.264 64.6036 64.2852C67.152 64.4176 69.15 64.6632 71.3169 66.0404C71.5276 66.165 71.7389 66.2887 71.9507 66.4114C72.6823 66.8378 73.4063 67.2762 74.1267 67.7211C76.5601 69.2191 78.6719 69.7155 81.4974 69.7424C82.8613 69.7635 82.8613 69.7635 84.2527 69.785C84.2527 72.6496 84.2527 75.5142 84.2527 78.4656C83.5576 78.4656 82.8625 78.4656 82.1464 78.4656C79.39 78.5235 76.8474 79.1271 74.1934 79.8249C73.4367 80.0232 72.6759 80.2025 71.9142 80.3803C69.9079 80.8489 67.9148 81.3672 65.9208 81.8847C64.0731 82.3636 62.2219 82.8176 60.3595 83.2364C59.4726 83.436 58.5921 83.6471 57.7145 83.8841C55.0774 84.5891 53.4831 84.1112 51.1557 82.7854C50.9914 82.6903 50.8272 82.5953 50.658 82.4974C50.487 82.3996 50.3161 82.3018 50.14 82.201C49.6524 81.9216 49.1656 81.6407 48.6793 81.3591C48.5544 81.2869 48.4296 81.2147 48.3009 81.1404C47.7448 80.8185 47.1899 80.4947 46.6368 80.1676C47.5271 79.4272 48.4884 78.8869 49.4984 78.3273C49.678 78.2234 49.8576 78.1195 50.0426 78.0125C51.1046 77.4256 51.7454 77.1148 52.9345 77.4443C53.103 77.5005 53.2715 77.5567 53.4451 77.6145C54.7003 77.7419 55.7049 77.4965 56.8665 77.0427C57.0234 76.9839 57.1802 76.9251 57.3417 76.8645C57.6709 76.7404 57.9996 76.615 58.3278 76.4884C58.8268 76.2959 59.3271 76.1071 59.8279 75.9191C60.1493 75.7974 60.4707 75.6755 60.792 75.5534C60.9397 75.4974 61.0874 75.4413 61.2396 75.3836C63.1219 74.714 63.1219 74.714 64.5086 73.3593C65.0073 71.8631 64.6876 70.0471 64.1682 68.5935C63.6821 67.7693 63.1956 67.3758 62.2959 67.0617C61.8472 66.9724 61.4031 66.8931 60.9515 66.823C60.6882 66.7799 60.4249 66.7368 60.1617 66.6937C59.7502 66.6274 59.3386 66.5617 58.927 66.4966C58.5272 66.4329 58.1277 66.3674 57.7282 66.3017C57.6067 66.2831 57.4852 66.2644 57.3601 66.2452C56.5562 66.1119 55.8727 65.9076 55.1472 65.5298C54.9663 65.0192 54.9663 65.0192 54.977 64.5085C55.0893 64.34 55.2017 64.1715 55.3174 63.9979Z" fill="#EDBCB2"/>
<path d="M23.9992 34.8924C24.7641 35.2504 25.1207 35.6946 25.6162 36.371C26.905 38.0253 28.6899 38.8826 30.6609 39.4685C31.8092 39.8215 32.6269 40.4134 33.2199 41.4912C33.5172 42.293 33.4534 43.1488 33.4451 43.9932C33.4453 44.1964 33.4456 44.3997 33.4458 44.6091C33.4456 45.0377 33.4436 45.4664 33.4401 45.8949C33.4351 46.5494 33.4366 47.2036 33.4388 47.8581C33.4377 48.2754 33.4363 48.6927 33.4344 49.11C33.4349 49.3049 33.4354 49.4998 33.436 49.7006C33.4237 50.7429 33.3472 51.5022 32.85 52.4237C32.7939 52.5361 32.7377 52.6484 32.6798 52.7642C29.8124 51.7054 27.3891 49.7266 25.1907 47.6579C25.0819 47.5601 24.973 47.4622 24.8609 47.3614C22.7169 45.3514 20.2468 42.2345 19.5738 39.3178C19.7404 38.8689 19.7404 38.8689 20.0319 38.4228C20.1367 38.2603 20.2415 38.0977 20.3494 37.9302C20.4621 37.7632 20.5747 37.5962 20.6908 37.4242C20.8529 37.1718 20.8529 37.1718 21.0183 36.9142C22.4833 34.6796 22.4833 34.6796 23.9992 34.8924Z" fill="#A8E864"/>
<path d="M27.7909 10.098C28.1796 10.1061 28.5674 10.105 28.9561 10.1028C30.8261 10.1171 30.8261 10.1171 31.4717 10.5234C31.9698 11.0394 32.0112 11.3739 31.9989 12.0848C31.5709 12.9603 30.8536 13.6329 30.1991 14.3473C29.7913 14.8024 29.4042 15.2688 29.0203 15.7442C28.5253 16.3561 28.0186 16.9497 27.4884 17.5314C25.5354 19.6825 24.1132 21.3797 23.7878 24.3191C23.5817 25.1678 23.2152 25.5561 22.4773 26.0079C21.5547 26.358 20.5549 26.2654 19.5844 26.2439C19.2881 26.2404 19.2881 26.2404 18.9857 26.2369C18.5008 26.2309 18.0161 26.2226 17.5313 26.212C17.6351 25.1053 17.815 24.048 18.0738 22.9674C18.1108 22.8127 18.1477 22.658 18.1858 22.4986C18.5834 20.8938 19.0898 19.3116 19.8557 17.8412C20.1822 17.1559 20.1583 16.7513 20.0844 15.9995C19.8574 15.6575 19.8574 15.6575 19.5738 15.4889C19.8141 14.5933 20.2118 14.0044 20.7652 13.2762C21.0812 13.3289 21.0812 13.3289 21.4035 13.3826C21.9937 13.481 22.3067 13.4432 22.8077 13.106C23.0669 12.8176 23.3142 12.5183 23.5524 12.2124C23.8102 11.8826 24.0729 11.5565 24.3396 11.2337C24.4275 11.0926 24.4275 11.0926 24.5172 10.9486C25.2989 9.88604 26.5984 10.0715 27.7909 10.098Z" fill="#A7E764"/>
<path d="M36.0732 71.8381C37.0795 71.9843 38.0252 72.3322 38.9774 72.6785C38.4741 73.1818 37.8734 73.3346 37.2115 73.5721C37.0807 73.6222 36.95 73.6722 36.8152 73.7237C36.6884 73.7694 36.5616 73.815 36.4309 73.862C36.3155 73.9044 36.2 73.9468 36.081 73.9905C35.6359 74.0561 35.4335 73.9437 35.0626 73.6998C34.8245 73.2234 34.8494 72.8649 34.8924 72.3381C35.289 71.8085 35.3651 71.8269 36.0732 71.8381Z" fill="#E8B8AF"/>
</g>
<defs>
<clipPath id="clip0_21_289">
<rect width="87.1462" height="87.1462" fill="white"/>
</clipPath>
</defs>
</svg>
