<svg width="88" height="88" viewBox="0 0 88 88" fill="none" xmlns="http://www.w3.org/2000/svg">
<g clip-path="url(#clip0_21_304)">
<path d="M37.9317 -0.0631449C38.2654 -0.0646751 38.5991 -0.0662278 38.9328 -0.0678016C39.6261 -0.070584 40.3194 -0.0719149 41.0128 -0.0724116C41.9007 -0.073336 42.7884 -0.0797927 43.6763 -0.0875165C44.3627 -0.0925726 45.0491 -0.0938104 45.7355 -0.0939813C46.0631 -0.0946961 46.3907 -0.0968108 46.7182 -0.100367C47.1744 -0.104935 47.6303 -0.104132 48.0864 -0.101998C48.2207 -0.104523 48.355 -0.107048 48.4934 -0.10965C49.1747 -0.10057 49.4946 -0.0276539 50.0399 0.393974C50.7838 1.38944 50.4634 2.93116 50.3123 4.11691C49.7119 7.02413 47.8542 9.41401 45.4454 11.0635C45.5702 11.0788 45.695 11.0941 45.8235 11.1098C54.8108 12.2355 63.1349 15.8671 68.8702 23.1163C69.1812 23.5199 69.485 23.9281 69.7851 24.3397C69.8923 24.4866 69.8923 24.4866 70.0017 24.6366C73.5085 29.5149 75.9509 35.6348 75.9352 41.7002C75.9354 41.9129 75.9354 41.9129 75.9357 42.1298C75.9358 42.4278 75.9355 42.7257 75.9348 43.0237C75.9339 43.4756 75.9348 43.9274 75.9358 44.3793C75.9357 44.6706 75.9355 44.962 75.9352 45.2533C75.9355 45.3863 75.9359 45.5193 75.9362 45.6564C75.9324 46.562 75.8548 47.4402 75.7424 48.339C75.9185 48.3152 76.0946 48.2915 76.2761 48.2671C78.249 48.0165 80.2022 47.93 82.1902 47.9261C82.6962 47.924 83.2019 47.9156 83.7079 47.9071C84.0324 47.9055 84.357 47.9043 84.6816 47.9035C84.8314 47.9001 84.9812 47.8968 85.1356 47.8934C85.2755 47.8944 85.4155 47.8955 85.5598 47.8965C85.6817 47.8957 85.8036 47.8948 85.9292 47.8939C86.5395 48.0684 86.7726 48.3401 87.1463 48.8496C87.2705 49.4243 87.2626 49.9871 87.2564 50.5733C87.2579 50.7463 87.2594 50.9194 87.2609 51.0977C87.2646 51.6693 87.2622 52.2406 87.2593 52.8122C87.2599 53.2097 87.2607 53.6071 87.2618 54.0045C87.263 54.8373 87.2612 55.6699 87.2572 56.5027C87.2524 57.5702 87.2552 58.6375 87.2603 59.705C87.2633 60.5256 87.2624 61.3462 87.2601 62.1668C87.2596 62.5604 87.2603 62.954 87.2623 63.3476C87.2644 63.8978 87.2611 64.4476 87.2564 64.9977C87.2581 65.1604 87.2598 65.3231 87.2616 65.4908C87.2492 66.2688 87.2329 66.6103 86.7414 67.2408C86.2909 67.5756 85.9066 67.7751 85.3804 67.966C83.229 68.8128 81.3422 69.951 79.5275 71.3835C78.883 71.8639 78.4065 71.914 77.6146 71.8276C77.3288 71.7198 77.0446 71.6072 76.7636 71.4872C76.4367 71.7807 76.1106 72.0751 75.7849 72.3701C75.6932 72.4523 75.6015 72.5345 75.507 72.6191C74.9616 73.1146 74.4855 73.6194 74.0403 74.2105C74.0965 74.2667 74.1526 74.3228 74.2105 74.3807C74.3196 75.2227 74.3338 75.8772 73.8914 76.6147C73.1385 77.0664 72.5121 76.999 71.6574 76.9338C71.1428 76.8784 71.1428 76.8784 70.8349 77.2018C70.7237 77.3205 70.6125 77.4392 70.4978 77.5615C69.9447 78.1349 69.3979 78.6634 68.7639 79.1465C68.6515 79.1465 68.5392 79.1465 68.4234 79.1465C68.4508 79.316 68.4508 79.316 68.4786 79.4889C68.499 79.6392 68.5194 79.7895 68.5405 79.9444C68.573 80.1665 68.573 80.1665 68.6063 80.3932C68.5898 80.9857 68.4477 81.2333 68.083 81.6996C67.734 81.9715 67.4044 82.204 67.0299 82.4337C66.9254 82.499 66.821 82.5643 66.7133 82.6317C64.1655 84.1944 61.4334 85.3719 58.5514 86.1569C58.4075 86.1974 58.2635 86.238 58.1152 86.2797C57.5824 86.4178 57.0492 86.53 56.5089 86.6357C56.3938 86.6584 56.2786 86.6812 56.16 86.7047C52.7954 87.3347 49.3547 87.2362 45.9462 87.2315C45.0779 87.2305 44.2099 87.2358 43.3417 87.2426C42.6683 87.247 41.9949 87.2475 41.3214 87.2469C41.001 87.2472 40.6805 87.2488 40.3601 87.2519C39.9151 87.2556 39.4704 87.254 39.0253 87.251C38.8291 87.2544 38.8291 87.2544 38.6288 87.2578C37.9557 87.2473 37.6463 87.1699 37.1086 86.7522C36.3613 85.7589 36.6829 84.215 36.834 83.0294C37.4344 80.1222 39.2921 77.7323 41.7009 76.0828C41.601 76.0718 41.5011 76.0608 41.3982 76.0494C33.1764 75.1196 26.4502 72.0411 20.4249 66.381C20.3168 66.282 20.2086 66.1831 20.0971 66.0811C14.9575 61.2113 11.4006 53.2433 11.2043 46.1897C11.1926 45.4749 11.1935 44.7604 11.1987 44.0456C11.2018 43.6027 11.2022 43.16 11.2021 42.7171C11.203 42.4305 11.204 42.1438 11.2051 41.8571C11.2053 41.7273 11.2055 41.5975 11.2057 41.4637C11.2135 40.5677 11.2935 39.6966 11.4039 38.8073C11.2278 38.831 11.0517 38.8548 10.8702 38.8792C8.89733 39.1298 6.94411 39.2163 4.95611 39.2202C4.45007 39.2222 3.94437 39.2307 3.43841 39.2392C3.11384 39.2408 2.78927 39.242 2.4647 39.2428C2.31489 39.2462 2.16508 39.2495 2.01072 39.2529C1.87074 39.2519 1.73075 39.2508 1.58653 39.2498C1.46461 39.2506 1.3427 39.2515 1.21709 39.2524C0.606836 39.0779 0.373685 38.8062 1.57654e-05 38.2967C-0.12418 37.722 -0.116309 37.1592 -0.110104 36.573C-0.111595 36.4 -0.113086 36.2269 -0.114623 36.0486C-0.118366 35.477 -0.11589 34.9056 -0.113013 34.3341C-0.113586 33.9366 -0.114412 33.5392 -0.11548 33.1418C-0.116735 32.309 -0.114911 31.4763 -0.110935 30.6436C-0.106086 29.5761 -0.108879 28.5088 -0.113976 27.4413C-0.117051 26.6207 -0.116072 25.8001 -0.113867 24.9795C-0.113299 24.5859 -0.113995 24.1923 -0.115976 23.7987C-0.118137 23.2485 -0.114844 22.6987 -0.110104 22.1486C-0.111827 21.9859 -0.113549 21.8232 -0.115324 21.6555C-0.102903 20.8775 -0.0865722 20.536 0.404908 19.9055C0.855356 19.5707 1.23965 19.3712 1.76592 19.1803C4.59947 18.06 7.06372 16.422 9.2863 14.3427C9.63357 14.0204 9.98736 13.7128 10.3474 13.4052C11.0851 12.7622 11.7433 12.0607 12.4039 11.3401C13.3884 10.2815 14.3883 9.27921 15.4889 8.34019C15.6662 8.18264 15.8433 8.02482 16.0201 7.8668C22.2734 2.32547 29.6409 -0.0432315 37.9317 -0.0631449Z" fill="#010101"/>
<path d="M62.1256 21.2759C62.1256 21.3321 62.1256 21.3882 62.1256 21.4461C62.006 21.4477 61.8863 21.4493 61.7631 21.4509C57.1425 21.5275 51.9504 21.8017 48.3494 25.0843C47.3522 26.1654 47.0144 27.304 47.0722 28.7657C47.2386 29.8955 47.7202 30.8117 48.5941 31.5522C50.2307 32.6222 52.1591 32.7975 54.058 32.9838C55.2387 33.1114 56.6598 33.2738 57.4879 34.2078C58.0232 35.0761 57.7742 36.2797 57.5526 37.2222C57.4354 37.6259 57.3132 38.0281 57.1849 38.4283C56.6554 40.1848 56.5139 42.3853 57.3292 44.0664C57.3954 44.1845 57.4617 44.3025 57.53 44.4241C57.5857 44.5316 57.6414 44.6391 57.6988 44.7499C58.7991 46.5731 61.0453 47.1541 62.9766 47.6581C63.3309 47.7444 63.6855 47.8296 64.0404 47.9134C65.6112 48.2981 67.3201 48.7861 68.253 50.2112C68.3152 50.4937 68.3725 50.7774 68.4232 51.0622C68.3223 51.1152 68.2213 51.1681 68.1173 51.2227C66.0773 52.2986 64.1175 53.3886 62.2958 54.8068C62.0628 54.9861 62.0628 54.9861 61.825 55.1691C60.0948 56.5427 58.4044 58.0498 56.9828 59.7441C55.8549 61.0028 54.608 62.0224 53.1631 62.8943C52.671 63.2059 52.2944 63.5589 51.9131 63.998C51.7973 64.1279 51.6814 64.2578 51.5621 64.3916C50.635 65.6775 50.3505 66.7984 50.3493 68.3596C50.3472 68.5068 50.3452 68.654 50.343 68.8057C50.3408 69.8067 50.4728 70.6874 50.7217 71.6573C48.7252 72.1412 46.9893 72.3663 44.9346 72.3382C44.7652 70.8438 44.7409 69.3515 44.7325 67.8489C44.7303 67.6568 44.7281 67.4646 44.7258 67.2666C44.7232 65.0388 44.7232 65.0388 45.3149 64.2167C45.9963 63.6671 46.7204 63.2461 47.4877 62.8278C48.7694 62.1263 49.7478 61.3365 50.211 59.913C50.4343 58.3135 50.1505 56.9662 49.1898 55.6578C48.3071 54.7589 47.307 54.1044 46.2218 53.477C45.9159 53.2977 45.6101 53.1185 45.3043 52.9392C45.0787 52.8078 45.0787 52.8078 44.8485 52.6738C44.481 52.4574 44.1179 52.2359 43.7564 52.0097C41.2577 50.4624 38.5651 49.2573 35.9136 47.9985C35.9885 47.8829 36.0634 47.7674 36.1406 47.6484C36.8177 46.5955 37.4612 45.5327 38.0625 44.4348C38.1832 44.2146 38.1832 44.2146 38.3064 43.9899C39.3992 41.9716 40.227 40.1344 39.9986 37.786C39.8288 37.288 39.5948 36.8693 39.3177 36.4244C39.2682 36.3068 39.2186 36.1892 39.1675 36.068C38.9289 35.6608 38.7198 35.6004 38.2965 35.4031C37.8363 35.1563 37.3804 34.902 36.9242 34.6478C36.8017 34.5806 36.6791 34.5133 36.5529 34.444C36.4347 34.3781 36.3166 34.3122 36.1948 34.2443C36.0878 34.1849 35.9807 34.1256 35.8703 34.0644C35.5516 33.8572 35.3077 33.6515 35.0626 33.3606C35.0626 32.5452 35.543 32.1005 36.0838 31.5522C36.2553 31.3715 36.4264 31.1904 36.5971 31.009C36.7256 30.873 36.7256 30.873 36.8567 30.7343C38.828 28.6133 40.3107 26.6453 40.2319 23.6901C40.164 22.6019 39.7902 21.8836 38.994 21.1462C38.3503 20.636 37.6732 20.2734 36.9348 19.9142C36.9265 19.7231 36.9182 19.532 36.9096 19.3351C36.846 18.0192 36.7726 16.7662 36.4242 15.4888C45.2775 13.0655 55.0969 15.5088 62.1256 21.2759Z" fill="#1288E8"/>
<path d="M83.7419 51.4027C83.7419 55.7838 83.7419 60.165 83.7419 64.6789C82.6747 65.2406 81.6075 65.8022 80.508 66.3809C78.343 67.6287 78.343 67.6287 76.5932 69.4447C76.6237 69.5814 76.6542 69.7181 76.6856 69.8589C76.813 70.4527 76.8587 70.8844 76.7634 71.4872C76.3036 72.0594 75.8147 72.4883 75.2402 72.9386C74.758 73.3294 74.4062 73.7126 74.0401 74.2105C74.0963 74.2667 74.1524 74.3228 74.2103 74.3807C74.3195 75.2227 74.3336 75.8772 73.8912 76.6147C73.1383 77.0664 72.5119 76.999 71.6572 76.9338C71.1443 76.8778 71.1443 76.8778 70.8467 77.1958C70.7385 77.3129 70.6304 77.4301 70.5189 77.5508C69.8722 78.2252 69.1867 78.7807 68.4232 79.3167C68.3255 79.2639 68.2278 79.2112 68.127 79.1568C67.4926 78.8591 66.911 78.7526 66.2105 78.8061C65.6203 79.0438 65.1182 79.3852 64.5936 79.7422C59.8829 82.7462 54.4564 83.7797 48.9325 83.7587C48.6833 83.7584 48.4341 83.7582 48.1849 83.758C47.5355 83.7574 46.8861 83.7557 46.2366 83.7538C45.5714 83.752 44.9061 83.7513 44.2408 83.7504C42.9402 83.7486 41.6396 83.7457 40.339 83.7421C40.4192 83.4966 40.4998 83.2512 40.5806 83.0058C40.6479 82.8008 40.6479 82.8008 40.7165 82.5916C41.3419 80.7998 42.6332 79.5427 44.2538 78.6146C47.023 77.3167 50.2947 76.9581 53.3007 76.5428C58.8523 75.7597 63.0997 72.73 67.0084 68.8596C67.1085 68.761 67.2087 68.6625 67.3118 68.5609C68.2525 67.6195 68.2525 67.6195 68.6466 66.3809C68.5929 65.8652 68.454 65.4933 68.253 65.0193C67.4395 64.8246 66.7089 64.66 65.9572 65.0931C65.2343 65.7336 64.6205 66.4675 63.9939 67.2001C62.4501 68.9085 59.7719 71.5552 57.397 71.8954C56.1961 71.885 55.4816 71.7255 54.5301 70.9553C53.8721 70.1588 53.5036 69.3518 53.3599 68.3277C53.532 67.1447 54.0397 66.3499 54.9695 65.6123C55.3539 65.3331 55.7444 65.0642 56.1364 64.7959C57.6659 63.739 58.952 62.4176 60.2456 61.0922C61.9498 59.3467 63.6335 57.6585 65.6999 56.3387C65.8165 56.2642 65.933 56.1896 66.0531 56.1128C71.6103 52.6135 77.167 51.4027 83.7419 51.4027Z" fill="#F7C8BC"/>
<path d="M40.8225 3.35729C41.5005 3.36441 42.1786 3.3674 42.8567 3.3708C44.1735 3.37797 45.4902 3.3895 46.807 3.40404C46.7268 3.64959 46.6462 3.895 46.5654 4.14035C46.4981 4.34536 46.4981 4.34536 46.4295 4.55452C45.8171 6.30913 44.5565 7.60159 42.9348 8.46771C40.2217 9.70282 37.0957 10.2374 34.1478 10.5528C30.3702 10.9891 26.9597 12.429 23.9992 14.8079C23.9039 14.884 23.8087 14.96 23.7106 15.0384C22.4503 16.056 21.2774 17.1577 20.127 18.2972C20.0092 18.4134 19.8914 18.5296 19.77 18.6493C19.6605 18.7596 19.551 18.8698 19.4382 18.9833C19.341 19.0809 19.2439 19.1784 19.1438 19.2789C18.7366 19.7576 18.5634 20.1272 18.51 20.7546C18.5536 21.289 18.6375 21.6562 18.893 22.1269C19.6873 22.3916 20.3186 22.4293 21.0844 22.063C21.7051 21.5967 22.1846 20.9886 22.6954 20.4088C24.3966 18.5502 27.1043 15.6609 29.7058 15.2508C30.8683 15.2621 31.7005 15.4477 32.6266 16.2015C33.2473 16.9564 33.6445 17.653 33.7861 18.627C33.6128 19.8617 33.1645 20.7708 32.1765 21.5398C31.7901 21.8139 31.4002 22.0823 31.0096 22.3503C29.4802 23.4073 28.194 24.7285 26.9005 26.0539C25.1966 27.7991 23.5152 29.4925 21.4461 30.8075C21.3221 30.8866 21.1982 30.9658 21.0705 31.0473C19.1309 32.2658 17.1196 33.2332 14.9782 34.0414C14.8632 34.0848 14.7483 34.1282 14.6298 34.173C13.0715 34.7499 11.5076 35.1229 9.87197 35.4031C9.69162 35.4382 9.51126 35.4733 9.32544 35.5094C7.31143 35.8605 5.52779 35.7435 3.40408 35.7435C3.40408 31.3623 3.40408 26.9812 3.40408 22.4673C5.00489 21.6248 5.00489 21.6248 6.63803 20.7652C7.25626 20.3737 7.84698 19.9909 8.43584 19.5631C8.57775 19.462 8.71965 19.3608 8.86585 19.2566C9.89208 18.5154 10.8312 17.7277 11.7443 16.8504C11.9526 16.6721 12.1618 16.4948 12.3719 16.3185C13.4268 15.402 14.3928 14.3855 15.3749 13.3926C15.6177 13.1475 15.862 12.9038 16.1065 12.6604C16.3874 12.3781 16.6644 12.0919 16.9382 11.8027C23.4464 5.03423 31.7463 3.25141 40.8225 3.35729Z" fill="#F7C8BC"/>
<path d="M22.081 34.6193C22.5721 34.9667 23.005 35.347 23.4247 35.7756C23.5135 35.8657 23.6022 35.9559 23.6937 36.0488C26.6403 39.1205 28.6819 43.0702 30.6373 46.8071C30.7202 46.9601 30.803 47.1131 30.8884 47.2708C31.298 48.0462 31.6002 48.6425 31.5521 49.5411C31.5464 49.6975 31.5407 49.854 31.5349 50.0151C31.499 50.4287 31.453 50.8368 31.4019 51.2485C30.6734 57.6726 32.621 61.8867 36.2541 67.0618C36.3336 67.1756 36.413 67.2894 36.4949 67.4066C37.1423 68.3314 37.807 69.2429 38.4768 70.1515C38.5637 70.2696 38.6507 70.3876 38.7403 70.5093C38.9096 70.7387 39.0793 70.9678 39.2495 71.1966C39.8285 71.9793 39.8285 71.9793 39.8285 72.168C38.8281 72.2127 37.9479 72.0534 36.9775 71.817C36.821 71.7789 36.6645 71.7407 36.5032 71.7014C32.8181 70.7699 29.4219 69.1788 26.3821 66.8916C26.2384 66.7839 26.0947 66.6762 25.9466 66.5652C21.651 63.2318 18.5468 58.986 16.51 53.9558C16.4256 53.7724 16.3411 53.589 16.2541 53.4C15.9257 52.6359 15.7486 51.8389 15.5633 51.0304C15.5264 50.8717 15.4894 50.7129 15.4514 50.5494C14.51 46.4433 14.0995 41.9142 15.1484 37.7861C15.5676 37.1574 15.9758 37.0661 16.659 36.8393C17.9971 36.3749 19.2305 35.7615 20.469 35.0757C21.49 34.5339 21.49 34.5339 22.081 34.6193Z" fill="#1288E8"/>
<path d="M61.4104 24.7065C61.7517 24.696 62.0929 24.6808 62.4338 24.6611C65.183 24.5055 65.183 24.5055 66.0336 25.0726C66.6031 25.6119 67.0148 26.2312 67.3941 26.9139C67.5798 27.2467 67.7813 27.5643 67.9895 27.8834C70.6842 32.0387 72.4301 37.0679 72.5083 42.0412C72.5124 42.1821 72.5166 42.323 72.5208 42.4682C72.5851 44.7398 72.5311 46.9704 71.9977 49.1899C71.8853 49.3022 71.773 49.4146 71.6573 49.5303C71.5684 49.3864 71.4795 49.2425 71.388 49.0942C69.9312 46.8165 67.9707 45.4535 65.315 44.8283C64.7663 44.7078 64.2167 44.5933 63.6665 44.4799C62.333 44.186 61.3877 43.7472 60.3385 42.8816C59.6605 41.5539 60.117 40.1275 60.5087 38.7753C61.0286 36.9651 61.3686 34.8226 60.6224 33.0182C59.5803 31.2443 58.2535 30.5884 56.3436 30.0756C55.3576 29.8477 54.3537 29.7616 53.348 29.6622C52.2507 29.5376 51.3612 29.2772 50.3813 28.765C50.2962 28.3288 50.2962 28.3288 50.3813 27.7438C51.9355 25.7072 55.0839 25.269 57.4692 24.9331C58.7778 24.7751 60.0937 24.7386 61.4104 24.7065Z" fill="#D6EA83"/>
<path d="M79.1464 0.680865C79.2521 0.740544 79.3579 0.800223 79.4669 0.86171C80.7087 1.63587 81.3622 2.88575 81.7939 4.24791C81.8697 4.59564 81.8697 4.59564 81.8697 5.27647C82.0593 5.287 82.2489 5.29753 82.4442 5.30838C83.6637 5.46002 84.9187 6.11274 85.7845 6.97854C87.0769 8.66935 87.3032 10.1792 87.1461 12.255C86.8385 13.7952 85.7955 15.0352 84.5412 15.943C82.1894 17.3305 79.2797 17.085 76.6594 16.8342C76.271 16.7971 75.8824 16.7633 75.4936 16.7299C72.0876 16.428 72.0876 16.428 71.2317 15.9144C69.6621 13.2983 69.8386 7.7359 70.3209 4.82302C70.7532 3.12922 71.5963 1.72378 73.0708 0.766633C74.8895 -0.285844 77.3217 -0.469999 79.1464 0.680865Z" fill="black"/>
<path d="M12.0846 70.4659C12.2522 70.48 12.4199 70.4942 12.5926 70.5087C13.0193 70.5448 13.4455 70.5841 13.8717 70.6255C13.9916 70.6361 14.1115 70.6467 14.235 70.6576C14.938 70.7343 15.4392 70.8796 15.9993 71.317C16.3377 71.8608 16.4116 72.3552 16.4787 72.9871C16.4998 73.1826 16.521 73.378 16.5427 73.5793C16.5635 73.7876 16.5843 73.9959 16.6057 74.2105C16.6275 74.4245 16.6492 74.6384 16.6716 74.8589C17.4339 82.5813 17.4339 82.5813 15.387 85.2939C14.4568 86.3187 13.0505 87.0917 11.663 87.1868C10.3012 87.2232 9.186 87.2137 7.99958 86.4654C7.89382 86.4057 7.78807 86.3461 7.67911 86.2846C6.43722 85.5104 5.78377 84.2605 5.35205 82.8984C5.27626 82.5506 5.27626 82.5506 5.27626 81.8698C5.08669 81.8593 4.89712 81.8488 4.70181 81.8379C3.48224 81.6863 2.22728 81.0335 1.36148 80.1677C0.0690823 78.4769 -0.157186 76.9671 -0.000177257 74.8913C0.315416 73.3112 1.37442 72.0837 2.66463 71.1654C5.51352 69.5531 8.9798 70.183 12.0846 70.4659Z" fill="black"/>
<path d="M35.8392 23.1695C36.4243 23.3185 36.4243 23.3185 36.9349 23.6589C37.1327 24.9047 36.7993 25.5946 36.0932 26.6169C35.6783 27.1462 35.229 27.6064 34.7415 28.0683C33.4007 29.3968 31.8284 31.0792 31.7755 33.0522C31.7879 34.2268 32.1431 34.9505 32.8712 35.85C33.4219 36.3049 33.9954 36.6537 34.6125 37.0109C36.3017 38.0039 36.3017 38.0039 36.7647 38.4669C36.7659 39.545 36.4726 40.4386 35.9988 41.3924C35.9395 41.5152 35.8803 41.6381 35.8193 41.7647C35.2095 42.9972 34.4769 44.142 33.701 45.2752C33.3121 44.7807 33.0016 44.2762 32.703 43.7228C30.5266 39.7355 28.1808 35.8154 24.8502 32.6799C25.054 32.0684 25.2466 31.9558 25.7544 31.5735C27.1725 30.4683 28.5053 29.2805 29.6692 27.9068C30.9537 26.4171 32.4384 25.2233 34.0826 24.1496C34.5619 23.8534 34.5619 23.8534 34.8818 23.4355C35.2328 23.1483 35.2328 23.1483 35.8392 23.1695Z" fill="#D5E982"/>
<path d="M34.7222 51.2325C36.1219 51.6469 37.401 52.2698 38.7008 52.924C38.8133 52.9802 38.9258 53.0365 39.0417 53.0945C40.8546 54.0042 42.5864 54.9961 44.2727 56.126C44.5743 56.3256 44.8793 56.5173 45.188 56.7057C45.4417 56.8611 45.4417 56.8611 45.7006 57.0196C45.8392 57.1038 45.9779 57.1881 46.1208 57.2749C46.6661 57.6776 46.9339 58.0452 47.1048 58.7004C46.9534 59.3311 46.8388 59.3911 46.3176 59.7429C46.029 59.9168 45.7381 60.0868 45.4453 60.2535C43.5452 61.3801 42.3677 62.2167 41.7433 64.4236C41.4417 65.739 41.4065 67.0794 41.3603 68.4235C34.5338 59.936 34.5338 59.936 34.5294 55.7969C34.5292 55.5969 34.5289 55.3969 34.5287 55.1908C34.5294 54.9834 34.53 54.7759 34.5307 54.5622C34.5301 54.3554 34.5294 54.1486 34.5287 53.9356C34.5289 53.7353 34.5292 53.5351 34.5294 53.3289C34.5296 53.1471 34.5298 52.9653 34.53 52.7781C34.5521 52.2501 34.6243 51.7513 34.7222 51.2325Z" fill="#D6E982"/>
<path d="M7.10609 73.668C7.32752 73.6681 7.32752 73.6681 7.55343 73.6681C8.76732 73.6783 9.97126 73.755 11.1804 73.8595C11.3523 73.8743 11.5241 73.8891 11.7012 73.9043C12.9129 74.0176 12.9129 74.0176 13.1059 74.2106C13.4106 75.9783 13.4802 77.8239 13.4995 79.6147C13.5025 79.7501 13.5055 79.8855 13.5085 80.0251C13.5076 81.0464 13.3937 82.2063 12.6885 82.9987C11.9993 83.5843 11.4933 83.8197 10.5821 83.8147C9.90982 83.6829 9.46646 83.2194 9.02093 82.721C8.82069 82.3205 8.84009 82.1081 8.85803 81.6638C8.86165 81.5221 8.86527 81.3803 8.869 81.2343C8.87805 80.9359 8.88912 80.6376 8.90225 80.3394C8.93291 79.4656 8.93291 79.4656 8.52959 78.7144C7.9041 78.282 7.52892 78.2988 6.77029 78.3325C4.68567 78.4131 4.68567 78.4131 3.98917 77.8062C3.46398 77.1329 3.34282 76.7907 3.35687 75.9286C3.43554 75.3347 3.69913 74.9977 4.08491 74.551C5.10119 73.7836 5.86166 73.667 7.10609 73.668Z" fill="#F1717D"/>
<path d="M76.7635 3.40407C77.4678 3.71527 77.8859 4.11678 78.2953 4.76573C78.369 5.28318 78.3443 5.78744 78.3166 6.30823C78.2112 7.4711 78.2112 7.4711 78.6357 8.51029C79.1758 8.87033 79.2565 8.88808 79.8618 8.84805C80.0007 8.84234 80.1395 8.83664 80.2826 8.83076C80.5722 8.81582 80.8617 8.79814 81.151 8.77757C81.9657 8.74943 82.4328 8.80778 83.0691 9.34271C83.5933 9.84912 83.7326 10.0998 83.7952 10.8506C83.7856 11.6004 83.546 12.0161 83.0611 12.5953C82.1084 13.4845 80.9637 13.5018 79.7315 13.4889C79.5773 13.4881 79.4231 13.4873 79.2642 13.4865C74.5294 13.425 74.5294 13.425 74.0401 12.9357C73.7451 11.0414 73.6668 9.07432 73.6359 7.15927C73.6315 7.02372 73.6271 6.88816 73.6226 6.7485C73.6194 5.78697 73.843 5.05767 74.3806 4.2551C75.1829 3.51006 75.6653 3.32961 76.7635 3.40407Z" fill="#F1717D"/>
<path d="M72.1492 73.5263C72.793 73.5828 73.2912 73.6678 73.8806 73.9445C74.3212 74.5273 74.3326 74.953 74.2901 75.6712C74.2103 76.0827 74.2103 76.0827 73.8912 76.6146C73.1434 77.0633 72.5081 77.1077 71.6572 76.9338C71.0661 76.4868 70.9274 76.022 70.7956 75.3168C70.7444 74.6641 70.7777 74.5869 71.2104 74.0402C71.3579 73.9279 71.5053 73.8155 71.6572 73.6998C71.8274 73.5296 71.8274 73.5296 72.1492 73.5263Z" fill="#040403"/>
</g>
<defs>
<clipPath id="clip0_21_304">
<rect width="87.1462" height="87.1462" fill="white"/>
</clipPath>
</defs>
</svg>
