<svg width="24" height="24" viewBox="0 0 24 24" fill="none" xmlns="http://www.w3.org/2000/svg">
<g clip-path="url(#clip0_21_258)">
<path d="M14.5404 1.57445C15.4476 2.33682 16.1639 3.32905 16.3001 4.5381C16.3198 4.92382 16.3122 5.30992 16.3001 5.69578C16.3486 5.69505 16.3971 5.69432 16.4471 5.69358C16.6302 5.69103 16.8134 5.68945 16.9965 5.68815C17.0752 5.68746 17.1539 5.68652 17.2325 5.6853C18.0858 5.67246 18.833 5.7536 19.4801 6.36615C19.8941 6.81485 20.0864 7.33077 20.1161 7.93364C20.1191 7.99305 20.1221 8.05246 20.1252 8.11368C20.1283 8.17947 20.1315 8.24527 20.1346 8.31107C20.1381 8.381 20.1416 8.45093 20.145 8.52085C20.1546 8.71279 20.1639 8.90475 20.1732 9.0967C20.1811 9.26086 20.1892 9.42501 20.1973 9.58916C20.2238 10.1277 20.2498 10.6662 20.2758 11.2048C20.2825 11.3448 20.2893 11.4848 20.296 11.6247C20.3516 12.7777 20.4065 13.9306 20.4607 15.0837C20.4653 15.1816 20.47 15.2796 20.4746 15.3776C20.4769 15.4262 20.4791 15.4748 20.4815 15.5248C20.5004 15.9267 20.5195 16.3285 20.5387 16.7303C20.5575 17.1257 20.5761 17.5211 20.5947 17.9165C20.6056 18.1493 20.6166 18.382 20.6278 18.6147C20.6381 18.8311 20.6483 19.0474 20.6583 19.2637C20.662 19.3421 20.6657 19.4204 20.6695 19.4988C20.6887 19.8939 20.7031 20.2887 20.7062 20.6843C20.7067 20.7179 20.7072 20.7514 20.7077 20.786C20.7086 21.2925 20.5519 21.738 20.2362 22.1348C20.2159 22.1632 20.1955 22.1915 20.1745 22.2207C19.8585 22.6333 19.3847 22.8413 18.8933 22.9683C18.6936 22.9924 18.4968 22.9934 18.2958 22.9919C18.2382 22.9921 18.1807 22.9924 18.1214 22.9927C17.9632 22.9933 17.805 22.9931 17.6468 22.9926C17.4756 22.9921 17.3044 22.9928 17.1332 22.9933C16.7984 22.9941 16.4636 22.9939 16.1289 22.9934C15.8566 22.993 15.5844 22.9929 15.3122 22.9931C15.2539 22.9932 15.2539 22.9932 15.1945 22.9932C15.1156 22.9933 15.0367 22.9933 14.9578 22.9934C14.2189 22.9939 13.4801 22.9933 12.7412 22.9923C12.1081 22.9915 11.475 22.9916 10.8418 22.9925C10.1055 22.9935 9.36922 22.9939 8.63291 22.9933C8.5543 22.9932 8.4757 22.9932 8.39709 22.9931C8.35842 22.9931 8.31975 22.9931 8.27991 22.993C8.0082 22.9929 7.7365 22.9931 7.46479 22.9936C7.13339 22.9941 6.802 22.994 6.4706 22.993C6.30172 22.9925 6.13284 22.9923 5.96395 22.9929C5.78045 22.9936 5.59697 22.9928 5.41346 22.9919C5.36069 22.9923 5.30791 22.9927 5.25353 22.9931C4.64138 22.9872 4.09761 22.7773 3.64488 22.3616C3.20966 21.9003 2.99818 21.3399 3.00339 20.7088C3.00364 20.6549 3.00364 20.6549 3.0039 20.5999C3.00862 20.0878 3.03567 19.5765 3.06024 19.0651C3.06566 18.9494 3.07106 18.8337 3.07644 18.718C3.0895 18.4383 3.10273 18.1587 3.11605 17.8791C3.13159 17.5524 3.14693 17.2258 3.16225 16.8991C3.18962 16.3158 3.21718 15.7325 3.24484 15.1492C3.2716 14.585 3.29824 14.0208 3.32475 13.4565C3.32638 13.4218 3.32801 13.387 3.3297 13.3512C3.33299 13.2811 3.33628 13.211 3.33957 13.141C3.3412 13.1064 3.34282 13.0718 3.34449 13.0362C3.34692 12.9845 3.34692 12.9845 3.3494 12.9317C3.37479 12.3914 3.40027 11.851 3.42576 11.3107C3.43343 11.1482 3.4411 10.9856 3.44875 10.8231C3.4662 10.4525 3.4837 10.082 3.50129 9.7115C3.50659 9.59965 3.51188 9.4878 3.51714 9.37595C3.53274 9.04447 3.5487 8.71301 3.56565 8.38159C3.56762 8.34307 3.56959 8.30454 3.57162 8.26485C3.57704 8.16178 3.58278 8.05874 3.58871 7.9557C3.59183 7.90055 3.59494 7.84539 3.59816 7.78857C3.65684 7.15991 3.93726 6.63098 4.39918 6.20516C4.90826 5.82191 5.47543 5.68707 6.10224 5.69126C6.13981 5.69132 6.17738 5.69139 6.21609 5.69146C6.33497 5.69171 6.45385 5.69229 6.57272 5.69289C6.65379 5.69312 6.73486 5.69333 6.81593 5.69352C7.01367 5.69403 7.21141 5.69483 7.40915 5.69578C7.40769 5.64936 7.40769 5.64936 7.40621 5.602C7.36936 4.24267 7.6424 3.11975 8.59758 2.10101C10.1589 0.516185 12.7286 0.202854 14.5404 1.57445ZM9.90973 2.96366C9.87654 2.99166 9.84335 3.01965 9.80916 3.0485C9.18941 3.619 8.94879 4.37092 8.89097 5.1864C8.89097 5.3545 8.89097 5.52259 8.89097 5.69578C10.847 5.69578 12.803 5.69578 14.8183 5.69578C14.8183 4.69921 14.6936 3.96918 14.0311 3.1952C14.0055 3.16439 13.9799 3.13359 13.9535 3.10186C13.4264 2.52113 12.668 2.27127 11.9072 2.22569C11.1586 2.20343 10.4749 2.48506 9.90973 2.96366ZM5.38321 7.42072C5.1598 7.69377 5.11746 7.92227 5.10459 8.26332C5.10236 8.30866 5.10013 8.354 5.09784 8.40071C5.09029 8.55748 5.08365 8.71427 5.07697 8.87107C5.07153 8.98761 5.06603 9.10414 5.06048 9.22066C5.04938 9.45498 5.03855 9.68932 5.02798 9.92366C5.00212 10.4971 4.97454 11.0704 4.94684 11.6437C4.90022 12.6102 4.85425 13.5767 4.80865 14.5432C4.80338 14.6549 4.79812 14.7665 4.79285 14.8781C4.78893 14.9613 4.78893 14.9613 4.78493 15.0461C4.76344 15.5013 4.74182 15.9564 4.72016 16.4115C4.69903 16.8559 4.67799 17.3003 4.65704 17.7447C4.64462 18.0078 4.63217 18.2709 4.61962 18.5341C4.60791 18.7796 4.59632 19.0251 4.58483 19.2706C4.58062 19.3601 4.57637 19.4496 4.57207 19.5391C4.45986 20.4399 4.45986 20.4399 4.72333 21.255C4.95972 21.4511 5.16701 21.4922 5.46713 21.4925C5.51352 21.4926 5.55992 21.4928 5.60772 21.4929C5.65836 21.4928 5.70899 21.4928 5.76116 21.4927C5.81521 21.4928 5.86926 21.4929 5.92495 21.493C6.0748 21.4933 6.22465 21.4933 6.37451 21.4932C6.53619 21.4932 6.69788 21.4935 6.85956 21.4937C7.17626 21.4941 7.49295 21.4942 7.80965 21.4942C8.06707 21.4943 8.32449 21.4944 8.58192 21.4945C9.31179 21.4949 10.0417 21.4951 10.7715 21.4951C10.8305 21.4951 10.8305 21.4951 10.8908 21.4951C10.9301 21.4951 10.9695 21.4951 11.0101 21.4951C11.6486 21.4951 12.2871 21.4955 12.9256 21.4962C13.5812 21.4968 14.2368 21.4971 14.8924 21.4971C15.2605 21.4971 15.6286 21.4972 15.9967 21.4977C16.31 21.4981 16.6234 21.4982 16.9367 21.4979C17.0966 21.4978 17.2564 21.4978 17.4163 21.4982C17.5896 21.4985 17.763 21.4983 17.9363 21.498C17.9868 21.4982 18.0372 21.4984 18.0892 21.4987C18.5396 21.4971 18.5396 21.4971 18.928 21.2897C19.2802 20.8593 19.1759 20.3439 19.1504 19.8166C19.1481 19.7682 19.1459 19.7198 19.1436 19.67C19.1362 19.5095 19.1285 19.349 19.1209 19.1886C19.1155 19.0728 19.1101 18.9571 19.1047 18.8413C19.0916 18.5605 19.0784 18.2798 19.0651 17.999C19.0496 17.6713 19.0342 17.3436 19.0189 17.0159C18.9915 16.4307 18.9639 15.8454 18.9363 15.2602C18.9096 14.6938 18.8829 14.1274 18.8564 13.5609C18.8547 13.5261 18.8531 13.4912 18.8514 13.4553C18.8498 13.4204 18.8482 13.3856 18.8465 13.3498C18.8162 12.703 18.7858 12.0562 18.7554 11.4095C18.7446 11.1817 18.734 10.9539 18.7233 10.7261C18.7089 10.4187 18.6944 10.1113 18.6798 9.80396C18.6745 9.69157 18.6692 9.57918 18.664 9.46679C18.6504 9.17638 18.6363 8.88601 18.6215 8.59566C18.6159 8.48319 18.6112 8.37071 18.6066 8.2582C18.6036 8.19609 18.6005 8.13398 18.5975 8.07188C18.5953 8.02108 18.5931 7.97029 18.5909 7.91796C18.542 7.60659 18.3932 7.44952 18.1524 7.27022C18.0436 7.21583 17.9796 7.21807 17.8584 7.21796C17.7945 7.21773 17.7945 7.21773 17.7294 7.21751C17.6588 7.21761 17.6588 7.21761 17.5867 7.21772C17.5369 7.21762 17.4872 7.21751 17.4359 7.21741C17.268 7.21711 17.1001 7.21715 16.9322 7.21719C16.8123 7.21705 16.6923 7.21689 16.5724 7.21672C16.2797 7.21633 15.9871 7.21621 15.6944 7.21618C15.4565 7.21616 15.2186 7.21606 14.9807 7.21592C14.3064 7.21551 13.632 7.21529 12.9577 7.21533C12.9032 7.21533 12.9032 7.21533 12.8475 7.21533C12.7929 7.21534 12.7929 7.21534 12.7371 7.21534C12.1471 7.21536 11.5571 7.21492 10.9672 7.21426C10.3616 7.2136 9.75598 7.21328 9.15039 7.21332C8.81032 7.21333 8.47025 7.21321 8.13018 7.21271C7.81027 7.21224 7.49036 7.21226 7.17044 7.21259C7.05297 7.21264 6.93549 7.21253 6.81802 7.21225C6.65773 7.2119 6.49746 7.21211 6.33717 7.21247C6.26733 7.21211 6.26733 7.21211 6.19608 7.21174C5.89014 7.21325 5.62883 7.21975 5.38321 7.42072Z" fill="black"/>
<path d="M8.5755 8.80416C8.8909 9.01442 8.9862 9.26905 9.09357 9.61742C9.37051 10.4529 9.85752 11.0338 10.6506 11.4379C11.4069 11.7448 12.2553 11.7893 13.0159 11.4708C13.7998 11.1025 14.3121 10.5204 14.6331 9.72451C14.6845 9.56562 14.7303 9.406 14.7758 9.24534C14.8532 9.02172 14.9884 8.93057 15.1801 8.80705C15.4392 8.71051 15.646 8.71674 15.8949 8.82731C16.1031 8.94509 16.2114 9.07812 16.2831 9.30992C16.4059 9.97518 15.95 10.7714 15.5995 11.3122C14.8998 12.2822 13.9057 12.9529 12.7268 13.1697C11.4776 13.3718 10.2723 13.1235 9.22127 12.4132C9.10552 12.3245 8.99814 12.2314 8.89097 12.1325C8.82328 12.0711 8.82328 12.0711 8.75422 12.0086C8.0842 11.3824 7.49793 10.442 7.44604 9.50907C7.45884 9.29814 7.51894 9.15485 7.64068 8.9836C7.93037 8.75303 8.22365 8.67997 8.5755 8.80416Z" fill="black"/>
</g>
<defs>
<clipPath id="clip0_21_258">
<rect width="23.7093" height="23.7093" fill="white"/>
</clipPath>
</defs>
</svg>
