<svg width="24" height="24" viewBox="0 0 24 24" fill="none" xmlns="http://www.w3.org/2000/svg">
<path d="M18.1238 9.97385C18.1238 11.7723 17.54 13.4337 16.5565 14.7816L21.5171 19.7461C22.0069 20.2359 22.0069 21.0313 21.5171 21.5211C21.0273 22.0109 20.2319 22.0109 19.7421 21.5211L14.7815 16.5566C13.4336 17.5401 11.7723 18.1239 9.97378 18.1239C5.47166 18.1239 1.82373 14.476 1.82373 9.97385C1.82373 5.47172 5.47166 1.82379 9.97378 1.82379C14.4759 1.82379 18.1238 5.47172 18.1238 9.97385ZM9.97378 15.6162C10.7147 15.6162 11.4485 15.4702 12.133 15.1867C12.8176 14.9031 13.4396 14.4875 13.9635 13.9636C14.4875 13.4396 14.9031 12.8176 15.1866 12.1331C15.4702 11.4485 15.6161 10.7148 15.6161 9.97385C15.6161 9.23288 15.4702 8.49918 15.1866 7.81461C14.9031 7.13005 14.4875 6.50805 13.9635 5.98411C13.4396 5.46017 12.8176 5.04455 12.133 4.761C11.4485 4.47744 10.7147 4.3315 9.97378 4.3315C9.23282 4.3315 8.49911 4.47744 7.81455 4.761C7.12999 5.04455 6.50798 5.46017 5.98404 5.98411C5.4601 6.50805 5.04449 7.13005 4.76094 7.81461C4.47738 8.49918 4.33144 9.23288 4.33144 9.97385C4.33144 10.7148 4.47738 11.4485 4.76094 12.1331C5.04449 12.8176 5.4601 13.4396 5.98404 13.9636C6.50798 14.4875 7.12999 14.9031 7.81455 15.1867C8.49911 15.4702 9.23282 15.6162 9.97378 15.6162Z" fill="black"/>
</svg>
