<svg width="24" height="24" viewBox="0 0 24 24" fill="none" xmlns="http://www.w3.org/2000/svg">
<g clip-path="url(#clip0_21_261)">
<path d="M9.21665 8.59787C9.21665 7.77731 9.54262 6.99035 10.1228 6.41013C10.7031 5.82991 11.49 5.50394 12.3106 5.50394C13.1311 5.50394 13.9181 5.82991 14.4983 6.41013C15.0785 6.99035 15.4045 7.77731 15.4045 8.59787C15.4045 9.41843 15.0785 10.2054 14.4983 10.7856C13.9181 11.3658 13.1311 11.6918 12.3106 11.6918C11.49 11.6918 10.7031 11.3658 10.1228 10.7856C9.54262 10.2054 9.21665 9.41843 9.21665 8.59787ZM17.2609 8.59787C17.2609 7.28497 16.7393 6.02585 15.811 5.09749C14.8826 4.16913 13.6235 3.64758 12.3106 3.64758C10.9977 3.64758 9.73856 4.16913 8.8102 5.09749C7.88184 6.02585 7.3603 7.28497 7.3603 8.59787C7.3603 9.91076 7.88184 11.1699 8.8102 12.0982C9.73856 13.0266 10.9977 13.5482 12.3106 13.5482C13.6235 13.5482 14.8826 13.0266 15.811 12.0982C16.7393 11.1699 17.2609 9.91076 17.2609 8.59787ZM5.50394 22.2111C5.50394 19.4769 7.71996 17.2609 10.4542 17.2609H14.1669C16.9012 17.2609 19.1172 19.4769 19.1172 22.2111V22.5205C19.1172 23.0349 19.531 23.4487 20.0454 23.4487C20.5598 23.4487 20.9736 23.0349 20.9736 22.5205V22.2111C20.9736 18.452 17.9261 15.4045 14.1669 15.4045H10.4542C6.6951 15.4045 3.64758 18.452 3.64758 22.2111V22.5205C3.64758 23.0349 4.0614 23.4487 4.57576 23.4487C5.09013 23.4487 5.50394 23.0349 5.50394 22.5205V22.2111Z" fill="black"/>
</g>
<defs>
<clipPath id="clip0_21_261">
<rect width="23.7093" height="23.7093" fill="white"/>
</clipPath>
</defs>
</svg>
